<?xml version="1.0" encoding="UTF-8" standalone="no"?>
<!-- Generator: Adobe Illustrator 16.0.4, SVG Export Plug-In . SVG Version: 6.00 Build 0)  -->

<svg
   xmlns:dc="http://purl.org/dc/elements/1.1/"
   xmlns:cc="http://creativecommons.org/ns#"
   xmlns:rdf="http://www.w3.org/1999/02/22-rdf-syntax-ns#"
   xmlns:svg="http://www.w3.org/2000/svg"
   xmlns="http://www.w3.org/2000/svg"
   xmlns:sodipodi="http://sodipodi.sourceforge.net/DTD/sodipodi-0.dtd"
   xmlns:inkscape="http://www.inkscape.org/namespaces/inkscape"
   version="1.1"
   id="squid"
   x="0px"
   y="0px"
   width="257.32675mm"
   height="330.65244mm"
   viewBox="0 0 911.78771 1171.6031"
   enable-background="new 0 0 738.37 1059.259"
   xml:space="preserve"
   inkscape:version="0.91 r13725"
   sodipodi:docname="logo.svg"><metadata
     id="metadata3581"><rdf:RDF><cc:Work
         rdf:about=""><dc:format>image/svg+xml</dc:format><dc:type
           rdf:resource="http://purl.org/dc/dcmitype/StillImage" /><dc:title></dc:title></cc:Work></rdf:RDF></metadata><defs
     id="defs3579"><inkscape:path-effect
       effect="skeletal"
       id="path-effect4562"
       is_visible="true"
       pattern="M 0,0 1,0"
       copytype="single_stretched"
       prop_scale="4"
       scale_y_rel="false"
       spacing="0"
       normal_offset="0"
       tang_offset="0"
       prop_units="false"
       vertical_pattern="false"
       fuse_tolerance="0" /><inkscape:path-effect
       effect="powerstroke"
       id="path-effect4560"
       is_visible="true"
       offset_points="0,0.5"
       sort_points="true"
       interpolator_type="SpiroInterpolator"
       interpolator_beta="0.2"
       start_linecap_type="zerowidth"
       linejoin_type="round"
       miter_limit="4"
       end_linecap_type="zerowidth"
       cusp_linecap_type="round" /><inkscape:path-effect
       effect="skeletal"
       id="path-effect4469"
       is_visible="true"
       pattern="m 103.45903,-104.21524 c 0,-2.76 2.24,-5 5,-5 2.76,0 5,2.24 5,5 0,2.76 -2.24,5.000003 -5,5.000003 -2.76,0 -5,-2.240003 -5,-5.000003 z"
       copytype="single_stretched"
       prop_scale="2"
       scale_y_rel="false"
       spacing="0"
       normal_offset="0"
       tang_offset="0"
       prop_units="false"
       vertical_pattern="false"
       fuse_tolerance="0" /><inkscape:path-effect
       effect="skeletal"
       id="path-effect4461"
       is_visible="true"
       pattern="m -3.8034862,-90.772904 c 0,-2.76 2.24,-5 5,-5 2.76,0 5,2.24 5,5 0,2.76 -2.24,5 -5,5 -2.76,0 -5,-2.24 -5,-5 z"
       copytype="single_stretched"
       prop_scale="2"
       scale_y_rel="false"
       spacing="0"
       normal_offset="0"
       tang_offset="0"
       prop_units="false"
       vertical_pattern="false"
       fuse_tolerance="0" /><inkscape:path-effect
       effect="skeletal"
       id="path-effect4453"
       is_visible="true"
       pattern="m 54.703339,-80.146198 c 0,-2.76 2.24,-5 5,-5 2.76,0 5,2.24 5,5 0,2.76 -2.24,5 -5,5 -2.76,0 -5,-2.24 -5,-5 z"
       copytype="single_stretched"
       prop_scale="2"
       scale_y_rel="false"
       spacing="0"
       normal_offset="0"
       tang_offset="0"
       prop_units="false"
       vertical_pattern="false"
       fuse_tolerance="0" /><inkscape:path-effect
       effect="skeletal"
       id="path-effect4449"
       is_visible="true"
       pattern="m 83.956751,-95.897335 c 0,-2.76 2.24,-5.000005 5,-5.000005 2.76,0 5,2.240005 5,5.000005 0,2.76 -2.24,5 -5,5 -2.76,0 -5,-2.24 -5,-5 z"
       copytype="single_stretched"
       prop_scale="2"
       scale_y_rel="false"
       spacing="0"
       normal_offset="0"
       tang_offset="0"
       prop_units="false"
       vertical_pattern="false"
       fuse_tolerance="0" /><inkscape:path-effect
       effect="skeletal"
       id="path-effect4445"
       is_visible="true"
       pattern="m 103.45903,-126.90188 c 0,-2.76 2.24,-5 5,-5 2.76,0 5,2.24 5,5 0,2.76 -2.24,5 -5,5 -2.76,0 -5,-2.24 -5,-5 z"
       copytype="single_stretched"
       prop_scale="2"
       scale_y_rel="false"
       spacing="0"
       normal_offset="0"
       tang_offset="0"
       prop_units="false"
       vertical_pattern="false"
       fuse_tolerance="0" /><inkscape:path-effect
       effect="skeletal"
       id="path-effect4433"
       is_visible="true"
       pattern="m 59.578908,-33.519491 c 0,-2.76 2.24,-5 5,-5 2.76,0 5,2.24 5,5 0,2.76 -2.24,5 -5,5 -2.76,0 -5,-2.24 -5,-5 z"
       copytype="single_stretched"
       prop_scale="3"
       scale_y_rel="false"
       spacing="0"
       normal_offset="0"
       tang_offset="0"
       prop_units="false"
       vertical_pattern="false"
       fuse_tolerance="0" /><inkscape:path-effect
       effect="skeletal"
       id="path-effect4429"
       is_visible="true"
       pattern="m 118.08573,-99.339669 c 0,-2.760001 2.24,-5.000001 5,-5.000001 2.76,0 5,2.24 5,5.000001 0,2.76 -2.24,5 -5,5 -2.76,0 -5,-2.24 -5,-5 z"
       copytype="single_stretched"
       prop_scale="3"
       scale_y_rel="false"
       spacing="0"
       normal_offset="0"
       tang_offset="0"
       prop_units="false"
       vertical_pattern="false"
       fuse_tolerance="0" /><inkscape:path-effect
       effect="skeletal"
       id="path-effect4415"
       is_visible="true"
       pattern="M 0,5 C 0,2.24 2.24,0 5,0 7.76,0 10,2.24 10,5 10,7.76 7.76,10 5,10 2.24,10 0,7.76 0,5 Z"
       copytype="single_stretched"
       prop_scale="1"
       scale_y_rel="false"
       spacing="0"
       normal_offset="0"
       tang_offset="0"
       prop_units="false"
       vertical_pattern="false"
       fuse_tolerance="0" /><inkscape:path-effect
       effect="skeletal"
       id="path-effect4411"
       is_visible="true"
       pattern="M 0,5 C 0,2.24 2.24,0 5,0 7.76,0 10,2.24 10,5 10,7.76 7.76,10 5,10 2.24,10 0,7.76 0,5 Z"
       copytype="single_stretched"
       prop_scale="1"
       scale_y_rel="false"
       spacing="0"
       normal_offset="0"
       tang_offset="0"
       prop_units="false"
       vertical_pattern="false"
       fuse_tolerance="0" /><inkscape:path-effect
       effect="skeletal"
       id="path-effect4407"
       is_visible="true"
       pattern="M 0,5 C 0,2.24 2.24,0 5,0 7.76,0 10,2.24 10,5 10,7.76 7.76,10 5,10 2.24,10 0,7.76 0,5 Z"
       copytype="single_stretched"
       prop_scale="1"
       scale_y_rel="false"
       spacing="0"
       normal_offset="0"
       tang_offset="0"
       prop_units="false"
       vertical_pattern="false"
       fuse_tolerance="0" /><inkscape:path-effect
       effect="skeletal"
       id="path-effect4403"
       is_visible="true"
       pattern="M 0,5 C 0,2.24 2.24,0 5,0 7.76,0 10,2.24 10,5 10,7.76 7.76,10 5,10 2.24,10 0,7.76 0,5 Z"
       copytype="single_stretched"
       prop_scale="1"
       scale_y_rel="false"
       spacing="0"
       normal_offset="0"
       tang_offset="0"
       prop_units="false"
       vertical_pattern="false"
       fuse_tolerance="0" /><inkscape:path-effect
       effect="skeletal"
       id="path-effect4399"
       is_visible="true"
       pattern="M 0,5 C 0,2.24 2.24,0 5,0 7.76,0 10,2.24 10,5 10,7.76 7.76,10 5,10 2.24,10 0,7.76 0,5 Z"
       copytype="single_stretched"
       prop_scale="1"
       scale_y_rel="false"
       spacing="0"
       normal_offset="0"
       tang_offset="0"
       prop_units="false"
       vertical_pattern="false"
       fuse_tolerance="0" /></defs><sodipodi:namedview
     pagecolor="#ffffff"
     bordercolor="#666666"
     borderopacity="1"
     objecttolerance="10"
     gridtolerance="10"
     guidetolerance="10"
     inkscape:pageopacity="0"
     inkscape:pageshadow="2"
     inkscape:window-width="2016"
     inkscape:window-height="1336"
     id="namedview3577"
     showgrid="false"
     showguides="true"
     units="mm"
     showborder="true"
     inkscape:zoom="0.9986317"
     inkscape:cx="461.02917"
     inkscape:cy="585.80157"
     inkscape:window-x="169"
     inkscape:window-y="14"
     inkscape:window-maximized="0"
     inkscape:current-layer="squid"
     fit-margin-top="0"
     fit-margin-left="0"
     fit-margin-right="0"
     fit-margin-bottom="0"><inkscape:grid
       type="xygrid"
       id="grid4479"
       originx="88.832319"
       originy="133.79909" /></sodipodi:namedview><ellipse
     style="opacity:1;fill:#fbffea;fill-opacity:1;fill-rule:nonzero;stroke:none;stroke-width:1;stroke-linecap:butt;stroke-linejoin:miter;stroke-miterlimit:4;stroke-dasharray:none;stroke-opacity:1"
     id="path4521"
     cx="459.37552"
     cy="595.34613"
     rx="143.82928"
     ry="132.85925" /><path
     style="fill:#22b4d6;fill-opacity:1;fill-rule:evenodd;stroke:none;stroke-width:1;stroke-linecap:butt;stroke-linejoin:miter;stroke-miterlimit:4;stroke-dasharray:none;stroke-opacity:1"
     d="m 335.593,581.63229 c 0.99625,0.98317 -2.43522,5.95757 -8.83473,15.0376 -5.81212,8.24661 -16.36486,23.03441 -24.80904,40.20655 -6.29081,12.78557 -12.38666,28.77607 -14.93714,46.55835 -1.92462,13.16305 -1.93952,27.5248 0.36101,42.68923 2.00788,13.30667 5.76603,26.84408 10.89235,41.17428 4.79324,13.36539 10.51698,26.50874 16.96154,40.87574 5.74409,12.77919 12.35489,27.08363 18.16632,41.35578 5.40689,13.2316 10.53177,27.56668 14.05522,42.83861 3.29745,14.23229 4.99079,29.56885 3.83853,45.36625 -1.19369,16.44961 -4.08002,33.70655 -10.13514,50.64568 -4.42652,12.50244 -11.06877,24.99974 -20.6803,35.97794 -7.836,8.8776 -17.75691,16.2371 -29.26107,21.0341 -9.64833,3.9221 -19.8954,5.8565 -30.11595,5.8859 -1.10515,0 -2.20849,-0.016 -3.3092,-0.057 -11.68483,-0.4474 -22.88138,-3.0528 -33.13702,-7.1487 -11.07159,-4.3978 -21.21964,-10.3743 -30.25081,-17.4034 -19.78763,-15.3354 -34.70875,-35.6918 -43.29305,-58.12487 -13.97391,-36.82511 -21.31828,-74.13039 -24.89578,-108.75716 0,0 -1e-5,-4e-5 -1e-5,-4e-5 -2.04498,-19.74012 -5.2931,-78.87533 -6.54996,-92.7589 -1.36395,-15.00132 -3.19139,-28.6579 -5.99068,-41.6791 -3.17022,-14.76373 -7.42553,-28.02076 -12.56488,-39.92458 C 94.330377,669.69174 86.002336,656.28464 78.255286,645.5412 57.366049,616.55317 40.698711,604.24407 42.953696,601.44424 c 0.78696,-0.97711 20.439224,7.51195 45.882957,35.48832 9.494274,10.44768 19.762937,24.0008 28.534017,40.69438 6.61416,12.61764 12.28925,26.84848 16.66463,42.70256 3.84375,13.93585 6.60308,28.4805 8.73667,44.05446 11.65604,84.77904 -1.80896,4.26184 9.99916,92.2554 0,0 1e-5,3e-5 1e-5,3e-5 4.41441,32.81624 12.03396,67.72404 25.4475,101.36688 6.8481,17.27422 18.85292,33.1947 34.36509,45.07283 7.09044,5.3994 14.83948,9.9449 23.03131,13.1285 7.57456,2.9215 15.46528,4.8132 23.19864,5.0318 0.71712,0.021 1.4345,0.03 2.15129,0.025 6.6293,-0.043 13.12523,-1.2044 18.87632,-3.5971 6.87853,-2.7412 13.18572,-7.4686 18.37245,-13.1788 6.58757,-7.16783 11.4367,-16.44349 15.19753,-26.27675 5.08976,-13.4649 7.64577,-28.17257 9.05067,-42.88107 1.18097,-12.17942 -0.0483,-24.75054 -2.52378,-36.95483 -2.69031,-13.1829 -7.06657,-26.28514 -11.79924,-38.96273 -5.08373,-13.56406 -11.22273,-27.99775 -16.57107,-41.10053 -6.03743,-14.76001 -11.50709,-28.84983 -16.0496,-43.41032 -4.8941,-15.64529 -8.28619,-30.93587 -9.7833,-46.11621 -1.70626,-17.40319 -0.61015,-33.85717 2.63003,-48.78042 4.4296,-20.16744 12.63318,-37.17379 20.88579,-50.26524 11.27583,-17.8705 23.81474,-30.88696 31.77392,-38.14216 8.42173,-7.67684 13.68861,-10.83401 14.56831,-9.96585 z"
     id="path4427"
     inkscape:path-effect="#path-effect4429"
     inkscape:original-d="m 335.593,581.63229 c -140.80528,142.67744 10.50838,244.2703 1.2815,354.90034 C 324.61542,1083.5186 197.00465,1046.493 164.66158,963.2753 106.23425,812.94361 174.46831,707.36613 42.953695,601.44424"
     inkscape:connector-curvature="0"
     sodipodi:nodetypes="cssc" /><path
     style="fill:#22b4d6;fill-opacity:1;fill-rule:evenodd;stroke:none;stroke-width:1;stroke-linecap:butt;stroke-linejoin:miter;stroke-miterlimit:4;stroke-dasharray:none;stroke-opacity:1"
     d="m 600.0104,699.50171 c 1.43436,0.91562 -0.89051,6.14242 -1.98998,15.9764 -0.52398,4.70306 -0.69615,10.05431 -0.2208,16.69595 0.7906,11.18019 3.30308,23.21654 8.4272,38.5146 0,0 10e-6,10e-6 10e-6,10e-6 4.42142,13.07257 10.41126,26.84352 18.48198,41.7938 7.02571,12.98604 15.4512,26.4399 25.5297,39.74508 8.45935,11.13819 18.0774,22.30044 29.05105,32.1012 8.70633,7.66303 18.0243,14.79982 28.0053,18.8616 3.9605,1.61971 7.85988,2.84269 11.53744,3.22669 3.22908,0.33826 6.37984,0.2427 9.05785,-0.53145 0,-10e-6 2e-5,-10e-6 2e-5,-10e-6 2.6878,-0.67868 5.41002,-2.1317 7.87752,-4.05015 2.99171,-2.26436 5.6825,-5.61389 8.26109,-9.51715 4.75729,-7.41737 8.50271,-15.67588 11.06721,-24.40382 0.80201,-2.70948 1.48903,-5.47938 2.06943,-8.30113 1.21104,-5.88776 1.94264,-11.92727 2.30129,-17.99923 1.15022,-18.55124 -1.58416,-37.79131 -5.10854,-56.34705 4.2406,21.95624 -16.13432,-76.76324 -11.85865,-54.74906 -1.58093,-8.04313 -2.90232,-16.23573 -3.45873,-24.77068 -0.55263,-7.14518 -0.28502,-14.90432 1.65321,-22.93248 3.58278,-13.89343 10.16918,-26.27339 18.6161,-36.36967 4.28761,-5.20181 9.37918,-9.87718 15.27049,-13.63793 5.67512,-3.68167 12.32753,-6.07847 19.44352,-6.72569 7.96955,-0.50393 15.28405,1.48678 21.26516,4.93408 8.31265,4.90971 14.17749,11.45282 18.3262,17.59978 7.24282,10.50077 11.74631,21.47181 14.7581,30.31892 9.79516,28.5378 9.24683,45.76955 7.52044,46.21371 -3.38498,0.87088 -7.79211,-15.25737 -20.94697,-40.4882 -4.04801,-7.7201 -9.3127,-17.09312 -16.02238,-24.75014 -3.96347,-4.40689 -8.40918,-8.69297 -13.20558,-10.67122 -3.08984,-1.31738 -6.55651,-1.98656 -9.45622,-1.3737 -2.81126,0.37326 -5.83803,1.94404 -8.9057,4.09492 -3.27082,2.35159 -6.25031,5.62167 -9.14482,9.47622 -5.71546,7.76124 -10.02281,17.18416 -12.16594,27.4001 -0.93967,4.08975 -0.68724,9.02173 -0.19806,14.74025 0.68055,6.7362 2.11728,13.68682 3.82148,21.20654 3.23284,14.10873 9.77578,37.97521 13.34365,54.63922 4.26889,19.64969 7.44807,41.287 6.36199,63.82028 -0.37511,7.40678 -1.28363,14.9236 -2.83903,22.43505 -0.74528,3.59916 -1.63436,7.17428 -2.67475,10.71565 -3.38553,11.45911 -8.39482,22.29591 -14.81466,32.1323 -3.88402,6.07283 -8.90053,11.8341 -15.16631,16.72961 -5.49553,4.2403 -11.87791,7.36951 -18.80919,9.11587 0,0 -4e-5,0 -4e-5,0 -6.87764,1.63484 -13.6923,1.83147 -20.07937,0.88936 -7.0399,-1.04302 -13.48577,-3.11803 -19.24165,-5.76216 -14.11535,-6.51307 -25.70948,-15.677 -35.24331,-25.00295 -12.2949,-11.87156 -22.50858,-24.7641 -31.05977,-37.37557 -10.23974,-15.06199 -18.45115,-30.16932 -24.97334,-44.65965 -7.49285,-16.61062 -12.66636,-32.22747 -15.94322,-46.85457 0,0 0,-2e-5 0,-2e-5 -3.8348,-16.91947 -4.71043,-31.29323 -3.45015,-43.69308 0.76084,-7.46893 2.35446,-13.66011 4.31785,-18.65383 4.26458,-10.87255 9.58283,-14.41349 10.61188,-13.7566 z"
     id="path4431"
     inkscape:connector-curvature="0"
     inkscape:original-d="m 600.0104,699.50171 c -45.07482,70.61183 99.11909,289.53958 156.5275,200.92008 47.03547,-72.60713 -13.58512,-170.73345 -3.1677,-214.59637 10.41743,-43.86291 66.8034,-99.51734 102.52381,39.32261"
     inkscape:path-effect="#path-effect4433"
     sodipodi:nodetypes="cssc" /><path
     style="fill:#22b4d6;fill-opacity:1;fill-rule:evenodd;stroke:none;stroke-width:1;stroke-linecap:butt;stroke-linejoin:miter;stroke-miterlimit:4;stroke-dasharray:none;stroke-opacity:1"
     d="m 402.81124,717.70164 c 1.9348,0.0152 3.5679,11.32427 5.27147,30.84243 1.53436,17.57957 3.70772,49.24157 5.27469,80.42584 1.42932,28.34293 2.70373,63.16446 1.29797,98.01394 -0.0364,0.90289 -0.0745,1.80452 -0.11441,2.70492 -1.61284,36.48389 -6.24762,69.13772 -13.47172,98.48493 -15.90464,64.4717 -40.69542,101.6763 -43.10995,100.5743 -4.34329,-1.9823 14.04223,-41.8039 25.98576,-104.3282 5.50869,-28.75679 9.06132,-59.93863 10.61677,-95.60833 0.0382,-0.87772 0.0752,-1.75687 0.11111,-2.63752 1.34457,-33.01357 0.98142,-69.3652 0.9948,-96.76221 0.01,-34.20262 0.53614,-60.06207 1.94867,-80.7704 1.34091,-19.65835 3.29327,-30.95461 5.19484,-30.9397 z"
     id="path4443"
     inkscape:path-effect="#path-effect4445"
     inkscape:original-d="m 402.81124,717.70164 c -1.25458,160.01317 20.84562,267.10065 -44.85195,411.04636"
     inkscape:connector-curvature="0" /><path
     style="fill:#22b4d6;fill-opacity:1;fill-rule:evenodd;stroke:none;stroke-width:1;stroke-linecap:butt;stroke-linejoin:miter;stroke-miterlimit:4;stroke-dasharray:none;stroke-opacity:1"
     d="m 473.87312,765.29903 c 0.23231,0.84045 -1.56954,1.99806 -4.63432,4.13548 -2.87698,2.00645 -7.56821,5.37617 -11.27655,10.37414 -3.48053,4.57053 -6.24229,10.48301 -8.09744,18.21734 0,0 -10e-6,10e-6 -10e-6,10e-6 -1.66327,7.03238 -2.24255,14.73025 -2.04316,23.75635 0.21612,8.70015 1.27037,17.78125 3.05402,27.75457 1e-5,0 1e-5,2e-5 1e-5,2e-5 3.32254,18.53883 8.80467,37.72289 16.56518,58.71857 3.24022,8.74115 6.83381,17.59019 10.84045,26.43646 1.92253,4.23978 3.92604,8.47179 6.03933,12.64232 1.50713,2.97428 3.05346,5.88451 4.65339,8.72916 5.80421,10.30916 10.0284,21.20757 12.57005,32.29411 2.30329,10.03031 3.16844,20.12944 2.57946,29.96254 -0.49551,8.6636 -2.21315,17.1316 -5.33439,25.0461 -2.4606,6.5211 -6.31461,12.813 -11.87827,17.9195 -2.37263,2.1575 -5.24306,3.9789 -8.53246,5.2656 -3.18175,1.2168 -6.6072,1.6697 -10.03802,1.343 -3.76899,-0.4425 -7.07291,-1.7009 -9.79894,-3.4379 -3.45682,-2.2058 -6.14135,-4.8405 -8.20423,-7.4919 -6.71361,-8.6441 -9.99196,-18.2546 -11.95466,-25.7762 -7.12359,-26.3982 -4.11532,-42.35337 -2.95496,-42.50012 3.29135,-0.41627 4.57131,15.20482 14.34047,38.64602 2.8232,6.6251 6.45155,14.6177 11.77822,20.0047 1.57871,1.5897 3.18472,2.9798 4.79886,3.7307 1.19578,0.5495 2.3634,0.921 3.28062,0.8561 0.8,0.014 1.73303,-0.2396 2.60707,-0.6541 1.0018,-0.4393 2.05081,-1.3032 3.16718,-2.3849 2.84805,-2.7029 4.81876,-6.8741 6.64086,-11.7914 2.06752,-5.9441 3.05396,-12.5571 3.27144,-19.6277 0.2181,-7.9749 -0.74761,-16.2497 -2.81567,-24.57358 -2.28451,-9.1774 -5.96671,-18.28575 -10.91375,-27.00379 -1.77303,-3.12471 -3.4687,-6.29651 -5.09983,-9.51168 -2.28784,-4.5096 -4.41193,-9.03204 -6.405,-13.51887 -4.17522,-9.38851 -7.83273,-18.76246 -11.04006,-28.00707 -7.67089,-22.04907 -12.69645,-42.83635 -15.10952,-62.7913 0,0 0,-1e-5 0,-1e-5 -1.30696,-10.77124 -1.73164,-20.88982 -1.17258,-30.56099 0.55434,-10.00574 2.25396,-19.01476 5.18245,-27.09914 0,0 0,-10e-6 0,-10e-6 3.2328,-9.0172 8.0689,-15.95322 13.36418,-20.80264 12.80843,-11.52917 22.51762,-8.49109 22.57058,-8.29949 z"
     id="path4447"
     inkscape:path-effect="#path-effect4449"
     inkscape:original-d="m 473.87312,765.29903 c -63.89237,17.66028 -22.16552,145.11403 6.40534,195.67781 45.18759,79.97146 -27.89867,161.74976 -44.85086,27.71134"
     inkscape:connector-curvature="0"
     sodipodi:nodetypes="csc" /><path
     style="fill:#22b4d6;fill-opacity:1;fill-rule:evenodd;stroke:none;stroke-width:1;stroke-linecap:butt;stroke-linejoin:miter;stroke-miterlimit:4;stroke-dasharray:none;stroke-opacity:1"
     d="m 490.26019,710.66139 c 2.55898,0.61121 -1.35003,21.60557 0.91364,56.22363 1.14514,17.40312 3.59024,36.03203 7.91724,58.85356 0,0 0,2e-5 0,2e-5 7.45107,39.28393 15.47351,67.30436 26.91529,114.98751 0.72151,3.00684 1.43221,6.00113 2.13136,8.98795 5.04979,21.53404 9.31657,41.76654 12.4435,61.97504 3.30498,21.299 5.01886,40.8457 4.82033,59.6175 -0.2092,21.3683 -3.08878,39.5381 -7.8805,55.0378 -10.2986,33.2581 -26.69548,46.0196 -27.74141,45.2587 -2.51939,-1.8328 9.46246,-17.3242 15.62158,-48.3572 2.94738,-14.7921 4.20926,-31.4821 3.32772,-51.6705 -0.78941,-17.753 -3.19308,-36.0969 -6.94067,-56.7255 -3.57355,-19.62057 -8.00418,-39.08945 -13.10118,-60.54502 -0.70351,-2.95606 -1.41358,-5.92072 -2.13148,-8.9078 -10.72635,-44.63122 -19.24066,-79.0704 -24.52004,-116.85705 0,0 0,-2e-5 0,-2e-5 -3.27918,-23.45685 -4.44592,-43.47376 -3.86515,-61.45124 1.1693,-36.68637 9.98737,-56.92954 12.08977,-56.42738 z"
     id="path4451"
     inkscape:path-effect="#path-effect4453"
     inkscape:original-d="M 490.26019,710.66139 C 455.97053,854.22342 593.11594,1057.047 509.77964,1171.6031"
     inkscape:connector-curvature="0"
     sodipodi:nodetypes="cc" /><path
     style="fill:#22b4d6;fill-opacity:1;fill-rule:evenodd;stroke:none;stroke-width:1;stroke-linecap:butt;stroke-linejoin:miter;stroke-miterlimit:4;stroke-dasharray:none;stroke-opacity:1"
     d="m 516.77622,851.44083 c 0.0927,-0.43928 10.20686,-3.87665 25.29737,6.16556 5.91401,4.00775 11.81318,10.04763 16.40115,18.30319 3.95459,7.10745 6.85497,15.14474 8.90244,24.12485 1.97715,8.5671 3.18707,17.42128 4.02031,26.9529 0,0 0,10e-6 0,10e-6 -0.16773,-1.89767 3.33482,54.3096 3.29413,53.8782 0.73493,7.6508 1.72327,15.33184 3.62678,22.52666 0.75615,2.7729 1.60341,5.483 2.60329,8.0392 1.21998,3.1187 2.64988,5.9642 4.39747,8.4377 4.51826,6.4962 9.59082,12.07 15.38737,15.9914 4.94237,3.3842 10.40186,5.7001 15.85495,6.6444 5.38938,0.9863 11.02195,0.6983 16.29752,-0.4666 5.76993,-1.2707 11.25556,-3.696 16.15795,-6.6599 12.09338,-7.3462 20.43647,-17.8956 25.4015,-27.6786 3.3513,-6.6195 5.19973,-12.876 6.16267,-18.36704 2.25937,-12.80045 -0.0451,-20.34899 1.97315,-21.02175 0.97847,-0.32616 6.95592,6.18223 7.38981,21.63146 0.17905,6.51237 -0.7602,14.31943 -3.73847,22.72253 -4.38054,12.4056 -13.18738,26.3062 -27.87751,36.7397 -5.99339,4.2694 -13.04176,7.8886 -20.98157,10.1337 -7.33625,2.0693 -15.41482,2.8203 -23.6832,1.6931 -8.39082,-1.1982 -16.55904,-4.2961 -23.84772,-9.0973 -8.34682,-5.5438 -15.32242,-12.7768 -20.91815,-20.9193 -2.69409,-3.9553 -4.85323,-8.1199 -6.5711,-12.3813 -1.40887,-3.4949 -2.50222,-7.0085 -3.34926,-10.458 -2.23741,-8.87713 -3.29631,-17.64974 -3.87717,-25.8875 -1.24688,-17.28779 -0.8424,-40.83953 -1.24625,-54.45336 0,0 0,-2e-5 0,-2e-5 -0.2826,-9.17408 -0.77686,-17.26275 -1.90812,-25.06907 -1.20775,-8.16382 -2.84001,-15.04841 -5.39283,-21.20435 -2.90216,-7.00965 -6.63838,-12.38688 -10.70694,-16.38551 -10.3823,-10.41988 -19.68047,-11.03859 -19.06957,-13.93496 z"
     id="path4459"
     inkscape:path-effect="#path-effect4461"
     inkscape:original-d="m 516.77622,851.44083 c 72.63781,15.32069 29.51647,129.49948 60.33209,174.10117 44.75628,64.7791 124.26632,-0.7699 105.44596,-57.23099"
     inkscape:connector-curvature="0"
     sodipodi:nodetypes="csc" /><path
     style="fill:#22b4d6;fill-opacity:1;fill-rule:evenodd;stroke:none;stroke-width:1;stroke-linecap:butt;stroke-linejoin:miter;stroke-miterlimit:4;stroke-dasharray:none;stroke-opacity:1"
     d="m 379.13092,746.63848 c 0.72501,-0.17222 14.94125,22.04709 9.81649,64.08965 0,0 0,2e-5 0,2e-5 -2.04104,16.57362 -7.59188,35.57291 -18.84561,53.9702 -8.63298,14.10274 -20.48407,27.60256 -35.5831,38.5934 -10.83813,7.9155 -23.39188,14.48471 -37.23618,18.53618 -2.19912,0.64356 -4.41408,1.21861 -6.64255,1.72339 -14.77701,3.40279 -30.13774,3.26951 -44.39988,-1.08841 -7.10549,-2.21556 -13.7225,-5.53954 -19.5778,-9.78808 -6.34691,-4.63249 -11.61076,-10.22767 -15.74393,-16.27923 -4.90455,-7.21175 -8.24838,-14.8934 -10.42599,-22.3677 -2.84847,-9.7694 -3.95409,-19.34822 -4.14573,-28.01733 0,0 0,-10e-6 0,-10e-6 -0.47238,-22.66034 4.42798,-42.19446 8.21178,-53.7145 4.00918,-12.20622 7.64444,-18.46228 8.99749,-18.0772 1.56553,0.44556 0.7497,7.51526 -0.6469,19.91268 -1.27703,11.33591 -3.5557,31.05817 -1.36052,50.91836 0,0 0,10e-6 0,10e-6 0.84114,7.68265 2.36231,15.89063 5.20491,23.7185 2.16899,5.96505 5.09177,11.8857 9.00706,17.04716 3.2618,4.32255 7.25511,8.25894 11.85382,11.36169 4.23066,2.87913 9.0763,5.12415 14.26698,6.62595 10.44377,3.11115 22.35978,2.88444 34.3599,0.24715 1.81788,-0.40795 3.63149,-0.87621 5.4391,-1.40294 11.36679,-3.3122 21.99493,-8.78846 31.41768,-15.34497 13.07369,-9.1324 23.70978,-20.47424 31.78655,-32.38077 10.51712,-15.48961 16.59515,-31.93618 19.81665,-46.59433 0,0 0,-10e-6 0,-10e-6 3.92146,-17.72984 3.84617,-34.04002 3.61111,-44.38754 -0.24527,-10.79727 -0.66923,-16.94789 0.81867,-17.30132 z"
     id="path4467"
     inkscape:path-effect="#path-effect4469"
     inkscape:original-d="M 379.13092,746.63848 C 422.49764,929.20749 149.11493,1000.6423 213.55591,774.21886"
     inkscape:connector-curvature="0" /><path
     style="opacity:1;fill:#22b4d6;fill-opacity:1;fill-rule:nonzero;stroke:none;stroke-width:1000;stroke-linecap:butt;stroke-linejoin:miter;stroke-miterlimit:4;stroke-dasharray:none;stroke-opacity:1"
     d="m 106.44381,599.37747 c 63.68359,81.83561 -13.801705,44.30924 -18.915352,47.45276 -6.887451,4.23396 -8.582001,89.00507 -51.8498,-3.95103 -14.425192,-30.99092 -21.212182,-97.64119 -11.751305,-103.45711 11.438032,-7.03135 61.793489,33.32565 82.516457,59.95538 z"
     id="path4485"
     inkscape:connector-curvature="0"
     sodipodi:nodetypes="sssss"
     inkscape:transform-center-x="4.5489218"
     inkscape:transform-center-y="-13.009011" /><g
     id="wings_1_"
     transform="translate(88.83232,-21.455001)"><g
       id="right_1_"><path
         d="m 248.566,301.502 c -5.196,12.73 0.969,27.397 13.7,32.593 l 226.221,92.329 c 12.73,5.196 27.397,-0.969 32.594,-13.7 l 77.416,-189.685 c 5.195,-12.73 -0.97,-27.397 -13.7,-32.593 L 358.575,98.12 c -12.73,-5.196 -27.397,0.969 -32.593,13.7 l -77.416,189.682 z"
         id="path3522"
         inkscape:connector-curvature="0"
         style="fill:#a0eaf2" /></g><g
       id="left_1_"><path
         d="m 481.498,301.503 c 5.195,12.73 -0.97,27.397 -13.7,32.593 l -226.221,92.329 c -12.73,5.196 -27.397,-0.969 -32.593,-13.7 L 131.568,223.04 c -5.196,-12.73 0.969,-27.397 13.7,-32.593 L 371.489,98.12 c 12.73,-5.196 27.397,0.969 32.593,13.7 l 77.416,189.683 z"
         id="path3525"
         inkscape:connector-curvature="0"
         style="fill:#a0eaf2" /></g></g><g
     id="fingers"
     display="none"
     style="display:none"
     transform="translate(88.83232,-21.455001)"><g
       display="inline"
       id="g3528"
       style="display:inline"><path
         d="m 203.823,609.804 c 0,-11.462 0,-11.462 0,-11.462 2,-12.086 1.309,-23.673 -1.361,-25.748 -2.669,-2.075 -24.168,21.094 -47.8,51.488 L 42.957,767.762 c -23.632,30.395 -19.337,73.63 9.537,96.08 28.874,22.45 71.836,15.951 95.468,-14.443 l 56.932,-73.22 c 23.632,-30.394 25.85,-81.73 4.976,-114.081 -0.001,0 -6.047,-9.31 -6.047,-52.294 z"
         id="path3530"
         inkscape:connector-curvature="0"
         style="fill:#111a2c" /></g><g
       display="inline"
       id="g3532"
       style="display:inline"><path
         d="m 243.674,709.733 c -16.315,-23.879 -37.996,-13.038 -48.178,24.091 l -46.373,169.088 c -10.183,37.129 10.345,75.422 45.618,85.095 35.272,9.674 72.463,-12.789 82.646,-49.918 L 305.86,834.27 C 316.042,797.14 259.989,733.612 243.674,709.733 Z"
         id="path3534"
         inkscape:connector-curvature="0"
         style="fill:#111a2c" /></g><g
       display="inline"
       id="g3536"
       style="display:inline"><path
         d="m 366.347,772.741 c -24.094,0 -24.094,0 -24.094,0 -23.887,-9 -43.43,16.344 -43.43,54.844 l 0,140.156 c 0,38.5 29.925,70 66.5,70 36.575,0 66.5,-31.5 66.5,-70 l 0,-139.24 c 0,-38.5 -18.98,-63.761 -42.178,-55.761 0,10e-4 0,10e-4 -23.298,10e-4 z"
         id="path3538"
         inkscape:connector-curvature="0"
         style="fill:#111a2c" /></g><g
       display="inline"
       id="g3540"
       style="display:inline"><path
         d="m 536.542,731.188 c -9.212,-37.382 -30.104,-47.799 -46.43,-23.148 -16.326,24.651 -74.246,89.306 -65.035,126.688 l 25.45,103.281 c 9.212,37.382 45.804,60.807 81.316,52.057 35.513,-8.751 57.032,-46.496 47.82,-83.878 l -43.121,-175 z"
         id="path3542"
         inkscape:connector-curvature="0"
         style="fill:#111a2c" /></g><g
       display="inline"
       id="g3544"
       style="display:inline"><path
         d="m 581.353,647.493 c -29.016,-25.305 -52.53,-43.521 -52.53,-40.479 0,0 0,0 0,2.79 0,48.12 -12.463,64.887 -12.463,64.887 -22.949,30.912 -17.994,76.908 11.021,102.213 L 598.2,838.67 c 29.016,25.305 72.423,23.456 96.463,-4.109 24.04,-27.564 19.976,-70.821 -9.04,-96.126 l -104.27,-90.942 z"
         id="path3546"
         inkscape:connector-curvature="0"
         style="fill:#111a2c" /></g></g><path
     id="body_1_"
     d="m 454.17932,0 c -68.81,0 -271.429,481.522 -271.429,631.428 0,149.906 121.522,191.429 271.429,191.429 149.905,0 271.429,-41.522 271.429,-191.429 C 725.60832,481.521 522.98932,0 454.17932,0 Z m 0,692.682 c -55.964,0 -101.333,-45.368 -101.333,-101.333 0,-55.964 45.369,-101.333 101.333,-101.333 55.965,0 101.333,45.369 101.333,101.333 0,55.965 -45.368,101.333 -101.333,101.333 z"
     inkscape:connector-curvature="0"
     style="fill:#22b4d6" /><path
     id="highlight"
     d="m 454.17932,0 c -68.81,0 -271.429,481.522 -271.429,631.428 0,37.477 7.595,68.18 21.331,93.153 -1.005,-193.066 57.573,-443.372 334.042,-625.540002 C 504.44932,39.351 473.84732,0 454.17932,0 Z"
     inkscape:connector-curvature="0"
     style="fill:#26a9bf" /><circle
     id="little_circle_2_"
     display="none"
     cx="454.17929"
     cy="591.349"
     r="101.333"
     style="display:none;fill:none" /><circle
     id="big_circle"
     display="none"
     cx="455.17929"
     cy="588.349"
     r="162.44501"
     style="display:none;fill:none" /><path
     id="shadow_1_"
     display="none"
     d="m 189.65532,677.286 c 15.571,131.32 166.294,174.896 239,194 68.506,18 99.574,57.604 127,128.00003 97.442,-99.31203 162.47,-289.06203 164,-328.00003 -144.197,81.838 -351.053,91.884 -530,6 z"
     inkscape:connector-curvature="0"
     style="display:none" /><path
     id="bandana_2_"
     d="m 185.08332,666.07872 c 15.571,141.86227 169.47,153.57465 243.124,169.82637 68.954,15.21466 120.689,43.60763 148.115,119.65497 97.442,-107.28469 146.12,-253.17207 147.65,-295.23706 -144.196,88.40789 -359.942,98.5355 -538.889,5.75572 z"
     inkscape:connector-curvature="0"
     style="fill:#d34848;fill-opacity:1" /><path
     id="shading"
     d="m 608.27832,710.37881 c -36.596,43.77076 -90.099,90.87957 -168.432,128.27019 63.141,15.87038 110.617,45.20645 136.476,116.91106 97.442,-107.28469 146.12,-253.17207 147.65,-295.23706 -34.886,21.38844 -73.968,38.1803 -115.694,50.05581 z"
     inkscape:connector-curvature="0"
     style="fill:#bd3a3a;fill-opacity:1" /><ellipse
     style="opacity:1;fill:#0f5463;fill-opacity:1;fill-rule:nonzero;stroke:none;stroke-width:1000;stroke-linecap:square;stroke-linejoin:miter;stroke-miterlimit:4;stroke-dasharray:none;stroke-opacity:1"
     id="path4391"
     cx="436.46112"
     cy="621.86584"
     rx="28.786589"
     ry="42.23246" /><ellipse
     style="opacity:1;fill:#22b4d6;fill-opacity:1;fill-rule:nonzero;stroke:none;stroke-width:1000;stroke-linecap:square;stroke-linejoin:miter;stroke-miterlimit:4;stroke-dasharray:none;stroke-opacity:1"
     id="path4425"
     cx="468.56979"
     cy="478.82846"
     rx="181.63913"
     ry="82.980637"
     transform="matrix(0.99999999,-1.3071103e-4,-0.05590145,0.99843629,0,0)" /><path
     inkscape:transform-center-y="16.746664"
     inkscape:transform-center-x="-2.3657821"
     sodipodi:nodetypes="sssss"
     inkscape:connector-curvature="0"
     id="path4523"
     d="m 819.56831,725.77744 c -53.61134,-88.76086 18.91981,-42.37731 24.36784,-44.89726 7.33782,-3.39408 18.99583,-87.37683 51.02464,10.02488 10.67819,32.47306 9.57512,99.45891 -0.5044,104.12115 -12.18597,5.63655 -57.44267,-40.36553 -74.88808,-69.24877 z"
     style="opacity:1;fill:#22b4d6;fill-opacity:1;fill-rule:nonzero;stroke:none;stroke-width:1000;stroke-linecap:butt;stroke-linejoin:miter;stroke-miterlimit:4;stroke-dasharray:none;stroke-opacity:1" /></svg>