<?xml version="1.0" encoding="UTF-8" standalone="no"?>
<!-- Generator: Adobe Illustrator 16.0.4, SVG Export Plug-In . SVG Version: 6.00 Build 0)  -->

<svg
   xmlns:dc="http://purl.org/dc/elements/1.1/"
   xmlns:cc="http://creativecommons.org/ns#"
   xmlns:rdf="http://www.w3.org/1999/02/22-rdf-syntax-ns#"
   xmlns:svg="http://www.w3.org/2000/svg"
   xmlns="http://www.w3.org/2000/svg"
   xmlns:sodipodi="http://sodipodi.sourceforge.net/DTD/sodipodi-0.dtd"
   xmlns:inkscape="http://www.inkscape.org/namespaces/inkscape"
   version="1.1"
   id="squid"
   x="0px"
   y="0px"
   width="1030.1404"
   height="1174.5131"
   viewBox="0 0 1030.1403 1174.513"
   enable-background="new 0 0 1123.404 1219.571"
   xml:space="preserve"
   inkscape:version="0.91 r13725"
   sodipodi:docname="logo-black.svg"><metadata
     id="metadata4214"><rdf:RDF><cc:Work
         rdf:about=""><dc:format>image/svg+xml</dc:format><dc:type
           rdf:resource="http://purl.org/dc/dcmitype/StillImage" /><dc:title></dc:title></cc:Work></rdf:RDF></metadata><defs
     id="defs4212" /><sodipodi:namedview
     pagecolor="#ffffff"
     bordercolor="#666666"
     borderopacity="1"
     objecttolerance="10"
     gridtolerance="10"
     guidetolerance="10"
     inkscape:pageopacity="0"
     inkscape:pageshadow="2"
     inkscape:window-width="1440"
     inkscape:window-height="856"
     id="namedview4210"
     showgrid="false"
     fit-margin-top="0"
     fit-margin-left="0"
     fit-margin-right="0"
     fit-margin-bottom="0"
     inkscape:zoom="0.55682646"
     inkscape:cx="515.07026"
     inkscape:cy="587.25649"
     inkscape:window-x="0"
     inkscape:window-y="0"
     inkscape:window-maximized="0"
     inkscape:current-layer="squid" /><path
     style="color:#000000;font-style:normal;font-variant:normal;font-weight:normal;font-stretch:normal;font-size:medium;line-height:normal;font-family:sans-serif;text-indent:0;text-align:start;text-decoration:none;text-decoration-line:none;text-decoration-style:solid;text-decoration-color:#000000;letter-spacing:normal;word-spacing:normal;text-transform:none;direction:ltr;block-progression:tb;writing-mode:lr-tb;baseline-shift:baseline;text-anchor:start;white-space:normal;clip-rule:nonzero;display:inline;overflow:visible;visibility:visible;opacity:1;isolation:auto;mix-blend-mode:normal;color-interpolation:sRGB;color-interpolation-filters:linearRGB;solid-color:#000000;solid-opacity:1;fill-opacity:1;fill-rule:nonzero;stroke:none;stroke-width:1;stroke-linecap:butt;stroke-linejoin:miter;stroke-miterlimit:4;stroke-dasharray:none;stroke-dashoffset:0;stroke-opacity:1;color-rendering:auto;image-rendering:auto;shape-rendering:auto;text-rendering:auto;enable-background:accumulate"
     d="m 430.49023,728.89648 -0.59961,0.26758 -31.89257,14.20313 0.14648,0.43164 c 0,0 15.51268,45.78177 16.58399,92.95703 0.53565,23.58763 -2.54718,47.50717 -12.92383,66.20117 -10.37666,18.694 -27.99931,32.20266 -56.78907,35.08594 -57.69087,5.77771 -88.97216,-18.70871 -105.94921,-44.65235 -16.97359,-25.93833 -19.56145,-53.32474 -19.5625,-53.33593 l 0,-0.004 c -5.2e-4,-0.006 -0.33028,-3.96479 -2.22071,-7.65234 -0.94595,-1.84521 -2.29135,-3.63923 -4.21289,-4.81446 -1.92153,-1.17522 -4.41432,-1.7044 -7.52539,-1.06445 -3.07203,0.63198 -5.15743,2.15353 -6.48828,4.06055 -1.33085,1.90702 -1.92027,4.17609 -2.12891,6.3418 -0.41727,4.33141 0.68555,8.31249 0.68555,8.3125 l -0.0137,-0.0625 c 0,0 4.67387,33.40069 26.16601,64.59374 21.49215,31.19306 59.89615,60.18768 127.06055,51.31446 33.59817,-4.43872 55.99358,-17.57014 70.47266,-35.67774 14.47908,-18.10759 21.03828,-41.1516 23.12695,-65.39453 4.17735,-48.48584 -9.51196,-101.85696 -13.83594,-130.46093 l -0.0996,-0.6504 z"
     id="path3872" /><path
     style="color:#000000;font-style:normal;font-variant:normal;font-weight:normal;font-stretch:normal;font-size:medium;line-height:normal;font-family:sans-serif;text-indent:0;text-align:start;text-decoration:none;text-decoration-line:none;text-decoration-style:solid;text-decoration-color:#000000;letter-spacing:normal;word-spacing:normal;text-transform:none;direction:ltr;block-progression:tb;writing-mode:lr-tb;baseline-shift:baseline;text-anchor:start;white-space:normal;clip-rule:nonzero;display:inline;overflow:visible;visibility:visible;opacity:1;isolation:auto;mix-blend-mode:normal;color-interpolation:sRGB;color-interpolation-filters:linearRGB;solid-color:#000000;solid-opacity:1;fill-opacity:1;fill-rule:nonzero;stroke:none;stroke-width:1;stroke-linecap:butt;stroke-linejoin:miter;stroke-miterlimit:4;stroke-dasharray:none;stroke-dashoffset:0;stroke-opacity:1;color-rendering:auto;image-rendering:auto;shape-rendering:auto;text-rendering:auto;enable-background:accumulate"
     d="m 429.71484,730.33789 c 4.43043,28.85412 17.84475,81.64882 13.71485,129.58399 -2.07795,24.11845 -8.59953,46.95805 -22.91211,64.85742 -14.31258,17.89937 -36.42044,30.89776 -69.82227,35.31054 -66.8356,8.82978 -104.76411,-19.91642 -126.10547,-50.89062 -21.34135,-30.9742 -26,-64.16602 -26,-64.16602 l -0.004,-0.0332 -0.01,-0.0312 c 0,0 -1.04782,-3.84608 -0.65234,-7.95117 0.19773,-2.05255 0.75713,-4.15145 1.95312,-5.86524 1.196,-1.71379 3.01568,-3.06532 5.86914,-3.65234 2.90493,-0.59755 5.09127,-0.10925 6.80274,0.9375 1.71146,1.04675 2.9537,2.67985 3.84375,4.41602 1.7801,3.47232 2.11523,7.2871 2.11523,7.2871 l 0,0.002 0,0.002 c 0,0 2.59446,27.61836 19.72266,53.79297 17.1282,26.17461 48.87864,50.91085 106.88476,45.10156 29.05875,-2.91022 47.05314,-16.66106 57.56446,-35.59765 10.51131,-18.9366 13.5868,-43.01924 13.04883,-66.70899 -1.061,-46.72117 -16.07934,-91.5677 -16.5,-92.8164 l 30.48632,-13.57813 z"
     id="path4138" /><path
     style="color:#000000;font-style:normal;font-variant:normal;font-weight:normal;font-stretch:normal;font-size:medium;line-height:normal;font-family:sans-serif;text-indent:0;text-align:start;text-decoration:none;text-decoration-line:none;text-decoration-style:solid;text-decoration-color:#000000;letter-spacing:normal;word-spacing:normal;text-transform:none;direction:ltr;block-progression:tb;writing-mode:lr-tb;baseline-shift:baseline;text-anchor:start;white-space:normal;clip-rule:nonzero;display:inline;overflow:visible;visibility:visible;opacity:1;isolation:auto;mix-blend-mode:normal;color-interpolation:sRGB;color-interpolation-filters:linearRGB;solid-color:#000000;solid-opacity:1;fill-opacity:1;fill-rule:nonzero;stroke:none;stroke-width:1;stroke-linecap:butt;stroke-linejoin:miter;stroke-miterlimit:4;stroke-dasharray:none;stroke-dashoffset:0;stroke-opacity:1;color-rendering:auto;image-rendering:auto;shape-rendering:auto;text-rendering:auto;enable-background:accumulate"
     d="m 480.91602,770.70117 c -1.11018,-0.12837 -2.39139,-0.0577 -3.83008,0.35547 -5.75476,1.65253 -13.94222,8.62031 -24.49805,29.67383 l -0.0918,0.18555 0.0664,0.19726 c 26.89974,79.94871 38.66138,157.92579 32.56055,206.44532 -2.08847,16.61 -6.30078,27.3432 -12.97266,33.6973 -6.67187,6.354 -15.86193,8.4285 -28.16406,7.5761 -11.03829,-0.7646 -18.33853,-4.7864 -23.00586,-11.0683 -4.66733,-6.2819 -6.69881,-14.8841 -6.97266,-24.8242 -0.63382,-23.00496 20.43772,-33.84526 20.48047,-33.86723 l 0.0117,-0.006 c 0,0 0.002,-0.002 0.002,-0.002 0.0226,-0.0107 3.92895,-1.85829 7.19922,-5.09375 1.63988,-1.62241 3.12875,-3.6001 3.86524,-5.90039 0.73648,-2.30029 0.69509,-4.92662 -0.69141,-7.70898 -1.36389,-2.73635 -3.35319,-4.31406 -5.5293,-5.07813 -2.17611,-0.76406 -4.52146,-0.73557 -6.67382,-0.37695 -4.28295,0.71361 -7.84083,2.7411 -7.87696,2.76172 0,0 -0.004,0.002 -0.004,0.002 -0.0118,0.006 -32.58613,16.342 -34.5293,55.25981 -0.17183,3.4418 0.32692,18.788 8.18359,33.4141 7.85667,14.626 23.15726,28.4433 52.31446,28.4433 15.65959,0 27.53157,-4.2428 36.4707,-11.3535 8.93912,-7.1107 14.93521,-17.0674 18.93945,-28.4434 8.00849,-22.7518 8.09142,-51.22033 7.75781,-74.41211 -0.6682,-46.45265 -13.48076,-127.70701 -27.82226,-187.07421 l -0.0274,-0.10547 -0.0664,-0.0859 c 0,0 -0.79357,-1.00586 -2.29492,-1.77148 -0.75068,-0.38282 -1.6906,-0.71147 -2.80078,-0.83985 z"
     id="path3876" /><path
     style="color:#000000;font-style:normal;font-variant:normal;font-weight:normal;font-stretch:normal;font-size:medium;line-height:normal;font-family:sans-serif;text-indent:0;text-align:start;text-decoration:none;text-decoration-line:none;text-decoration-style:solid;text-decoration-color:#000000;letter-spacing:normal;word-spacing:normal;text-transform:none;direction:ltr;block-progression:tb;writing-mode:lr-tb;baseline-shift:baseline;text-anchor:start;white-space:normal;clip-rule:nonzero;display:inline;overflow:visible;visibility:visible;opacity:1;isolation:auto;mix-blend-mode:normal;color-interpolation:sRGB;color-interpolation-filters:linearRGB;solid-color:#000000;solid-opacity:1;fill-opacity:1;fill-rule:nonzero;stroke:none;stroke-width:1;stroke-linecap:butt;stroke-linejoin:miter;stroke-miterlimit:4;stroke-dasharray:none;stroke-dashoffset:0;stroke-opacity:1;color-rendering:auto;image-rendering:auto;shape-rendering:auto;text-rendering:auto;enable-background:accumulate"
     d="m 480.80664,771.68945 c 0.98073,0.11385 1.79625,0.40622 2.45508,0.74219 1.27825,0.65185 1.86679,1.406 1.9043,1.45313 14.31076,59.2846 27.09644,140.45827 27.76171,186.70703 0.3334,23.17722 0.22109,51.5595 -7.70117,74.0664 -3.96113,11.2534 -9.86542,21.0289 -18.61914,27.9922 -8.75372,6.9632 -20.36825,11.1367 -35.84765,11.1367 -28.84281,0 -43.70752,-13.5331 -51.4336,-27.916 -7.72608,-14.383 -8.22558,-29.7044 -8.0664,-32.8926 1.91647,-38.38319 33.98242,-54.416 33.98242,-54.416 l 0.0117,-0.006 0.0117,-0.008 c 0,0 3.48304,-1.97524 7.57032,-2.65625 2.04364,-0.34051 4.22247,-0.35254 6.17773,0.33398 1.95527,0.68653 3.70569,2.05188 4.9668,4.58203 1.28,2.56864 1.30219,4.87245 0.63476,6.95703 -0.66742,2.08459 -2.05193,3.94556 -3.61718,5.49415 -3.13051,3.09717 -6.9375,4.9082 -6.9375,4.9082 l -0.008,0.004 -0.008,0.004 c 0,0 -21.68864,11.14328 -21.03711,34.79106 0.27715,10.0599 2.32525,18.8739 7.16992,25.3945 4.84467,6.5206 12.48953,10.6875 23.74024,11.4668 12.44886,0.8626 21.9977,-1.2514 28.92383,-7.8476 6.92612,-6.5962 11.1709,-17.575 13.27343,-34.2969 6.13165,-48.76459 -5.65429,-126.69829 -32.53711,-206.67387 10.45334,-20.78889 18.52781,-27.48306 23.78321,-28.99219 1.31806,-0.37849 2.46458,-0.44198 3.44531,-0.32813 z"
     id="path4140" /><path
     style="color:#000000;font-style:normal;font-variant:normal;font-weight:normal;font-stretch:normal;font-size:medium;line-height:normal;font-family:sans-serif;text-indent:0;text-align:start;text-decoration:none;text-decoration-line:none;text-decoration-style:solid;text-decoration-color:#000000;letter-spacing:normal;word-spacing:normal;text-transform:none;direction:ltr;block-progression:tb;writing-mode:lr-tb;baseline-shift:baseline;text-anchor:start;white-space:normal;clip-rule:nonzero;display:inline;overflow:visible;visibility:visible;opacity:1;isolation:auto;mix-blend-mode:normal;color-interpolation:sRGB;color-interpolation-filters:linearRGB;solid-color:#000000;solid-opacity:1;fill-opacity:1;fill-rule:nonzero;stroke:none;stroke-width:1;stroke-linecap:butt;stroke-linejoin:miter;stroke-miterlimit:4;stroke-dasharray:none;stroke-dashoffset:0;stroke-opacity:1;color-rendering:auto;image-rendering:auto;shape-rendering:auto;text-rendering:auto;enable-background:accumulate"
     d="m 562.54297,783.75 -0.41602,0.0371 c 0,0 -3.36853,0.30213 -9.71679,3.21875 -6.34827,2.91662 -15.73646,8.45099 -27.96094,18.92969 l -0.32617,0.28125 0.22851,0.36523 c 12.15543,19.37859 16.57736,56.41977 18.57617,92.39844 2.25222,40.53888 -7.33398,57.71491 -7.33398,123.30474 0,76.9858 73.60937,113.7793 73.60937,113.7793 l 0.0117,0.01 0.0137,0.01 c 0,0 3.52793,1.5265 7.75781,1.2793 4.22988,-0.2472 9.22279,-2.3593 11.9082,-9.3926 2.20419,-5.7738 0.2121,-10.5401 -2.30469,-13.7675 -2.51678,-3.2274 -5.57812,-5.0118 -5.57812,-5.0118 l -0.0332,-0.018 -0.0352,-0.016 c 0,0 -2.81851,-1.1063 -8.90625,-5.4101 -6.08774,-4.3038 -15.40075,-11.7873 -28.25977,-24.4805 -12.80073,-12.636 -17.93121,-32.8931 -18.66015,-56.6621 -0.72895,-23.76901 2.93822,-51.01259 7.61133,-77.52149 10.53953,-59.78379 4.52562,-107.5503 -10.07618,-160.92578 L 562.54297,783.75 Z"
     id="path3880" /><path
     style="color:#000000;font-style:normal;font-variant:normal;font-weight:normal;font-stretch:normal;font-size:medium;line-height:normal;font-family:sans-serif;text-indent:0;text-align:start;text-decoration:none;text-decoration-line:none;text-decoration-style:solid;text-decoration-color:#000000;letter-spacing:normal;word-spacing:normal;text-transform:none;direction:ltr;block-progression:tb;writing-mode:lr-tb;baseline-shift:baseline;text-anchor:start;white-space:normal;clip-rule:nonzero;display:inline;overflow:visible;visibility:visible;opacity:1;isolation:auto;mix-blend-mode:normal;color-interpolation:sRGB;color-interpolation-filters:linearRGB;solid-color:#000000;solid-opacity:1;fill-opacity:1;fill-rule:nonzero;stroke:none;stroke-width:1;stroke-linecap:butt;stroke-linejoin:miter;stroke-miterlimit:4;stroke-dasharray:none;stroke-dashoffset:0;stroke-opacity:1;color-rendering:auto;image-rendering:auto;shape-rendering:auto;text-rendering:auto;enable-background:accumulate"
     d="m 561.80273,784.86914 c 14.48923,53.11111 20.42179,100.57588 9.93946,160.03516 -4.6779,26.5361 -8.35781,53.82961 -7.625,77.7246 0.7328,23.895 5.87371,44.4288 18.95898,57.3457 12.89099,12.7248 22.2435,20.2423 28.38477,24.584 6.04882,4.2763 8.95866,5.4547 9.04687,5.4902 0,0 2.90801,1.7053 5.29297,4.7637 2.38496,3.0584 4.22702,7.3757 2.1582,12.7949 -2.56458,6.7168 -7.07362,8.5207 -11.03125,8.752 -3.94849,0.2307 -7.27758,-1.1907 -7.29296,-1.1973 -0.089,-0.044 -73.04102,-36.5753 -73.04102,-112.8769 0,-65.49227 9.59382,-82.6483 7.33203,-123.35942 -1.98901,-35.80212 -6.28994,-72.61868 -18.51758,-92.47656 12.00571,-10.24722 21.22364,-15.68641 27.41992,-18.5332 5.70569,-2.6214 8.47488,-2.98908 8.97461,-3.04688 z"
     id="path4142" /><path
     style="color:#000000;font-style:normal;font-variant:normal;font-weight:normal;font-stretch:normal;font-size:medium;line-height:normal;font-family:sans-serif;text-indent:0;text-align:start;text-decoration:none;text-decoration-line:none;text-decoration-style:solid;text-decoration-color:#000000;letter-spacing:normal;word-spacing:normal;text-transform:none;direction:ltr;block-progression:tb;writing-mode:lr-tb;baseline-shift:baseline;text-anchor:start;white-space:normal;clip-rule:nonzero;display:inline;overflow:visible;visibility:visible;opacity:1;isolation:auto;mix-blend-mode:normal;color-interpolation:sRGB;color-interpolation-filters:linearRGB;solid-color:#000000;solid-opacity:1;fill-opacity:1;fill-rule:nonzero;stroke:none;stroke-width:1;stroke-linecap:butt;stroke-linejoin:miter;stroke-miterlimit:4;stroke-dasharray:none;stroke-dashoffset:0;stroke-opacity:1;color-rendering:auto;image-rendering:auto;shape-rendering:auto;text-rendering:auto;enable-background:accumulate"
     d="m 379.9082,731.96289 c -1.22017,0.0854 -2.61284,0.36065 -4.15625,0.93945 -6.17362,2.31521 -14.73581,9.42583 -24.76562,28.48438 l -0.0781,0.15039 0.0293,0.16797 c 11.31593,65.22982 7.31574,165.2573 -1.33203,211.15625 -3.922,20.81452 -18.01945,80.64387 -14.67383,121.46487 0.95705,11.6792 3.62845,28.2515 12.19531,43.3554 8.56687,15.104 23.05929,28.7274 47.52149,34.4239 27.68123,6.4463 47.45813,1.2585 61.14062,-6.7383 13.68249,-7.9968 21.28933,-18.7967 24.70899,-23.4512 3.44765,-4.6926 7.30766,-10.8852 9.08789,-16.7344 0.89011,-2.9246 1.26426,-5.7707 0.76367,-8.3144 -0.50059,-2.5437 -1.90829,-4.7737 -4.46875,-6.3399 -2.53724,-1.5519 -5.00611,-1.9956 -7.43555,-1.4765 -2.42943,0.519 -4.80011,1.9655 -7.28125,4.0898 -4.96227,4.2487 -10.40731,11.2511 -17.53906,19.4844 -8.51867,9.8347 -25.93834,14.8151 -43.32227,12.8105 -17.38392,-2.0045 -34.67506,-10.9317 -43.08984,-28.6972 -8.90213,-18.7939 -7.28567,-48.9083 -2.54101,-78.7539 4.74465,-29.8457 12.57341,-59.41523 15.91406,-77.30667 3.34975,-17.94021 5.54005,-56.77936 6.47265,-100.12695 0.9326,-43.34759 0.59953,-91.1707 -1.13086,-126.95508 l -0.0117,-0.24218 -0.19727,-0.14063 c 0,0 -0.97803,-0.68915 -2.6875,-1.05078 -0.85474,-0.18081 -1.90287,-0.28466 -3.12305,-0.19922 z"
     id="path3884" /><path
     style="color:#000000;font-style:normal;font-variant:normal;font-weight:normal;font-stretch:normal;font-size:medium;line-height:normal;font-family:sans-serif;text-indent:0;text-align:start;text-decoration:none;text-decoration-line:none;text-decoration-style:solid;text-decoration-color:#000000;letter-spacing:normal;word-spacing:normal;text-transform:none;direction:ltr;block-progression:tb;writing-mode:lr-tb;baseline-shift:baseline;text-anchor:start;white-space:normal;clip-rule:nonzero;display:inline;overflow:visible;visibility:visible;opacity:1;isolation:auto;mix-blend-mode:normal;color-interpolation:sRGB;color-interpolation-filters:linearRGB;solid-color:#000000;solid-opacity:1;fill-opacity:1;fill-rule:nonzero;stroke:none;stroke-width:1;stroke-linecap:butt;stroke-linejoin:miter;stroke-miterlimit:4;stroke-dasharray:none;stroke-dashoffset:0;stroke-opacity:1;color-rendering:auto;image-rendering:auto;shape-rendering:auto;text-rendering:auto;enable-background:accumulate"
     d="m 379.9785,732.95703 c 1.1235,-0.0786 2.07547,0.0207 2.8457,0.18359 1.40894,0.29806 1.99463,0.7283 2.11523,0.81055 1.71661,35.71641 2.04881,83.36675 1.11914,126.57813 -0.93215,43.32665 -3.13882,82.20405 -6.45507,99.96484 -3.32536,17.80956 -11.16458,47.42116 -15.91993,77.33396 -4.75534,29.9129 -6.47091,60.1328 2.62696,79.3399 8.58622,18.1274 26.23188,27.2251 43.87695,29.2597 17.64507,2.0347 35.34503,-2.9312 44.19336,-13.1465 7.15025,-8.2546 12.61061,-15.2514 17.43359,-19.3808 2.41149,-2.0647 4.65325,-3.4039 6.83985,-3.8711 2.18659,-0.4672 4.33782,-0.098 6.70508,1.3496 2.34404,1.4338 3.5551,3.3713 4.00976,5.6816 0.45466,2.3104 0.11965,5.0048 -0.74023,7.8301 -1.71978,5.6506 -5.5262,11.7912 -8.93555,16.4317 -3.43735,4.6785 -10.92469,15.3011 -24.4082,23.1816 -13.48352,7.8805 -32.94639,13.0246 -60.41016,6.6289 -24.20481,-5.6365 -38.42302,-19.037 -46.87891,-33.9453 -8.45588,-14.9083 -11.11741,-31.3367 -12.06836,-42.9414 -3.32038,-40.5131 10.72216,-100.3017 14.66016,-121.20118 8.67832,-46.06105 12.67317,-145.87896 1.35938,-211.32031 9.93344,-18.82686 18.34591,-25.70775 24.15625,-27.88672 1.45646,-0.5462 2.75149,-0.80224 3.875,-0.88086 z"
     id="path4144" /><path
     style="color:#000000;font-style:normal;font-variant:normal;font-weight:normal;font-stretch:normal;font-size:medium;line-height:normal;font-family:sans-serif;text-indent:0;text-align:start;text-decoration:none;text-decoration-line:none;text-decoration-style:solid;text-decoration-color:#000000;letter-spacing:normal;word-spacing:normal;text-transform:none;direction:ltr;block-progression:tb;writing-mode:lr-tb;baseline-shift:baseline;text-anchor:start;white-space:normal;clip-rule:nonzero;display:inline;overflow:visible;visibility:visible;opacity:1;isolation:auto;mix-blend-mode:normal;color-interpolation:sRGB;color-interpolation-filters:linearRGB;solid-color:#000000;solid-opacity:1;fill-opacity:1;fill-rule:nonzero;stroke:none;stroke-width:1;stroke-linecap:butt;stroke-linejoin:miter;stroke-miterlimit:4;stroke-dasharray:none;stroke-dashoffset:0;stroke-opacity:1;color-rendering:auto;image-rendering:auto;shape-rendering:auto;text-rendering:auto;enable-background:accumulate"
     d="m 609.82812,830.97266 -0.084,0.67382 c 0,0 -8.81416,69.42677 -10.81641,109.11524 -1.00119,19.84567 -1.14127,50.38302 9.38672,76.03518 10.52799,25.6521 31.84515,46.3965 73.40625,46.3965 35.10397,-5e-4 51.76576,-16.5064 59.51758,-32.9903 7.75182,-16.4838 6.6875,-32.94919 6.6875,-32.94919 10e-4,-0.0647 0.074,-4.08333 -1.14062,-8.19922 -0.61222,-2.07454 -1.55117,-4.17655 -3.0293,-5.79883 -1.47813,-1.62228 -3.52198,-2.74597 -6.19922,-2.79883 -4.48183,-0.0884 -7.11022,2.26704 -8.54492,5.4082 -1.4347,3.14117 -1.79915,7.06147 -2.08203,10.37891 -0.87431,10.24196 -2.07846,21.15606 -8.55274,29.27536 -6.47428,8.1194 -18.25901,13.5778 -40.63867,12.7735 -23.4421,-0.8425 -37.03388,-12.0564 -44.35937,-29.295 -7.32549,-17.2385 -8.28269,-40.54246 -6.11914,-65.33589 3.16688,-36.29719 21.58527,-71.96113 28.58398,-91.20508 l 0.1582,-0.43359 -0.41992,-0.19141 -45.75391,-20.85937 z"
     id="path3888" /><path
     style="color:#000000;font-style:normal;font-variant:normal;font-weight:normal;font-stretch:normal;font-size:medium;line-height:normal;font-family:sans-serif;text-indent:0;text-align:start;text-decoration:none;text-decoration-line:none;text-decoration-style:solid;text-decoration-color:#000000;letter-spacing:normal;word-spacing:normal;text-transform:none;direction:ltr;block-progression:tb;writing-mode:lr-tb;baseline-shift:baseline;text-anchor:start;white-space:normal;clip-rule:nonzero;display:inline;overflow:visible;visibility:visible;opacity:1;isolation:auto;mix-blend-mode:normal;color-interpolation:sRGB;color-interpolation-filters:linearRGB;solid-color:#000000;solid-opacity:1;fill-opacity:1;fill-rule:nonzero;stroke:none;stroke-width:1;stroke-linecap:butt;stroke-linejoin:miter;stroke-miterlimit:4;stroke-dasharray:none;stroke-dashoffset:0;stroke-opacity:1;color-rendering:auto;image-rendering:auto;shape-rendering:auto;text-rendering:auto;enable-background:accumulate"
     d="m 610.65625,832.44922 44.07422,20.09375 c -7.04011,19.17335 -25.29554,54.68595 -28.4668,91.0332 -2.17045,24.87257 -1.24444,48.30701 6.19531,65.81443 7.43976,17.5075 21.49524,29.0469 45.24414,29.9004 22.55535,0.8107 34.74907,-4.7341 41.45704,-13.1465 6.70796,-8.4124 7.88993,-19.5583 8.76562,-29.81638 0.28212,-3.30856 0.66705,-7.13898 1.9961,-10.04882 1.32904,-2.90984 3.47706,-4.90583 7.61523,-4.82422 2.41326,0.0476 4.15163,1.01617 5.48047,2.47461 1.32884,1.45844 2.22344,3.42537 2.80859,5.4082 1.17031,3.96567 1.10156,7.93945 1.10156,7.93945 l 0,0.0195 0,0.0215 c 0,0 1.03198,16.23916 -6.5957,32.45896 -7.62768,16.2199 -23.81929,32.4156 -58.61133,32.4161 -41.22989,0 -62.0597,-20.3865 -72.48047,-45.7774 -10.42076,-25.39087 -10.3113,-55.80714 -9.3125,-75.60547 1.98069,-39.26124 10.58039,-107.19221 10.72852,-108.36133 z"
     id="path4146" /><path
     style="color:#000000;font-style:normal;font-variant:normal;font-weight:normal;font-stretch:normal;font-size:medium;line-height:normal;font-family:sans-serif;text-indent:0;text-align:start;text-decoration:none;text-decoration-line:none;text-decoration-style:solid;text-decoration-color:#000000;letter-spacing:normal;word-spacing:normal;text-transform:none;direction:ltr;block-progression:tb;writing-mode:lr-tb;baseline-shift:baseline;text-anchor:start;white-space:normal;clip-rule:nonzero;display:inline;overflow:visible;visibility:visible;opacity:1;isolation:auto;mix-blend-mode:normal;color-interpolation:sRGB;color-interpolation-filters:linearRGB;solid-color:#000000;solid-opacity:1;fill-opacity:1;fill-rule:nonzero;stroke:none;stroke-width:1;stroke-linecap:butt;stroke-linejoin:miter;stroke-miterlimit:4;stroke-dasharray:none;stroke-dashoffset:0;stroke-opacity:1;color-rendering:auto;image-rendering:auto;shape-rendering:auto;text-rendering:auto;enable-background:accumulate"
     d="m 148.57031,610.76562 c -4.81861,0.0643 -13.12395,1.87525 -27.36133,8.76758 l -0.38086,0.18555 0.11915,0.4082 c 9.98253,33.63915 14.97742,73.19192 12.98046,112.27735 -0.99407,19.45647 -8.96906,42.13601 -17.83203,62.03125 -8.86296,19.89523 -18.600935,37.00352 -23.109372,45.42578 -8.995643,16.80486 -28.058594,51.30598 -28.058594,105.1289 0,26.96733 9.277432,59.39057 30.476563,85.10547 21.199133,25.7149 54.343443,44.6914 101.929683,44.6914 38.08956,0 67.6017,-10.2403 88.35938,-28.0879 20.75767,-17.8476 32.73581,-43.2866 35.82617,-73.57615 3.21337,-31.49514 -3.20131,-64.10733 -8.14844,-96.13086 -4.94713,-32.02353 -8.42444,-63.44634 0.53516,-92.56055 9.29458,-30.20265 17.81233,-44.30282 25.13477,-53.6582 7.32244,-9.35538 13.54281,-14.0388 18.0957,-25.27344 l 0.17969,-0.44141 -0.43164,-0.19921 c 0,0 -14.48205,-6.74364 -29.56055,-10.125 -7.53925,-1.69069 -15.23085,-2.55263 -21.40039,-1.26954 -6.16954,1.28309 -10.84985,4.83585 -11.99024,11.73828 -1.09992,6.65752 -3.05945,11.08482 -5.45117,15.17579 -2.39171,4.09096 -5.23071,7.84697 -8.03515,13.08007 -5.60889,10.46621 -11.01778,26.77283 -12.51954,63.49219 -1.93055,47.21083 4.08217,75.11644 9.85352,99.26172 5.77135,24.14528 11.28974,44.49755 8.44531,76.81641 -2.90538,33.0131 -41.08268,69.0363 -88.86914,66.7578 -31.36041,-1.4956 -55.47349,-11.4264 -71.98242,-27.8476 -16.50893,-16.42126 -25.43719,-39.35615 -26.333984,-66.96489 -0.88253,-27.17513 6.859524,-57.5183 23.835934,-92.46875 17.01069,-35.021 42.05907,-93.08582 39.05078,-151.24609 -1.81019,-34.99103 -7.00195,-88.44922 -7.00195,-88.44922 l -0.0137,-0.12891 -0.0742,-0.10742 c 0,0 -0.1242,-0.17002 -0.33984,-0.35352 -0.21565,-0.18349 -0.54603,-0.41321 -1.02344,-0.63476 -0.95482,-0.4431 -2.49499,-0.85248 -4.9043,-0.82032 z"
     id="path3892" /><path
     style="color:#000000;font-style:normal;font-variant:normal;font-weight:normal;font-stretch:normal;font-size:medium;line-height:normal;font-family:sans-serif;text-indent:0;text-align:start;text-decoration:none;text-decoration-line:none;text-decoration-style:solid;text-decoration-color:#000000;letter-spacing:normal;word-spacing:normal;text-transform:none;direction:ltr;block-progression:tb;writing-mode:lr-tb;baseline-shift:baseline;text-anchor:start;white-space:normal;clip-rule:nonzero;display:inline;overflow:visible;visibility:visible;opacity:1;isolation:auto;mix-blend-mode:normal;color-interpolation:sRGB;color-interpolation-filters:linearRGB;solid-color:#000000;solid-opacity:1;fill-opacity:1;fill-rule:nonzero;stroke:none;stroke-width:1;stroke-linecap:butt;stroke-linejoin:miter;stroke-miterlimit:4;stroke-dasharray:none;stroke-dashoffset:0;stroke-opacity:1;color-rendering:auto;image-rendering:auto;shape-rendering:auto;text-rendering:auto;enable-background:accumulate"
     d="m 148.58401,611.76562 c 2.29083,-0.0306 3.67537,0.35748 4.47071,0.72657 0.39767,0.18454 0.64802,0.36523 0.79492,0.49023 0.0834,0.071 0.0747,0.0682 0.0957,0.0918 0.0276,0.28421 5.17944,53.38661 6.98242,88.23828 2.99171,57.83972 -21.9599,115.77885 -38.94921,150.75586 -17.02359,35.04755 -24.826975,65.55058 -23.937504,92.93945 0.90321,27.80626 9.917584,51.01809 26.628904,67.64059 16.71132,16.6226 41.09404,26.6323 72.64063,28.1368 48.31154,2.3035 86.94744,-33.9591 89.91406,-67.66801 2.85757,-32.46814 -2.70331,-53.008 -8.4707,-77.13672 -5.7674,-24.12872 -11.75262,-51.87811 -9.82618,-98.98828 1.49825,-36.63364 6.86903,-52.73901 12.40039,-63.06055 2.76569,-5.16077 5.58689,-8.8912 8.01758,-13.04883 2.43069,-4.15763 4.45464,-8.73913 5.57422,-15.51562 1.07912,-6.53157 5.29124,-9.69311 11.20899,-10.92383 5.91774,-1.23072 13.50918,-0.40699 20.97656,1.26758 14.54432,3.26158 28.15773,9.5227 28.88281,9.85742 -4.45061,10.6692 -10.45616,15.29097 -17.73437,24.58984 -7.39131,9.44337 -15.98527,23.69712 -25.30469,53.98047 -9.04041,29.3768 -5.51778,60.95489 -0.56641,93.00586 4.95137,32.05097 11.33326,64.58509 8.14063,95.87695 -3.06964,30.08642 -14.93465,55.25452 -35.48047,72.91992 -20.54583,17.6654 -49.79854,27.8457 -87.70899,27.8457 -47.32075,0 -80.13058,-18.8193 -101.158199,-44.3262 -21.027621,-25.5068 -30.248047,-57.73299 -30.248047,-84.47067 0,-53.58707 18.93705,-87.83511 27.941407,-104.65625 4.491567,-8.39074 14.253589,-25.54292 23.140629,-45.49218 8.88703,-19.94927 16.91204,-42.69819 17.91796,-62.38672 1.99484,-39.04385 -2.97081,-78.52296 -12.90625,-112.18946 13.90515,-6.68835 22.02614,-8.43943 26.5625,-8.5 z"
     id="path4148" /><path
     style="color:#000000;font-style:normal;font-variant:normal;font-weight:normal;font-stretch:normal;font-size:medium;line-height:normal;font-family:sans-serif;text-indent:0;text-align:start;text-decoration:none;text-decoration-line:none;text-decoration-style:solid;text-decoration-color:#000000;letter-spacing:normal;word-spacing:normal;text-transform:none;direction:ltr;block-progression:tb;writing-mode:lr-tb;baseline-shift:baseline;text-anchor:start;white-space:normal;clip-rule:nonzero;display:inline;overflow:visible;visibility:visible;opacity:1;isolation:auto;mix-blend-mode:normal;color-interpolation:sRGB;color-interpolation-filters:linearRGB;solid-color:#000000;solid-opacity:1;fill-opacity:1;fill-rule:nonzero;stroke:none;stroke-width:1;stroke-linecap:butt;stroke-linejoin:miter;stroke-miterlimit:4;stroke-dasharray:none;stroke-dashoffset:0;stroke-opacity:1;color-rendering:auto;image-rendering:auto;shape-rendering:auto;text-rendering:auto;enable-background:accumulate"
     d="m 872.375,639.67383 c -5.51594,-0.19226 -11.39876,0.0513 -17.67188,0.7832 -23.6484,2.75887 -39.93056,12.19607 -50.98632,24.80078 -11.05577,12.60471 -16.88867,28.34983 -19.76368,43.72266 -5.74003,30.6923 0.29153,59.93754 0.3125,60.03906 0.003,0.0298 4.41476,44.95912 9,77.33789 2.83208,19.99943 -1.20537,35.10884 -8.9375,45.5293 -7.73212,10.42045 -19.17744,16.17221 -31.26367,17.38476 -24.17246,2.42512 -50.83864,-13.29222 -55.14062,-46.38281 -7.73785,-59.52238 -5.9961,-101.91601 -5.9961,-101.91601 l 0.0273,-0.66797 -59.10547,14.94531 0.0859,0.46289 c 0,0 14.51992,77.29461 29.35351,118.75391 14.75811,41.24915 59.56019,61.04076 98.89453,54.84961 19.66717,-3.09558 37.98976,-12.69806 50.49024,-29.37891 12.50048,-16.68085 19.15866,-40.41973 15.58398,-71.70703 -7.32135,-64.08312 -10.66797,-88.01367 -10.66797,-88.01367 l -0.002,-0.0137 -0.004,-0.0156 c 0,0 -4.06906,-20.19617 -0.79687,-41.81641 1.63609,-10.81011 5.10725,-21.96163 11.80859,-31.11523 6.70135,-9.1536 16.61902,-16.32851 31.26368,-19.22852 14.63558,-2.89834 25.98229,-1.06695 34.90234,3.85352 8.92005,4.92047 15.43466,12.95477 20.30664,22.55078 9.74396,19.19203 12.86345,44.58419 15.53125,63.25977 l 0.0195,0.14062 0.0918,0.10742 c 3.38069,4.05694 6.67373,6.17261 9.72851,7.01758 3.05478,0.84497 5.84887,0.40771 8.17774,-0.54101 4.65774,-1.89746 7.54687,-5.83204 7.54687,-5.83204 l 0.10352,-0.14062 -0.006,-0.17774 c -0.33117,-7.94412 -0.3205,-40.3022 -12.79102,-69.21874 -6.23525,-14.45828 -15.60327,-28.07879 -29.71679,-37.34961 -10.58515,-6.95312 -23.83109,-11.44668 -40.37891,-12.02344 z"
     id="path3896" /><path
     style="color:#000000;font-style:normal;font-variant:normal;font-weight:normal;font-stretch:normal;font-size:medium;line-height:normal;font-family:sans-serif;text-indent:0;text-align:start;text-decoration:none;text-decoration-line:none;text-decoration-style:solid;text-decoration-color:#000000;letter-spacing:normal;word-spacing:normal;text-transform:none;direction:ltr;block-progression:tb;writing-mode:lr-tb;baseline-shift:baseline;text-anchor:start;white-space:normal;clip-rule:nonzero;display:inline;overflow:visible;visibility:visible;opacity:1;isolation:auto;mix-blend-mode:normal;color-interpolation:sRGB;color-interpolation-filters:linearRGB;solid-color:#000000;solid-opacity:1;fill-opacity:1;fill-rule:nonzero;stroke:none;stroke-width:1;stroke-linecap:butt;stroke-linejoin:miter;stroke-miterlimit:4;stroke-dasharray:none;stroke-dashoffset:0;stroke-opacity:1;color-rendering:auto;image-rendering:auto;shape-rendering:auto;text-rendering:auto;enable-background:accumulate"
     d="m 872.3379,640.66992 c 16.38316,0.56722 29.43653,5.01164 39.86719,11.86328 13.90754,9.13552 23.16616,22.57656 29.34765,36.91016 12.30041,28.5221 12.37,60.40317 12.70118,68.66016 -0.14624,0.19352 -2.78937,3.66583 -7.01368,5.38671 -2.17125,0.88453 -4.71295,1.28205 -7.5332,0.50196 -2.79454,-0.77298 -5.88774,-2.73786 -9.14062,-6.60938 -2.6603,-18.64343 -5.7688,-44.02581 -15.60743,-63.40429 -4.93289,-9.71599 -11.57192,-17.93121 -20.71484,-22.97461 -9.14292,-5.04341 -20.76867,-6.89019 -35.58008,-3.95703 -14.86934,2.94449 -25.04241,10.28626 -31.875,19.61914 -6.83259,9.33287 -10.33807,20.63842 -11.99023,31.55468 -3.30432,21.83252 0.80469,42.16602 0.80469,42.16602 0.005,0.0374 3.34523,23.93027 10.66015,87.95703 3.55233,31.0917 -3.06085,54.54109 -15.39062,70.99414 -12.32977,16.45305 -30.39592,25.92918 -49.84375,28.99023 -38.89566,6.12211 -83.22294,-13.45937 -97.79883,-54.19921 -14.63671,-40.90903 -28.96099,-116.76275 -29.2207,-118.14063 l 56.90429,-14.39062 c -0.0697,1.81574 -1.56015,43.12921 6.01758,101.41992 4.36502,33.57541 31.55889,49.72538 56.23242,47.25 12.33677,-1.23769 24.06001,-7.12668 31.96875,-17.78516 7.90875,-10.65848 11.98347,-26.06605 9.12305,-46.26562 -4.58124,-32.3505 -8.99805,-77.3125 -8.99805,-77.3125 l -0.002,-0.0274 -0.006,-0.0254 c 0,0 -6.01994,-29.17795 -0.31445,-59.68554 2.85274,-15.2538 8.63283,-30.82273 19.53125,-43.24805 10.89842,-12.42532 26.91097,-21.73412 50.35156,-24.46875 6.22701,-0.7265 12.05848,-0.96837 17.51953,-0.7793 z"
     id="path4150" /><path
     style="color:#000000;font-style:normal;font-variant:normal;font-weight:normal;font-stretch:normal;font-size:medium;line-height:normal;font-family:sans-serif;text-indent:0;text-align:start;text-decoration:none;text-decoration-line:none;text-decoration-style:solid;text-decoration-color:#000000;letter-spacing:normal;word-spacing:normal;text-transform:none;direction:ltr;block-progression:tb;writing-mode:lr-tb;baseline-shift:baseline;text-anchor:start;white-space:normal;clip-rule:nonzero;display:inline;overflow:visible;visibility:visible;opacity:1;isolation:auto;mix-blend-mode:normal;color-interpolation:sRGB;color-interpolation-filters:linearRGB;solid-color:#000000;solid-opacity:1;fill-opacity:1;fill-rule:nonzero;stroke:none;stroke-width:1;stroke-linecap:butt;stroke-linejoin:miter;stroke-miterlimit:4;stroke-dasharray:none;stroke-dashoffset:0;stroke-opacity:1;color-rendering:auto;image-rendering:auto;shape-rendering:auto;text-rendering:auto;enable-background:accumulate"
     d="m 7.4902344,443.0332 c -3.4702629,0.23904 -5.6237396,0.9415 -6.84765628,2.0625 -1.22391666,1.121 -1.35984384,2.67589 -0.84765624,4.14258 1.02437518,2.93339 4.33696552,5.95402 6.82031252,7.81641 2.3681203,1.77597 12.9718286,10.77379 22.4296876,25.01758 9.457859,14.24378 17.79921,33.74039 15.828125,56.63867 -1.915331,22.24146 -2.985815,46.72789 7.054687,71.34179 4.79141,11.74734 16.232224,23.61895 31.363282,33.19532 15.131057,9.57636 33.963884,16.84761 53.578124,19.29883 l 0.35156,0.0449 0.15821,-0.31836 c 2.79418,-5.59979 5.46414,-8.93498 7.85156,-10.79102 2.38742,-1.85604 4.4697,-2.25161 6.23047,-2.01172 3.52153,0.47979 5.8125,3.64453 5.8125,3.64453 l 0.43945,0.61719 0.39453,-0.64648 c 12.29891,-20.13561 15.03305,-48.75486 10.90235,-77.39063 C 164.87907,547.05952 153.87663,518.3985 138.54883,498.166 107.86935,457.67051 45.511007,441.80713 7.5097656,443.0332 l -0.00977,0 -0.00977,0 z"
     id="path3900" /><path
     style="color:#000000;font-style:normal;font-variant:normal;font-weight:normal;font-stretch:normal;font-size:medium;line-height:normal;font-family:sans-serif;text-indent:0;text-align:start;text-decoration:none;text-decoration-line:none;text-decoration-style:solid;text-decoration-color:#000000;letter-spacing:normal;word-spacing:normal;text-transform:none;direction:ltr;block-progression:tb;writing-mode:lr-tb;baseline-shift:baseline;text-anchor:start;white-space:normal;clip-rule:nonzero;display:inline;overflow:visible;visibility:visible;opacity:1;isolation:auto;mix-blend-mode:normal;color-interpolation:sRGB;color-interpolation-filters:linearRGB;solid-color:#000000;solid-opacity:1;fill-opacity:1;fill-rule:nonzero;stroke:none;stroke-width:1;stroke-linecap:butt;stroke-linejoin:miter;stroke-miterlimit:4;stroke-dasharray:none;stroke-dashoffset:0;stroke-opacity:1;color-rendering:auto;image-rendering:auto;shape-rendering:auto;text-rendering:auto;enable-background:accumulate"
     d="m 7.5585934,444.03125 c 37.6883876,-1.2108 99.8372366,14.66959 130.1933566,54.73828 15.1922,20.0535 26.15928,48.58788 30.26758,77.06836 4.06997,28.21473 1.36838,56.33826 -10.45898,76.14258 -0.61793,-0.77988 -2.54129,-3.03578 -5.96289,-3.50195 -2.01924,-0.27511 -4.42127,0.22525 -6.98047,2.21484 -2.4981,1.94208 -5.17112,5.35657 -7.93555,10.80273 -19.33781,-2.46902 -37.928959,-9.64684 -52.855468,-19.09375 -15.007444,-9.49813 -26.303066,-21.27985 -30.972656,-32.72851 -9.943498,-24.3761 -8.897044,-48.66641 -6.984375,-70.87695 l 0,-0.002 C 47.865056,515.6082 39.419547,495.88799 29.878906,481.51953 20.338265,467.15107 9.7297235,458.14189 7.2148438,456.25586 c -2.3996531,-1.79962 -5.6114377,-4.8703 -6.47656255,-7.34766 -0.43256241,-1.23868 -0.35406771,-2.21862 0.58007815,-3.07422 0.9339255,-0.85539 2.8814557,-1.5711 6.2402344,-1.80273 z"
     id="path4153" /><path
     style="color:#000000;font-style:normal;font-variant:normal;font-weight:normal;font-stretch:normal;font-size:medium;line-height:normal;font-family:sans-serif;text-indent:0;text-align:start;text-decoration:none;text-decoration-line:none;text-decoration-style:solid;text-decoration-color:#000000;letter-spacing:normal;word-spacing:normal;text-transform:none;direction:ltr;block-progression:tb;writing-mode:lr-tb;baseline-shift:baseline;text-anchor:start;white-space:normal;clip-rule:nonzero;display:inline;overflow:visible;visibility:visible;opacity:1;isolation:auto;mix-blend-mode:normal;color-interpolation:sRGB;color-interpolation-filters:linearRGB;solid-color:#000000;solid-opacity:1;fill-opacity:1;fill-rule:nonzero;stroke:none;stroke-width:1;stroke-linecap:butt;stroke-linejoin:miter;stroke-miterlimit:4;stroke-dasharray:none;stroke-dashoffset:0;stroke-opacity:1;color-rendering:auto;image-rendering:auto;shape-rendering:auto;text-rendering:auto;enable-background:accumulate"
     d="m 13.53125,444.99023 c -2.058428,-0.0281 -4.0791917,-0.0204 -6.0234375,0.043 l -0.00781,0 -0.00586,0 c -3.0732503,0.19154 -5.013546,0.74047 -6.1640625,1.64649 -0.57525819,0.45301 -0.94499143,1.01383 -1.08984372,1.62109 -0.1448523,0.60727 -0.0720411,1.24045 0.13671874,1.86133 0.83503938,2.48353 3.76613398,5.03859 6.23828128,6.89258 2.3550135,1.76614 12.7169867,10.76817 21.9257817,25.01172 9.208794,14.24355 17.301471,33.74268 15.330078,56.64453 -1.915332,22.24146 -2.985815,46.72789 7.054687,71.34179 4.410404,10.81277 15.167433,22.06023 29.435547,31.5293 14.268114,9.46908 32.05895,17.14798 50.58203,20.71094 l 0.12695,0.0234 0.12305,-0.041 c 4.918,-1.6156 7.84037,-2.87321 12.01172,-8.75391 1.11531,-1.57235 2.00371,-4.19655 2.78711,-7.36718 0.78339,-3.17064 1.43875,-6.87542 1.98047,-10.53321 1.08343,-7.31558 1.7119,-14.45393 1.95117,-16.61132 0.50812,-4.57306 1.6318,-23.76686 -4.19727,-48.50391 C 139.8975,545.76881 127.10547,515.50561 99.775391,488.92773 73.872021,463.73571 38.278015,447.06357 13.564453,444.99219 l -0.01563,0 -0.01758,-0.002 z"
     id="path3904" /><path
     style="color:#000000;font-style:normal;font-variant:normal;font-weight:normal;font-stretch:normal;font-size:medium;line-height:normal;font-family:sans-serif;text-indent:0;text-align:start;text-decoration:none;text-decoration-line:none;text-decoration-style:solid;text-decoration-color:#000000;letter-spacing:normal;word-spacing:normal;text-transform:none;direction:ltr;block-progression:tb;writing-mode:lr-tb;baseline-shift:baseline;text-anchor:start;white-space:normal;clip-rule:nonzero;display:inline;overflow:visible;visibility:visible;opacity:1;isolation:auto;mix-blend-mode:normal;color-interpolation:sRGB;color-interpolation-filters:linearRGB;solid-color:#000000;solid-opacity:1;fill-opacity:1;fill-rule:nonzero;stroke:none;stroke-width:1;stroke-linecap:butt;stroke-linejoin:miter;stroke-miterlimit:4;stroke-dasharray:none;stroke-dashoffset:0;stroke-opacity:1;color-rendering:auto;image-rendering:auto;shape-rendering:auto;text-rendering:auto;enable-background:accumulate"
     d="m 13.49609,445.99023 c 24.34608,2.04542 59.853972,18.63277 85.582031,43.6543 27.169929,26.42213 39.877899,56.4934 45.673829,81.08985 5.79594,24.59644 4.66962,43.73712 4.17774,48.16406 -0.24473,2.2066 -0.8675,9.2985 -1.94531,16.57617 -0.53891,3.63883 -1.19188,7.31893 -1.9629,10.43945 -0.77101,3.12052 -1.68167,5.69115 -2.63086,7.0293 -4.04652,5.70472 -6.58437,6.75631 -11.38085,8.33594 -18.33319,-3.54553 -35.971363,-11.15564 -50.095712,-20.5293 -14.156386,-9.39493 -24.775903,-20.56694 -29.0625,-31.07617 -9.943497,-24.3761 -8.897043,-48.66641 -6.984374,-70.87695 l 0,-0.002 C 46.862795,515.61177 38.670565,495.89214 29.380859,481.52344 20.091154,467.15474 9.7428302,458.15172 7.2148438,456.25586 4.803991,454.44784 1.9898825,451.81772 1.3261719,449.84375 1.1602442,449.35026 1.1239421,448.91429 1.2148438,448.5332 c 0.090902,-0.38108 0.3019144,-0.72738 0.7324218,-1.0664 0.8610148,-0.67804 2.6336253,-1.25009 5.609375,-1.43555 1.9122296,-0.062 3.9049024,-0.0685 5.9394534,-0.041 z"
     id="path4155" /><path
     style="color:#000000;font-style:normal;font-variant:normal;font-weight:normal;font-stretch:normal;font-size:medium;line-height:normal;font-family:sans-serif;text-indent:0;text-align:start;text-decoration:none;text-decoration-line:none;text-decoration-style:solid;text-decoration-color:#000000;letter-spacing:normal;word-spacing:normal;text-transform:none;direction:ltr;block-progression:tb;writing-mode:lr-tb;baseline-shift:baseline;text-anchor:start;white-space:normal;clip-rule:nonzero;display:inline;overflow:visible;visibility:visible;opacity:1;isolation:auto;mix-blend-mode:normal;color-interpolation:sRGB;color-interpolation-filters:linearRGB;solid-color:#000000;solid-opacity:1;fill-opacity:1;fill-rule:nonzero;stroke:none;stroke-width:1;stroke-linecap:butt;stroke-linejoin:miter;stroke-miterlimit:4;stroke-dasharray:none;stroke-dashoffset:0;stroke-opacity:1;color-rendering:auto;image-rendering:auto;shape-rendering:auto;text-rendering:auto;enable-background:accumulate"
     d="m 13.53125,444.99219 c -2.052914,-0.028 -4.0770571,-0.0571 -6.03125,0.041 -2.8839102,0.14384 -4.8073118,0.62945 -6.0175781,1.44727 -1.21026636,0.81781 -1.6256122,2.06514 -1.3496094,3.29687 0.55200559,2.46347 3.3268216,5.07326 6.4960937,7.28907 1.6743847,1.17032 7.3517388,6.10845 13.7656248,13.96484 6.413886,7.85639 13.612891,18.66096 18.513672,31.67383 l 0.08984,0.24023 0.248047,0.0664 c 32.738603,8.70676 72.49373,28.77005 107.79102,78.79492 l 0.90234,-0.37109 C 143.4688,555.10801 131.28673,519.57052 99.775391,488.92773 73.872019,463.73771 38.27702,447.06553 13.564453,444.99414 l -0.01563,-0.002 -0.01758,0 z"
     id="path3908" /><path
     style="color:#000000;font-style:normal;font-variant:normal;font-weight:normal;font-stretch:normal;font-size:medium;line-height:normal;font-family:sans-serif;text-indent:0;text-align:start;text-decoration:none;text-decoration-line:none;text-decoration-style:solid;text-decoration-color:#000000;letter-spacing:normal;word-spacing:normal;text-transform:none;direction:ltr;block-progression:tb;writing-mode:lr-tb;baseline-shift:baseline;text-anchor:start;white-space:normal;clip-rule:nonzero;display:inline;overflow:visible;visibility:visible;opacity:1;isolation:auto;mix-blend-mode:normal;color-interpolation:sRGB;color-interpolation-filters:linearRGB;solid-color:#000000;solid-opacity:1;fill-opacity:1;fill-rule:nonzero;stroke:none;stroke-width:1;stroke-linecap:butt;stroke-linejoin:miter;stroke-miterlimit:4;stroke-dasharray:none;stroke-dashoffset:0;stroke-opacity:1;color-rendering:auto;image-rendering:auto;shape-rendering:auto;text-rendering:auto;enable-background:accumulate"
     d="m 13.49609,445.99219 c 24.345076,2.04542 59.853974,18.63281 85.582031,43.65234 30.529659,29.68817 42.739729,63.92215 47.458989,89.87891 C 111.51544,530.76245 72.207241,510.79593 39.740234,502.11719 34.792428,489.08368 27.595457,478.26909 21.169922,470.39844 14.703808,462.47808 9.0777872,457.55777 7.2011719,456.24609 4.121444,454.0929 1.5271194,451.42288 1.109375,449.55859 c -0.2088722,-0.93214 -0.010796,-1.60989 0.9335938,-2.24804 0.9443899,-0.63816 2.7157695,-1.13819 5.5058593,-1.27735 1.9029331,-0.0955 3.9019199,-0.0689 5.9472659,-0.041 z"
     id="path4157" /><path
     style="color:#000000;font-style:normal;font-variant:normal;font-weight:normal;font-stretch:normal;font-size:medium;line-height:normal;font-family:sans-serif;text-indent:0;text-align:start;text-decoration:none;text-decoration-line:none;text-decoration-style:solid;text-decoration-color:#000000;letter-spacing:normal;word-spacing:normal;text-transform:none;direction:ltr;block-progression:tb;writing-mode:lr-tb;baseline-shift:baseline;text-anchor:start;white-space:normal;clip-rule:nonzero;display:inline;overflow:visible;visibility:visible;opacity:1;isolation:auto;mix-blend-mode:normal;color-interpolation:sRGB;color-interpolation-filters:linearRGB;solid-color:#000000;solid-opacity:1;fill-opacity:1;fill-rule:nonzero;stroke:none;stroke-width:1;stroke-linecap:butt;stroke-linejoin:miter;stroke-miterlimit:4;stroke-dasharray:none;stroke-dashoffset:0;stroke-opacity:1;color-rendering:auto;image-rendering:auto;shape-rendering:auto;text-rendering:auto;enable-background:accumulate"
     d="m 950.03516,721.04492 0.0332,0.75781 c 0,0 0.14153,3.90473 -2.33984,6.44922 -1.24069,1.27225 -3.12604,2.24058 -6.1504,2.2461 -3.02435,0.006 -7.1836,-0.98034 -12.83203,-3.67578 l -0.32031,-0.15235 -0.25,0.25 c -13.95515,13.99934 -24.3277,31.31742 -30.36523,48.17578 -6.03754,16.85836 -7.75404,33.2576 -4.30469,45.4668 7.22792,25.58057 23.13657,44.22762 38.32812,60.58398 15.641,16.83995 21.06054,37.34116 22.36719,54.38868 1.30666,17.04751 -1.51801,30.66364 -2.29297,33.52148 -0.80705,2.9808 -1.65908,7.19333 -0.70508,10.04102 0.47701,1.42384 1.53029,2.52904 3.1875,2.70312 1.65722,0.17409 3.83082,-0.47999 6.80469,-2.21094 l 0.0234,-0.0137 0.0215,-0.0137 c 30.71409,-22.41173 70.11739,-73.28099 69.39069,-124.08008 -0.3626,-25.38027 -9.3215,-54.74618 -23.6817,-79.86328 -14.3602,-25.1171 -34.12125,-45.99888 -56.20508,-54.30664 l -0.70898,-0.26758 z"
     id="path3912" /><path
     style="color:#000000;font-style:normal;font-variant:normal;font-weight:normal;font-stretch:normal;font-size:medium;line-height:normal;font-family:sans-serif;text-indent:0;text-align:start;text-decoration:none;text-decoration-line:none;text-decoration-style:solid;text-decoration-color:#000000;letter-spacing:normal;word-spacing:normal;text-transform:none;direction:ltr;block-progression:tb;writing-mode:lr-tb;baseline-shift:baseline;text-anchor:start;white-space:normal;clip-rule:nonzero;display:inline;overflow:visible;visibility:visible;opacity:1;isolation:auto;mix-blend-mode:normal;color-interpolation:sRGB;color-interpolation-filters:linearRGB;solid-color:#000000;solid-opacity:1;fill-opacity:1;fill-rule:nonzero;stroke:none;stroke-width:1;stroke-linecap:butt;stroke-linejoin:miter;stroke-miterlimit:4;stroke-dasharray:none;stroke-dashoffset:0;stroke-opacity:1;color-rendering:auto;image-rendering:auto;shape-rendering:auto;text-rendering:auto;enable-background:accumulate"
     d="m 950.99219,722.51953 c 21.50813,8.33677 40.94086,28.84803 55.08981,53.5957 14.2824,24.9809 23.1895,54.22514 23.5489,79.38086 0.719,50.25942 -38.50206,101.00601 -68.95902,123.24024 -2.86882,1.66613 -4.88761,2.20583 -6.17774,2.07031 -1.29387,-0.13592 -1.94492,-0.84269 -2.3418,-2.02734 -0.79374,-2.36932 -0.0672,-6.55074 0.72071,-9.46094 0.82304,-3.03516 3.64231,-16.66459 2.32422,-33.86133 -1.3181,-17.19674 -6.79286,-37.94013 -22.63086,-54.99219 -15.17045,-16.33364 -30.93958,-34.8404 -38.09766,-60.17382 -3.36165,-11.89881 -1.70501,-28.13679 4.2832,-44.85743 5.95598,-16.63062 16.19735,-33.72692 29.92383,-47.57031 5.53056,2.59273 9.73976,3.64054 12.9043,3.63477 3.2419,-0.006 5.44047,-1.08983 6.86328,-2.54883 2.41245,-2.47382 2.54169,-5.43719 2.54883,-6.42969 z"
     id="path4160" /><path
     style="color:#000000;font-style:normal;font-variant:normal;font-weight:normal;font-stretch:normal;font-size:medium;line-height:normal;font-family:sans-serif;text-indent:0;text-align:start;text-decoration:none;text-decoration-line:none;text-decoration-style:solid;text-decoration-color:#000000;letter-spacing:normal;word-spacing:normal;text-transform:none;direction:ltr;block-progression:tb;writing-mode:lr-tb;baseline-shift:baseline;text-anchor:start;white-space:normal;clip-rule:nonzero;display:inline;overflow:visible;visibility:visible;opacity:1;isolation:auto;mix-blend-mode:normal;color-interpolation:sRGB;color-interpolation-filters:linearRGB;solid-color:#000000;solid-opacity:1;fill-opacity:1;fill-rule:nonzero;stroke:none;stroke-width:1;stroke-linecap:butt;stroke-linejoin:miter;stroke-miterlimit:4;stroke-dasharray:none;stroke-dashoffset:0;stroke-opacity:1;color-rendering:auto;image-rendering:auto;shape-rendering:auto;text-rendering:auto;enable-background:accumulate"
     d="m 918.43945,737.93359 c -21.23154,26.9987 -30.97141,61.25009 -24.93164,82.63086 7.22792,25.58057 23.13658,44.22763 38.32813,60.58399 15.64099,16.83994 21.06053,37.34116 22.36718,54.38867 1.30666,17.04751 -1.518,30.66364 -2.29296,33.52148 -0.3148,1.16099 -0.62805,2.51316 -0.8418,3.89844 l 0.9375,0.30859 c 17.74333,-33.90947 6.29439,-67.17642 0.0918,-80.25781 -5.03617,-10.62105 -15.0257,-24.3 -24.29688,-38.23437 -9.27118,-13.93438 -17.80793,-28.12962 -19.95312,-39.55078 -4.79483,-25.53483 -3.42381,-48.21842 11.42773,-76.75 l -0.83594,-0.53907 z"
     id="path3916" /><path
     style="color:#000000;font-style:normal;font-variant:normal;font-weight:normal;font-stretch:normal;font-size:medium;line-height:normal;font-family:sans-serif;text-indent:0;text-align:start;text-decoration:none;text-decoration-line:none;text-decoration-style:solid;text-decoration-color:#000000;letter-spacing:normal;word-spacing:normal;text-transform:none;direction:ltr;block-progression:tb;writing-mode:lr-tb;baseline-shift:baseline;text-anchor:start;white-space:normal;clip-rule:nonzero;display:inline;overflow:visible;visibility:visible;opacity:1;isolation:auto;mix-blend-mode:normal;color-interpolation:sRGB;color-interpolation-filters:linearRGB;solid-color:#000000;solid-opacity:1;fill-opacity:1;fill-rule:nonzero;stroke:none;stroke-width:1;stroke-linecap:butt;stroke-linejoin:miter;stroke-miterlimit:4;stroke-dasharray:none;stroke-dashoffset:0;stroke-opacity:1;color-rendering:auto;image-rendering:auto;shape-rendering:auto;text-rendering:auto;enable-background:accumulate"
     d="m 915.94531,743.16602 c -12.49276,26.31838 -13.60574,48.13878 -9.08008,72.24023 2.20581,11.74384 10.8162,25.96325 20.10352,39.92187 9.28732,13.95863 19.26773,27.64948 24.22656,38.10743 5.88584,12.41335 16.50615,43.30994 1.77539,75.4414 0.90058,-3.49968 3.51143,-16.68026 2.22852,-33.41797 -1.3181,-17.19673 -6.79285,-37.94013 -22.63086,-54.99218 -15.17045,-16.33364 -30.93957,-34.8404 -38.09766,-60.17383 -5.55811,-19.67572 2.80246,-51.11879 21.47461,-77.12695 z"
     id="path4162" /><path
     style="color:#000000;font-style:normal;font-variant:normal;font-weight:normal;font-stretch:normal;font-size:medium;line-height:normal;font-family:sans-serif;text-indent:0;text-align:start;text-decoration:none;text-decoration-line:none;text-decoration-style:solid;text-decoration-color:#000000;letter-spacing:normal;word-spacing:normal;text-transform:none;direction:ltr;block-progression:tb;writing-mode:lr-tb;baseline-shift:baseline;text-anchor:start;white-space:normal;clip-rule:nonzero;display:inline;overflow:visible;visibility:visible;opacity:1;isolation:auto;mix-blend-mode:normal;color-interpolation:sRGB;color-interpolation-filters:linearRGB;solid-color:#000000;solid-opacity:1;fill-opacity:1;fill-rule:nonzero;stroke:none;stroke-width:1;stroke-linecap:butt;stroke-linejoin:miter;stroke-miterlimit:4;stroke-dasharray:none;stroke-dashoffset:0;stroke-opacity:1;color-rendering:auto;image-rendering:auto;shape-rendering:auto;text-rendering:auto;enable-background:accumulate"
     d="m 477.58984,36.476562 c -7.69636,0.595392 -14.7694,5.297511 -18.41601,13.265626 l -105.5,230.511722 c -5.83463,12.74687 -1.24795,29.65694 10.22656,37.70898 L 595.48633,480.4668 c 5.73409,4.02293 11.84773,4.96819 17.04297,3.17968 5.19523,-1.7885 9.43232,-6.29757 11.47461,-12.99804 l 81.73242,-268.15039 c 4.0858,-13.40499 -2.24711,-30.29655 -14.13867,-37.71094 L 491.51172,40.021484 c -4.4612,-2.781795 -9.30406,-3.902156 -13.92188,-3.544922 z"
     id="path3920" /><path
     style="color:#000000;font-style:normal;font-variant:normal;font-weight:normal;font-stretch:normal;font-size:medium;line-height:normal;font-family:sans-serif;text-indent:0;text-align:start;text-decoration:none;text-decoration-line:none;text-decoration-style:solid;text-decoration-color:#000000;letter-spacing:normal;word-spacing:normal;text-transform:none;direction:ltr;block-progression:tb;writing-mode:lr-tb;baseline-shift:baseline;text-anchor:start;white-space:normal;clip-rule:nonzero;display:inline;overflow:visible;visibility:visible;opacity:1;isolation:auto;mix-blend-mode:normal;color-interpolation:sRGB;color-interpolation-filters:linearRGB;solid-color:#000000;solid-opacity:1;fill-opacity:1;fill-rule:nonzero;stroke:none;stroke-width:1;stroke-linecap:butt;stroke-linejoin:miter;stroke-miterlimit:4;stroke-dasharray:none;stroke-dashoffset:0;stroke-opacity:1;color-rendering:auto;image-rendering:auto;shape-rendering:auto;text-rendering:auto;enable-background:accumulate"
     d="m 477.65824,37.443359 c 4.40613,-0.333374 9.03517,0.75328 13.32422,3.427735 l 200.0859,124.763676 c 11.44444,7.1356 17.64313,23.67125 13.71094,36.57226 l -81.73047,268.14844 c -1.96671,6.45252 -5.97824,10.67071 -10.84375,12.3457 -4.86551,1.675 -10.62263,0.82133 -16.14453,-3.05273 L 364.47656,317.14453 c -11.03548,-7.74396 -15.50395,-24.21548 -9.89258,-36.47461 l 105.5,-230.511717 c 3.5059,-7.660636 10.23068,-12.15922 17.57422,-12.714844 z"
     id="path4166" /><path
     style="color:#000000;font-style:normal;font-variant:normal;font-weight:normal;font-stretch:normal;font-size:medium;line-height:normal;font-family:sans-serif;text-indent:0;text-align:start;text-decoration:none;text-decoration-line:none;text-decoration-style:solid;text-decoration-color:#000000;letter-spacing:normal;word-spacing:normal;text-transform:none;direction:ltr;block-progression:tb;writing-mode:lr-tb;baseline-shift:baseline;text-anchor:start;white-space:normal;clip-rule:nonzero;display:inline;overflow:visible;visibility:visible;opacity:1;isolation:auto;mix-blend-mode:normal;color-interpolation:sRGB;color-interpolation-filters:linearRGB;solid-color:#000000;solid-opacity:1;fill-opacity:1;fill-rule:nonzero;stroke:none;stroke-width:1;stroke-linecap:butt;stroke-linejoin:miter;stroke-miterlimit:4;stroke-dasharray:none;stroke-dashoffset:0;stroke-opacity:1;color-rendering:auto;image-rendering:auto;shape-rendering:auto;text-rendering:auto;enable-background:accumulate"
     d="m 521.68359,36.476562 c -4.61778,-0.357238 -9.46031,0.763138 -13.92187,3.544922 L 307.67578,164.78711 c -11.89156,7.41439 -18.22448,24.30595 -14.13867,37.71094 l 81.73047,268.15039 c 2.04229,6.70047 6.27949,11.20954 11.47461,12.99804 5.19511,1.78851 11.31132,0.84326 17.04492,-3.17968 L 635.37109,317.96289 c 11.47552,-8.05203 16.06315,-24.96211 10.22852,-37.70898 L 540.09766,49.742188 C 536.45105,41.774086 529.37991,37.07196 521.68359,36.476562 Z"
     id="path3924" /><path
     style="color:#000000;font-style:normal;font-variant:normal;font-weight:normal;font-stretch:normal;font-size:medium;line-height:normal;font-family:sans-serif;text-indent:0;text-align:start;text-decoration:none;text-decoration-line:none;text-decoration-style:solid;text-decoration-color:#000000;letter-spacing:normal;word-spacing:normal;text-transform:none;direction:ltr;block-progression:tb;writing-mode:lr-tb;baseline-shift:baseline;text-anchor:start;white-space:normal;clip-rule:nonzero;display:inline;overflow:visible;visibility:visible;opacity:1;isolation:auto;mix-blend-mode:normal;color-interpolation:sRGB;color-interpolation-filters:linearRGB;solid-color:#000000;solid-opacity:1;fill-opacity:1;fill-rule:nonzero;stroke:none;stroke-width:1;stroke-linecap:butt;stroke-linejoin:miter;stroke-miterlimit:4;stroke-dasharray:none;stroke-dashoffset:0;stroke-opacity:1;color-rendering:auto;image-rendering:auto;shape-rendering:auto;text-rendering:auto;enable-background:accumulate"
     d="m 521.61519,37.443359 c 7.3435,0.555619 14.06833,5.054196 17.57422,12.714844 l 105.5,230.511717 c 5.61137,12.25913 1.14391,28.73064 -9.89257,36.47461 L 403.21289,479.64844 c -5.5214,3.87405 -11.27914,4.72772 -16.14453,3.05273 -4.86539,-1.67499 -8.87704,-5.89318 -10.84375,-12.3457 L 294.49414,202.20703 c -3.93219,-12.90101 2.2665,-29.43666 13.71094,-36.57226 L 508.29102,40.871094 c 4.28943,-2.674466 8.91812,-3.761106 13.32421,-3.427735 z"
     id="path4169" /><path
     id="shadow_1_"
     display="none"
     d="m 322.09757,294.49 35.762,117.33 95.847,-21.688 61.464,-321.154 c 0,0 -7.95,-10.729 -34.659,-11.375 l -115.793,72.203 c -17.194,47.173 -31.513,108.035 -42.621,164.684 z"
     inkscape:connector-curvature="0"
     style="display:none;fill:#61d0d6" /><path
     style="color:#000000;font-style:normal;font-variant:normal;font-weight:normal;font-stretch:normal;font-size:medium;line-height:normal;font-family:sans-serif;text-indent:0;text-align:start;text-decoration:none;text-decoration-line:none;text-decoration-style:solid;text-decoration-color:#000000;letter-spacing:normal;word-spacing:normal;text-transform:none;direction:ltr;block-progression:tb;writing-mode:lr-tb;baseline-shift:baseline;text-anchor:start;white-space:normal;clip-rule:nonzero;display:inline;overflow:visible;visibility:visible;opacity:1;isolation:auto;mix-blend-mode:normal;color-interpolation:sRGB;color-interpolation-filters:linearRGB;solid-color:#000000;solid-opacity:1;fill-opacity:1;fill-rule:nonzero;stroke:none;stroke-width:1;stroke-linecap:butt;stroke-linejoin:miter;stroke-miterlimit:4;stroke-dasharray:none;stroke-dashoffset:0;stroke-opacity:1;color-rendering:auto;image-rendering:auto;shape-rendering:auto;text-rendering:auto;enable-background:accumulate"
     d="m 499.95117,-0.5 c -8.89283,0 -19.32241,7.6546934 -30.9375,21.15625 -11.61508,13.501557 -24.40444,32.918251 -37.8125,56.677734 -26.81612,47.518966 -56.10036,112.409586 -83.23437,181.984376 -54.26802,139.14957 -99.94336,296.95334 -99.94336,372.10937 0,75.08486 29.77043,119.92114 76.1582,145.86524 46.38777,25.94409 109.31874,33.06445 175.76953,33.06445 67.29384,0 130.22646,-7.11961 176.4043,-33.06445 46.17784,-25.94485 75.52539,-70.78175 75.52539,-145.86524 0,-75.15653 -45.67729,-232.96187 -99.94531,-372.11132 C 624.80154,189.74168 595.5173,124.85287 568.70117,77.333984 555.29311,53.57454 542.50571,34.157781 530.89062,20.65625 519.27554,7.1547188 508.844,-0.5 499.95117,-0.5 Z"
     id="path3754" /><path
     style="color:#000000;font-style:normal;font-variant:normal;font-weight:normal;font-stretch:normal;font-size:medium;line-height:normal;font-family:sans-serif;text-indent:0;text-align:start;text-decoration:none;text-decoration-line:none;text-decoration-style:solid;text-decoration-color:#000000;letter-spacing:normal;word-spacing:normal;text-transform:none;direction:ltr;block-progression:tb;writing-mode:lr-tb;baseline-shift:baseline;text-anchor:start;white-space:normal;clip-rule:nonzero;display:inline;overflow:visible;visibility:visible;opacity:1;isolation:auto;mix-blend-mode:normal;color-interpolation:sRGB;color-interpolation-filters:linearRGB;solid-color:#000000;solid-opacity:1;fill-opacity:1;fill-rule:nonzero;stroke:none;stroke-width:1;stroke-linecap:butt;stroke-linejoin:miter;stroke-miterlimit:4;stroke-dasharray:none;stroke-dashoffset:0;stroke-opacity:1;color-rendering:auto;image-rendering:auto;shape-rendering:auto;text-rendering:auto;enable-background:accumulate"
     d="m 499.95117,0.5 c 8.30968,0 18.63909,7.391371 30.18164,20.808594 11.54256,13.417223 24.31035,32.792132 37.69922,56.517578 26.77775,47.450888 56.04989,112.309618 83.17188,181.853518 54.24397,139.0878 99.87695,296.99758 99.87695,371.74804 0,74.82352 -29.10822,119.20124 -75.01563,144.99415 -45.90741,25.7929 -108.6909,32.93554 -175.91406,32.93554 -66.37921,0 -129.16202,-7.14359 -175.28125,-32.9375 -46.11923,-25.7939 -75.64648,-70.17104 -75.64648,-144.99219 0,-74.74996 45.63102,-232.65816 99.875,-371.74609 27.12199,-69.54396 56.39607,-134.4045 83.17383,-181.855468 13.38887,-23.725486 26.15666,-43.10033 37.69921,-56.517578 C 481.31404,7.8913456 491.6415,0.5 499.95117,0.5 Z"
     id="body_1_" /><path
     style="color:#000000;font-style:normal;font-variant:normal;font-weight:normal;font-stretch:normal;font-size:medium;line-height:normal;font-family:sans-serif;text-indent:0;text-align:start;text-decoration:none;text-decoration-line:none;text-decoration-style:solid;text-decoration-color:#000000;letter-spacing:normal;word-spacing:normal;text-transform:none;direction:ltr;block-progression:tb;writing-mode:lr-tb;baseline-shift:baseline;text-anchor:start;white-space:normal;clip-rule:nonzero;display:inline;overflow:visible;visibility:visible;opacity:1;isolation:auto;mix-blend-mode:normal;color-interpolation:sRGB;color-interpolation-filters:linearRGB;solid-color:#000000;solid-opacity:1;fill-opacity:1;fill-rule:nonzero;stroke:none;stroke-width:1;stroke-linecap:butt;stroke-linejoin:miter;stroke-miterlimit:4;stroke-dasharray:none;stroke-dashoffset:0;stroke-opacity:1;color-rendering:auto;image-rendering:auto;shape-rendering:auto;text-rendering:auto;enable-background:accumulate"
     d="m 499.95117,-0.5 c -8.89283,0 -19.32241,7.6546934 -30.9375,21.15625 -11.61508,13.501557 -24.40444,32.918251 -37.8125,56.677734 -26.81612,47.518966 -56.10036,112.409586 -83.23437,181.984376 -54.26802,139.14957 -99.94336,296.95334 -99.94336,372.10937 0,37.54456 7.61068,68.3381 21.39258,93.39454 l 0.9375,-0.24415 C 269.34893,531.59217 314.34594,281.0541 580.17773,99.453125 l 0.36915,-0.251953 -0.21094,-0.394531 C 564.26088,68.664973 549.18535,43.886554 535.64258,26.617188 522.09981,9.3478213 510.11384,-0.5 499.95117,-0.5 Z"
     id="path3758" /><path
     style="color:#000000;font-style:normal;font-variant:normal;font-weight:normal;font-stretch:normal;font-size:medium;line-height:normal;font-family:sans-serif;text-indent:0;text-align:start;text-decoration:none;text-decoration-line:none;text-decoration-style:solid;text-decoration-color:#000000;letter-spacing:normal;word-spacing:normal;text-transform:none;direction:ltr;block-progression:tb;writing-mode:lr-tb;baseline-shift:baseline;text-anchor:start;white-space:normal;clip-rule:nonzero;display:inline;overflow:visible;visibility:visible;opacity:1;isolation:auto;mix-blend-mode:normal;color-interpolation:sRGB;color-interpolation-filters:linearRGB;solid-color:#000000;solid-opacity:1;fill-opacity:1;fill-rule:nonzero;stroke:none;stroke-width:1;stroke-linecap:butt;stroke-linejoin:miter;stroke-miterlimit:4;stroke-dasharray:none;stroke-dashoffset:0;stroke-opacity:1;color-rendering:auto;image-rendering:auto;shape-rendering:auto;text-rendering:auto;enable-background:accumulate"
     d="m 499.95117,0.5 c 9.50533,0 21.42582,9.546991 34.9043,26.734375 13.41834,17.1107 28.40927,41.725031 44.38867,71.65625 C 314.36603,280.04814 268.69643,529.74445 269.375,722.52539 c -13.08404,-24.56622 -20.35156,-54.57188 -20.35156,-91.09766 0,-74.74996 45.63102,-232.65816 99.875,-371.74609 27.12199,-69.54396 56.39607,-134.4045 83.17383,-181.855468 13.38887,-23.725486 26.15666,-43.10033 37.69921,-56.517578 C 481.31404,7.8913456 491.6415,0.5 499.95117,0.5 Z"
     id="highlight" /><circle
     id="little_circle_1_"
     display="none"
     cx="499.95157"
     cy="591.349"
     r="101.333"
     style="display:none;fill:none" /><circle
     id="big_circle"
     display="none"
     cx="500.95157"
     cy="588.349"
     r="162.44501"
     style="display:none;fill:none" /><path
     style="color:#000000;font-style:normal;font-variant:normal;font-weight:normal;font-stretch:normal;font-size:medium;line-height:normal;font-family:sans-serif;text-indent:0;text-align:start;text-decoration:none;text-decoration-line:none;text-decoration-style:solid;text-decoration-color:#000000;letter-spacing:normal;word-spacing:normal;text-transform:none;direction:ltr;block-progression:tb;writing-mode:lr-tb;baseline-shift:baseline;text-anchor:start;white-space:normal;clip-rule:nonzero;display:inline;overflow:visible;visibility:visible;opacity:1;isolation:auto;mix-blend-mode:normal;color-interpolation:sRGB;color-interpolation-filters:linearRGB;solid-color:#000000;solid-opacity:1;fill-opacity:1;fill-rule:nonzero;stroke:none;stroke-width:1;stroke-linecap:butt;stroke-linejoin:miter;stroke-miterlimit:4;stroke-dasharray:none;stroke-dashoffset:0;stroke-opacity:1;color-rendering:auto;image-rendering:auto;shape-rendering:auto;text-rendering:auto;enable-background:accumulate"
     d="m 423.55469,731.98633 -25.55664,11.38086 0.14648,0.43164 c 0,0 19.41626,57.33845 16.29883,109.77929 l -0.0215,0.37891 0.35742,0.12305 c 9.96438,3.4419 19.62311,6.48203 28.74218,9.17383 l 0.57813,0.16992 0.0606,-0.59961 c 4.77274,-47.20806 -8.03577,-99.61864 -12.98047,-129.56445 l -0.0625,-0.3711 -0.375,-0.043 c -2.35046,-0.26782 -4.69917,-0.54804 -7.04883,-0.84375 l -0.13867,-0.0156 z"
     id="path3928" /><path
     style="color:#000000;font-style:normal;font-variant:normal;font-weight:normal;font-stretch:normal;font-size:medium;line-height:normal;font-family:sans-serif;text-indent:0;text-align:start;text-decoration:none;text-decoration-line:none;text-decoration-style:solid;text-decoration-color:#000000;letter-spacing:normal;word-spacing:normal;text-transform:none;direction:ltr;block-progression:tb;writing-mode:lr-tb;baseline-shift:baseline;text-anchor:start;white-space:normal;clip-rule:nonzero;display:inline;overflow:visible;visibility:visible;opacity:1;isolation:auto;mix-blend-mode:normal;color-interpolation:sRGB;color-interpolation-filters:linearRGB;solid-color:#000000;solid-opacity:1;fill-opacity:1;fill-rule:nonzero;stroke:none;stroke-width:1;stroke-linecap:butt;stroke-linejoin:miter;stroke-miterlimit:4;stroke-dasharray:none;stroke-dashoffset:0;stroke-opacity:1;color-rendering:auto;image-rendering:auto;shape-rendering:auto;text-rendering:auto;enable-background:accumulate"
     d="m 423.70898,733.01172 c 2.18425,0.27426 4.36728,0.53135 6.55079,0.78125 4.97427,29.95228 17.49975,81.67712 12.9414,128.30859 -8.82917,-2.61392 -18.14239,-5.54351 -27.75586,-8.85742 2.98174,-52.03012 -15.79293,-108.06531 -16.21875,-109.32812 l 24.48242,-10.9043 z"
     id="path4177" /><path
     style="color:#000000;font-style:normal;font-variant:normal;font-weight:normal;font-stretch:normal;font-size:medium;line-height:normal;font-family:sans-serif;text-indent:0;text-align:start;text-decoration:none;text-decoration-line:none;text-decoration-style:solid;text-decoration-color:#000000;letter-spacing:normal;word-spacing:normal;text-transform:none;direction:ltr;block-progression:tb;writing-mode:lr-tb;baseline-shift:baseline;text-anchor:start;white-space:normal;clip-rule:nonzero;display:inline;overflow:visible;visibility:visible;opacity:1;isolation:auto;mix-blend-mode:normal;color-interpolation:sRGB;color-interpolation-filters:linearRGB;solid-color:#000000;solid-opacity:1;fill-opacity:1;fill-rule:nonzero;stroke:none;stroke-width:1;stroke-linecap:butt;stroke-linejoin:miter;stroke-miterlimit:4;stroke-dasharray:none;stroke-dashoffset:0;stroke-opacity:1;color-rendering:auto;image-rendering:auto;shape-rendering:auto;text-rendering:auto;enable-background:accumulate"
     d="m 294.99414,701.51172 -0.17578,0.44922 c -0.3878,0.98862 -0.68923,2.06474 -0.88477,3.24414 -1.78554,10.80595 -5.84105,15.76351 -10.32617,22.87109 -4.48511,7.10758 -9.34073,16.29906 -12.51953,35.28711 l -0.0371,0.2207 0.14063,0.17383 c 11.11478,13.91328 24.12451,26.11481 38.24414,36.8418 l 0.66211,0.50391 0.13281,-0.82032 c 0.8707,-5.35071 2.07018,-10.63945 3.67383,-15.85156 14.01128,-45.52918 26.2075,-54.43553 35.3457,-65.74609 l 0.49023,-0.60547 -0.75585,-0.19336 c -17.95656,-4.55833 -35.82892,-9.95005 -53.53321,-16.21484 l -0.45703,-0.16016 z"
     id="path3932" /><path
     style="color:#000000;font-style:normal;font-variant:normal;font-weight:normal;font-stretch:normal;font-size:medium;line-height:normal;font-family:sans-serif;text-indent:0;text-align:start;text-decoration:none;text-decoration-line:none;text-decoration-style:solid;text-decoration-color:#000000;letter-spacing:normal;word-spacing:normal;text-transform:none;direction:ltr;block-progression:tb;writing-mode:lr-tb;baseline-shift:baseline;text-anchor:start;white-space:normal;clip-rule:nonzero;display:inline;overflow:visible;visibility:visible;opacity:1;isolation:auto;mix-blend-mode:normal;color-interpolation:sRGB;color-interpolation-filters:linearRGB;solid-color:#000000;solid-opacity:1;fill-opacity:1;fill-rule:nonzero;stroke:none;stroke-width:1;stroke-linecap:butt;stroke-linejoin:miter;stroke-miterlimit:4;stroke-dasharray:none;stroke-dashoffset:0;stroke-opacity:1;color-rendering:auto;image-rendering:auto;shape-rendering:auto;text-rendering:auto;enable-background:accumulate"
     d="m 295.625,702.78125 c 17.31482,6.10965 34.78865,11.38296 52.34375,15.86328 -8.98623,10.92845 -21.20965,20.6194 -35.01953,65.49414 -1.53521,4.98966 -2.67822,10.04771 -3.54297,15.15625 -13.75384,-10.51885 -26.43147,-22.43419 -37.28516,-35.98633 3.16033,-18.70586 7.89991,-27.67562 12.33203,-34.69921 4.45189,-7.05492 8.64935,-12.24314 10.4668,-23.24219 0.15685,-0.94604 0.41774,-1.77948 0.70508,-2.58594 z"
     id="path4179" /><path
     style="color:#000000;font-style:normal;font-variant:normal;font-weight:normal;font-stretch:normal;font-size:medium;line-height:normal;font-family:sans-serif;text-indent:0;text-align:start;text-decoration:none;text-decoration-line:none;text-decoration-style:solid;text-decoration-color:#000000;letter-spacing:normal;word-spacing:normal;text-transform:none;direction:ltr;block-progression:tb;writing-mode:lr-tb;baseline-shift:baseline;text-anchor:start;white-space:normal;clip-rule:nonzero;display:inline;overflow:visible;visibility:visible;opacity:1;isolation:auto;mix-blend-mode:normal;color-interpolation:sRGB;color-interpolation-filters:linearRGB;solid-color:#000000;solid-opacity:1;fill-opacity:1;fill-rule:nonzero;stroke:none;stroke-width:1;stroke-linecap:butt;stroke-linejoin:miter;stroke-miterlimit:4;stroke-dasharray:none;stroke-dashoffset:0;stroke-opacity:1;color-rendering:auto;image-rendering:auto;shape-rendering:auto;text-rendering:auto;enable-background:accumulate"
     d="m 379.9082,731.96289 c -1.2202,0.0854 -2.61278,0.36065 -4.15625,0.93945 -6.17387,2.3152 -14.73676,9.42583 -24.76757,28.48438 l -0.0781,0.15039 0.0293,0.16797 c 3.51338,20.25164 5.55122,43.85845 6.43164,68.15625 l 0.0117,0.29687 0.26367,0.13282 c 9.63876,4.84841 19.37603,9.22899 29.0293,13.19921 l 0.67968,0.2793 0.01,-0.73633 c 0.51511,-38.35658 0.0662,-78.41757 -1.4336,-109.4375 l -0.0117,-0.24218 -0.19727,-0.14063 c 0,0 -0.978,-0.68916 -2.6875,-1.05078 -0.85475,-0.18081 -1.90284,-0.28466 -3.12305,-0.19922 z"
     id="path3936" /><path
     style="color:#000000;font-style:normal;font-variant:normal;font-weight:normal;font-stretch:normal;font-size:medium;line-height:normal;font-family:sans-serif;text-indent:0;text-align:start;text-decoration:none;text-decoration-line:none;text-decoration-style:solid;text-decoration-color:#000000;letter-spacing:normal;word-spacing:normal;text-transform:none;direction:ltr;block-progression:tb;writing-mode:lr-tb;baseline-shift:baseline;text-anchor:start;white-space:normal;clip-rule:nonzero;display:inline;overflow:visible;visibility:visible;opacity:1;isolation:auto;mix-blend-mode:normal;color-interpolation:sRGB;color-interpolation-filters:linearRGB;solid-color:#000000;solid-opacity:1;fill-opacity:1;fill-rule:nonzero;stroke:none;stroke-width:1;stroke-linecap:butt;stroke-linejoin:miter;stroke-miterlimit:4;stroke-dasharray:none;stroke-dashoffset:0;stroke-opacity:1;color-rendering:auto;image-rendering:auto;shape-rendering:auto;text-rendering:auto;enable-background:accumulate"
     d="m 379.9785,732.95703 c 1.12354,-0.0786 2.07545,0.0207 2.8457,0.18359 1.4067,0.29758 1.98884,0.72711 2.11133,0.81055 1.47787,30.74667 1.92326,70.31941 1.42578,108.31641 -9.32067,-3.85075 -18.70985,-8.07708 -28.00977,-12.7461 -0.88499,-24.15057 -2.9135,-47.61023 -6.40429,-67.80078 9.93343,-18.82353 18.34611,-25.70401 24.15625,-27.88281 1.45653,-0.5462 2.75145,-0.80224 3.875,-0.88086 z"
     id="path4181" /><path
     style="color:#000000;font-style:normal;font-variant:normal;font-weight:normal;font-stretch:normal;font-size:medium;line-height:normal;font-family:sans-serif;text-indent:0;text-align:start;text-decoration:none;text-decoration-line:none;text-decoration-style:solid;text-decoration-color:#000000;letter-spacing:normal;word-spacing:normal;text-transform:none;direction:ltr;block-progression:tb;writing-mode:lr-tb;baseline-shift:baseline;text-anchor:start;white-space:normal;clip-rule:nonzero;display:inline;overflow:visible;visibility:visible;opacity:1;isolation:auto;mix-blend-mode:normal;color-interpolation:sRGB;color-interpolation-filters:linearRGB;solid-color:#000000;solid-opacity:1;fill-opacity:1;fill-rule:nonzero;stroke:none;stroke-width:1;stroke-linecap:butt;stroke-linejoin:miter;stroke-miterlimit:4;stroke-dasharray:none;stroke-dashoffset:0;stroke-opacity:1;color-rendering:auto;image-rendering:auto;shape-rendering:auto;text-rendering:auto;enable-background:accumulate"
     d="m 691.95508,760.30469 -59.10547,14.94531 0.0859,0.46289 c 0,0 6.92138,36.73481 16.06054,73.11719 l -39.16797,-17.85742 -0.084,0.67382 c 0,0 -8.81416,69.42677 -10.81641,109.11524 -0.76291,15.10817 -1.01459,36.41235 3.54493,57.03906 l 0.20117,0.90625 0.64648,-0.66797 c 7.8595,-8.11387 15.4998,-16.80683 22.91407,-25.95703 l 0.11718,-0.14453 -0.006,-0.1875 c -0.29915,-8.9546 0.0694,-18.40744 0.91407,-28.08789 2.72901,-31.27135 16.7136,-61.94719 25.02539,-82.16797 3.20523,11.95467 6.59078,23.4319 10.0039,32.97266 1.86149,5.2001 4.20194,10.05984 6.94727,14.57031 l 0.42773,0.70312 0.42774,-0.70312 c 9.76192,-16.10843 18.90049,-32.64748 27.35937,-49.16602 l 0.0703,-0.13671 -0.0195,-0.15235 c -7.25119,-57.77766 -5.57422,-98.60937 -5.57422,-98.60937 l 0.0273,-0.66797 z"
     id="path3940" /><path
     style="color:#000000;font-style:normal;font-variant:normal;font-weight:normal;font-stretch:normal;font-size:medium;line-height:normal;font-family:sans-serif;text-indent:0;text-align:start;text-decoration:none;text-decoration-line:none;text-decoration-style:solid;text-decoration-color:#000000;letter-spacing:normal;word-spacing:normal;text-transform:none;direction:ltr;block-progression:tb;writing-mode:lr-tb;baseline-shift:baseline;text-anchor:start;white-space:normal;clip-rule:nonzero;display:inline;overflow:visible;visibility:visible;opacity:1;isolation:auto;mix-blend-mode:normal;color-interpolation:sRGB;color-interpolation-filters:linearRGB;solid-color:#000000;solid-opacity:1;fill-opacity:1;fill-rule:nonzero;stroke:none;stroke-width:1;stroke-linecap:butt;stroke-linejoin:miter;stroke-miterlimit:4;stroke-dasharray:none;stroke-dashoffset:0;stroke-opacity:1;color-rendering:auto;image-rendering:auto;shape-rendering:auto;text-rendering:auto;enable-background:accumulate"
     d="m 690.91406,761.59766 c -0.0694,1.81036 -1.49305,41.50105 5.57813,97.94726 -8.29869,16.19902 -17.26298,32.40526 -26.81446,48.21094 -2.52012,-4.24481 -4.70967,-8.77297 -6.44726,-13.62695 -3.53445,-9.8799 -7.05832,-21.83049 -10.37109,-34.28711 l -0.38282,-1.43946 -0.56445,1.37891 c -8.21861,20.14299 -22.8438,51.65698 -25.64844,83.79492 -0.84126,9.64164 -1.20512,19.06031 -0.91601,28.00781 -7.14538,8.81137 -14.50779,17.1747 -22.0625,25.01954 -4.30592,-20.17281 -4.10639,-40.96121 -3.35743,-55.79297 1.98069,-39.26124 10.58039,-107.19221 10.72852,-108.36133 l 39.80273,18.14453 -0.25586,-1.00781 c -9.16434,-36.30907 -16.05411,-72.86857 -16.1914,-73.59766 l 56.90234,-14.39062 z"
     id="path4183" /><path
     style="color:#000000;font-style:normal;font-variant:normal;font-weight:normal;font-stretch:normal;font-size:medium;line-height:normal;font-family:sans-serif;text-indent:0;text-align:start;text-decoration:none;text-decoration-line:none;text-decoration-style:solid;text-decoration-color:#000000;letter-spacing:normal;word-spacing:normal;text-transform:none;direction:ltr;block-progression:tb;writing-mode:lr-tb;baseline-shift:baseline;text-anchor:start;white-space:normal;clip-rule:nonzero;display:inline;overflow:visible;visibility:visible;opacity:1;isolation:auto;mix-blend-mode:normal;color-interpolation:sRGB;color-interpolation-filters:linearRGB;solid-color:#000000;solid-opacity:1;fill-opacity:1;fill-rule:nonzero;stroke:none;stroke-width:1;stroke-linecap:butt;stroke-linejoin:miter;stroke-miterlimit:4;stroke-dasharray:none;stroke-dashoffset:0;stroke-opacity:1;color-rendering:auto;image-rendering:auto;shape-rendering:auto;text-rendering:auto;enable-background:accumulate"
     d="m 480.91797,770.70117 c -1.11016,-0.12837 -2.39334,-0.0577 -3.83203,0.35547 -5.75475,1.65253 -13.94122,8.62032 -24.49805,29.67383 l -0.0937,0.18555 0.0664,0.19726 c 7.97785,23.71169 14.61411,47.23992 19.85937,69.88477 l 0.0684,0.29297 0.29102,0.0781 c 0.50518,0.13378 1.02149,0.27013 1.52148,0.40039 11.58496,3.04368 22.07056,6.72133 31.66602,11.04492 l 0.82812,0.37305 -0.1289,-0.89844 c -5.20032,-36.57525 -12.64385,-76.0137 -20.56055,-108.78515 l -0.0274,-0.10547 -0.0664,-0.0859 c 0,0 -0.79363,-1.00586 -2.29492,-1.77148 -0.75065,-0.38282 -1.68867,-0.71147 -2.79883,-0.83985 z"
     id="path3944" /><path
     style="color:#000000;font-style:normal;font-variant:normal;font-weight:normal;font-stretch:normal;font-size:medium;line-height:normal;font-family:sans-serif;text-indent:0;text-align:start;text-decoration:none;text-decoration-line:none;text-decoration-style:solid;text-decoration-color:#000000;letter-spacing:normal;word-spacing:normal;text-transform:none;direction:ltr;block-progression:tb;writing-mode:lr-tb;baseline-shift:baseline;text-anchor:start;white-space:normal;clip-rule:nonzero;display:inline;overflow:visible;visibility:visible;opacity:1;isolation:auto;mix-blend-mode:normal;color-interpolation:sRGB;color-interpolation-filters:linearRGB;solid-color:#000000;solid-opacity:1;fill-opacity:1;fill-rule:nonzero;stroke:none;stroke-width:1;stroke-linecap:butt;stroke-linejoin:miter;stroke-miterlimit:4;stroke-dasharray:none;stroke-dashoffset:0;stroke-opacity:1;color-rendering:auto;image-rendering:auto;shape-rendering:auto;text-rendering:auto;enable-background:accumulate"
     d="m 480.80664,771.68945 c 0.9807,0.11385 1.79629,0.40622 2.45508,0.74219 1.27818,0.65185 1.86679,1.406 1.9043,1.45313 7.83357,32.4517 15.19455,71.43398 20.37695,107.68554 -9.4328,-4.19397 -19.67509,-7.79529 -30.98828,-10.76758 -0.40477,-0.10545 -0.82241,-0.21653 -1.23633,-0.32617 -5.22589,-22.51777 -11.82105,-45.89638 -19.74219,-69.46289 10.45543,-20.79244 18.52938,-27.48685 23.78516,-28.99609 1.31806,-0.37849 2.46461,-0.44198 3.44531,-0.32813 z"
     id="path4185" /><path
     style="color:#000000;font-style:normal;font-variant:normal;font-weight:normal;font-stretch:normal;font-size:medium;line-height:normal;font-family:sans-serif;text-indent:0;text-align:start;text-decoration:none;text-decoration-line:none;text-decoration-style:solid;text-decoration-color:#000000;letter-spacing:normal;word-spacing:normal;text-transform:none;direction:ltr;block-progression:tb;writing-mode:lr-tb;baseline-shift:baseline;text-anchor:start;white-space:normal;clip-rule:nonzero;display:inline;overflow:visible;visibility:visible;opacity:1;isolation:auto;mix-blend-mode:normal;color-interpolation:sRGB;color-interpolation-filters:linearRGB;solid-color:#000000;solid-opacity:1;fill-opacity:1;fill-rule:nonzero;stroke:none;stroke-width:1;stroke-linecap:butt;stroke-linejoin:miter;stroke-miterlimit:4;stroke-dasharray:none;stroke-dashoffset:0;stroke-opacity:1;color-rendering:auto;image-rendering:auto;shape-rendering:auto;text-rendering:auto;enable-background:accumulate"
     d="m 562.54297,783.75 -0.41602,0.0371 c 0,0 -3.36853,0.30213 -9.71679,3.21875 -6.34827,2.91662 -15.73646,8.45099 -27.96094,18.92969 l -0.32617,0.28125 0.22851,0.36523 c 12.15541,19.37757 16.57736,56.41976 18.57617,92.39844 0.1417,2.55158 0.23619,5.0102 0.28907,7.39258 l 0.004,0.21875 0.16407,0.14453 c 11.04332,9.74786 20.55906,21.18545 29.11132,34.49219 l 0.70118,1.09375 0.21289,-1.28125 c 9.57149,-57.9062 3.51366,-104.72201 -10.75792,-156.88867 L 562.54297,783.75 Z"
     id="path3948" /><path
     style="color:#000000;font-style:normal;font-variant:normal;font-weight:normal;font-stretch:normal;font-size:medium;line-height:normal;font-family:sans-serif;text-indent:0;text-align:start;text-decoration:none;text-decoration-line:none;text-decoration-style:solid;text-decoration-color:#000000;letter-spacing:normal;word-spacing:normal;text-transform:none;direction:ltr;block-progression:tb;writing-mode:lr-tb;baseline-shift:baseline;text-anchor:start;white-space:normal;clip-rule:nonzero;display:inline;overflow:visible;visibility:visible;opacity:1;isolation:auto;mix-blend-mode:normal;color-interpolation:sRGB;color-interpolation-filters:linearRGB;solid-color:#000000;solid-opacity:1;fill-opacity:1;fill-rule:nonzero;stroke:none;stroke-width:1;stroke-linecap:butt;stroke-linejoin:miter;stroke-miterlimit:4;stroke-dasharray:none;stroke-dashoffset:0;stroke-opacity:1;color-rendering:auto;image-rendering:auto;shape-rendering:auto;text-rendering:auto;enable-background:accumulate"
     d="m 561.80273,784.86914 c 14.05406,51.51451 20.0091,97.7511 10.79297,154.73828 -8.36392,-12.83031 -17.64762,-23.95772 -28.38672,-33.4668 -0.0539,-2.33036 -0.1449,-4.72455 -0.2832,-7.21484 -1.98901,-35.80212 -6.28992,-72.61963 -18.51758,-92.47656 12.00571,-10.24722 21.22364,-15.68641 27.41992,-18.5332 5.70569,-2.6214 8.47488,-2.98908 8.97461,-3.04688 z"
     id="path4187" /><path
     id="shadow_2_"
     display="none"
     d="m 235.42757,677.286 c 15.571,131.32 166.294,174.896 239,194 68.506,18 99.574,57.604 127,128 97.442,-99.312 162.47,-289.062 164,-328 -144.197,81.838 -351.053,91.884 -530,6 z"
     inkscape:connector-curvature="0"
     style="display:none" /><path
     style="color:#000000;font-style:normal;font-variant:normal;font-weight:normal;font-stretch:normal;font-size:medium;line-height:normal;font-family:sans-serif;text-indent:0;text-align:start;text-decoration:none;text-decoration-line:none;text-decoration-style:solid;text-decoration-color:#000000;letter-spacing:normal;word-spacing:normal;text-transform:none;direction:ltr;block-progression:tb;writing-mode:lr-tb;baseline-shift:baseline;text-anchor:start;white-space:normal;clip-rule:nonzero;display:inline;overflow:visible;visibility:visible;opacity:1;isolation:auto;mix-blend-mode:normal;color-interpolation:sRGB;color-interpolation-filters:linearRGB;solid-color:#000000;solid-opacity:1;fill-opacity:1;fill-rule:nonzero;stroke:none;stroke-width:1;stroke-linecap:butt;stroke-linejoin:miter;stroke-miterlimit:4;stroke-dasharray:none;stroke-dashoffset:0;stroke-opacity:1;color-rendering:auto;image-rendering:auto;shape-rendering:auto;text-rendering:auto;enable-background:accumulate"
     d="m 750.2793,659.44531 -0.78125,0.44336 c -144.05858,81.76001 -319.60671,91.1361 -498.42578,5.3125 l -0.82032,-0.39453 0.10743,0.90234 c 7.80504,65.82482 45.33726,101.54882 90.06445,122.60157 44.72719,21.05274 96.66321,27.52228 133.45508,35.03711 68.88254,14.0694 120.38592,40.21608 147.75,110.45312 l 0.28125,0.72266 0.54101,-0.55274 c 48.78318,-49.71936 80.34281,-108.36966 99.90235,-159.46093 19.55953,-51.09128 27.1217,-94.59867 27.89062,-114.16797 l 0.0352,-0.89649 z"
     id="path3762" /><path
     style="color:#000000;font-style:normal;font-variant:normal;font-weight:normal;font-stretch:normal;font-size:medium;line-height:normal;font-family:sans-serif;text-indent:0;text-align:start;text-decoration:none;text-decoration-line:none;text-decoration-style:solid;text-decoration-color:#000000;letter-spacing:normal;word-spacing:normal;text-transform:none;direction:ltr;block-progression:tb;writing-mode:lr-tb;baseline-shift:baseline;text-anchor:start;white-space:normal;clip-rule:nonzero;display:inline;overflow:visible;visibility:visible;opacity:1;isolation:auto;mix-blend-mode:normal;color-interpolation:sRGB;color-interpolation-filters:linearRGB;solid-color:#000000;solid-opacity:1;fill-opacity:1;fill-rule:nonzero;stroke:none;stroke-width:1;stroke-linecap:butt;stroke-linejoin:miter;stroke-miterlimit:4;stroke-dasharray:none;stroke-dashoffset:0;stroke-opacity:1;color-rendering:auto;image-rendering:auto;shape-rendering:auto;text-rendering:auto;enable-background:accumulate"
     d="m 749.17969,661.1875 c -0.92891,19.74013 -8.49551,62.64485 -27.75977,112.96484 C 701.969,824.95992 670.60525,883.23697 622.25,932.71289 594.68615,862.72336 542.85914,836.41546 474.08008,822.36719 437.21795,814.83801 385.37817,808.36355 340.84961,787.4043 296.52836,766.54262 259.48848,731.39175 251.48633,666.48047 429.9369,751.83192 605.22494,742.55465 749.17969,661.1875 Z"
     id="bandana_2_" /><path
     style="color:#000000;font-style:normal;font-variant:normal;font-weight:normal;font-stretch:normal;font-size:medium;line-height:normal;font-family:sans-serif;text-indent:0;text-align:start;text-decoration:none;text-decoration-line:none;text-decoration-style:solid;text-decoration-color:#000000;letter-spacing:normal;word-spacing:normal;text-transform:none;direction:ltr;block-progression:tb;writing-mode:lr-tb;baseline-shift:baseline;text-anchor:start;white-space:normal;clip-rule:nonzero;display:inline;overflow:visible;visibility:visible;opacity:1;isolation:auto;mix-blend-mode:normal;color-interpolation:sRGB;color-interpolation-filters:linearRGB;solid-color:#000000;solid-opacity:1;fill-opacity:1;fill-rule:nonzero;stroke:none;stroke-width:1;stroke-linecap:butt;stroke-linejoin:miter;stroke-miterlimit:4;stroke-dasharray:none;stroke-dashoffset:0;stroke-opacity:1;color-rendering:auto;image-rendering:auto;shape-rendering:auto;text-rendering:auto;enable-background:accumulate"
     d="m 750.2793,659.44531 -0.78125,0.44336 c -34.91563,19.81582 -53.92419,35.31413 -95.57422,46.28711 l -0.14453,0.0371 -0.0996,0.11133 c -36.55313,40.47054 -89.9957,84.03196 -168.26367,118.61523 l -1.36914,0.60547 1.45898,0.33985 c 63.06242,14.67271 110.32244,41.68991 136.12305,107.91601 l 0.28125,0.72266 0.54101,-0.55274 c 48.78318,-49.71936 80.34281,-108.36966 99.90235,-159.46093 19.55953,-51.09128 27.1217,-94.59867 27.89062,-114.16797 l 0.0352,-0.89649 z"
     id="path3766" /><path
     style="color:#000000;font-style:normal;font-variant:normal;font-weight:normal;font-stretch:normal;font-size:medium;line-height:normal;font-family:sans-serif;text-indent:0;text-align:start;text-decoration:none;text-decoration-line:none;text-decoration-style:solid;text-decoration-color:#000000;letter-spacing:normal;word-spacing:normal;text-transform:none;direction:ltr;block-progression:tb;writing-mode:lr-tb;baseline-shift:baseline;text-anchor:start;white-space:normal;clip-rule:nonzero;display:inline;overflow:visible;visibility:visible;opacity:1;isolation:auto;mix-blend-mode:normal;color-interpolation:sRGB;color-interpolation-filters:linearRGB;solid-color:#000000;solid-opacity:1;fill-opacity:1;fill-rule:nonzero;stroke:none;stroke-width:1;stroke-linecap:butt;stroke-linejoin:miter;stroke-miterlimit:4;stroke-dasharray:none;stroke-dashoffset:0;stroke-opacity:1;color-rendering:auto;image-rendering:auto;shape-rendering:auto;text-rendering:auto;enable-background:accumulate"
     d="m 749.17578,661.24023 c -0.93882,19.7615 -8.507,62.63233 -27.75586,112.91211 -19.45066,50.8069 -50.81383,109.0831 -99.16797,158.5586 -25.79491,-65.49991 -72.89036,-92.71674 -135.1914,-107.44532 77.62991,-34.51884 130.82649,-77.85271 167.26172,-118.16601 41.33679,-10.91614 60.60303,-26.3425 94.85351,-45.85938 z"
     id="shading" /><path
     style="color:#000000;font-style:normal;font-variant:normal;font-weight:normal;font-stretch:normal;font-size:medium;line-height:normal;font-family:sans-serif;text-indent:0;text-align:start;text-decoration:none;text-decoration-line:none;text-decoration-style:solid;text-decoration-color:#000000;letter-spacing:normal;word-spacing:normal;text-transform:none;direction:ltr;block-progression:tb;writing-mode:lr-tb;baseline-shift:baseline;text-anchor:start;white-space:normal;clip-rule:nonzero;display:inline;overflow:visible;visibility:visible;opacity:1;isolation:auto;mix-blend-mode:normal;color-interpolation:sRGB;color-interpolation-filters:linearRGB;solid-color:#000000;solid-opacity:1;fill-opacity:1;fill-rule:nonzero;stroke:none;stroke-width:1;stroke-linecap:butt;stroke-linejoin:miter;stroke-miterlimit:4;stroke-dasharray:none;stroke-dashoffset:0;stroke-opacity:1;color-rendering:auto;image-rendering:auto;shape-rendering:auto;text-rendering:auto;enable-background:accumulate"
     d="m 408.44531,546.64062 -0.21484,0.41797 c 0,0 -10.11133,19.75759 -10.11133,44.29102 0,56.23522 45.59781,101.83203 101.83203,101.83203 56.23522,0 101.83399,-45.59681 101.83399,-101.83203 0,-15.03496 -2.52481,-26.10857 -5.05664,-33.42969 -2.53184,-7.32111 -5.09571,-10.92383 -5.09571,-10.92383 l -0.23633,-0.33203 -0.37304,0.16406 c -50.27833,22.25139 -132.24354,21.58757 -182.14844,-0.002 l -0.42969,-0.18555 z"
     id="path3952" /><path
     style="color:#000000;font-style:normal;font-variant:normal;font-weight:normal;font-stretch:normal;font-size:medium;line-height:normal;font-family:sans-serif;text-indent:0;text-align:start;text-decoration:none;text-decoration-line:none;text-decoration-style:solid;text-decoration-color:#000000;letter-spacing:normal;word-spacing:normal;text-transform:none;direction:ltr;block-progression:tb;writing-mode:lr-tb;baseline-shift:baseline;text-anchor:start;white-space:normal;clip-rule:nonzero;display:inline;overflow:visible;visibility:visible;opacity:1;isolation:auto;mix-blend-mode:normal;color-interpolation:sRGB;color-interpolation-filters:linearRGB;solid-color:#000000;solid-opacity:1;fill-opacity:1;fill-rule:nonzero;stroke:none;stroke-width:1;stroke-linecap:butt;stroke-linejoin:miter;stroke-miterlimit:4;stroke-dasharray:none;stroke-dashoffset:0;stroke-opacity:1;color-rendering:auto;image-rendering:auto;shape-rendering:auto;text-rendering:auto;enable-background:accumulate"
     d="m 591.01562,547.91016 c 0.28406,0.41134 2.42893,3.57341 4.76758,10.33593 2.49717,7.22089 5.00196,18.18048 5.00196,33.10352 0,55.69478 -45.1392,100.83203 -100.83399,100.83203 -55.69378,0 -100.83203,-45.13725 -100.83203,-100.83203 0,-23.53554 9.25513,-42.30642 9.81641,-43.42578 50.1682,21.50129 131.5459,22.1578 182.08007,-0.0137 z"
     id="path4193" /><path
     style="color:#000000;font-style:normal;font-variant:normal;font-weight:normal;font-stretch:normal;font-size:medium;line-height:normal;font-family:sans-serif;text-indent:0;text-align:start;text-decoration:none;text-decoration-line:none;text-decoration-style:solid;text-decoration-color:#000000;letter-spacing:normal;word-spacing:normal;text-transform:none;direction:ltr;block-progression:tb;writing-mode:lr-tb;baseline-shift:baseline;text-anchor:start;white-space:normal;clip-rule:nonzero;display:inline;overflow:visible;visibility:visible;opacity:1;isolation:auto;mix-blend-mode:normal;color-interpolation:sRGB;color-interpolation-filters:linearRGB;solid-color:#000000;solid-opacity:1;fill-opacity:1;fill-rule:nonzero;stroke:none;stroke-width:1;stroke-linecap:butt;stroke-linejoin:miter;stroke-miterlimit:4;stroke-dasharray:none;stroke-dashoffset:0;stroke-opacity:1;color-rendering:auto;image-rendering:auto;shape-rendering:auto;text-rendering:auto;enable-background:accumulate"
     d="m 462.8457,560.85547 -0.17187,0.25976 c -6.95407,10.54138 -11.4043,27.24923 -11.4043,46.06836 0,15.84615 3.16164,30.1956 8.30664,40.62696 5.14501,10.43136 12.32051,17.01562 20.37695,17.01562 8.05645,0 15.2317,-6.58426 20.37696,-17.01562 5.14525,-10.43136 8.30664,-24.78081 8.30664,-40.62696 -0.001,-17.45449 -3.8393,-33.08083 -9.93945,-43.66797 l -0.14258,-0.24804 -0.28711,-0.002 c -11.84948,-0.0918 -23.67488,-0.8779 -35.11133,-2.37109 l -0.31055,-0.0391 z"
     id="path3956" /><path
     style="color:#000000;font-style:normal;font-variant:normal;font-weight:normal;font-stretch:normal;font-size:medium;line-height:normal;font-family:sans-serif;text-indent:0;text-align:start;text-decoration:none;text-decoration-line:none;text-decoration-style:solid;text-decoration-color:#000000;letter-spacing:normal;word-spacing:normal;text-transform:none;direction:ltr;block-progression:tb;writing-mode:lr-tb;baseline-shift:baseline;text-anchor:start;white-space:normal;clip-rule:nonzero;display:inline;overflow:visible;visibility:visible;opacity:1;isolation:auto;mix-blend-mode:normal;color-interpolation:sRGB;color-interpolation-filters:linearRGB;solid-color:#000000;solid-opacity:1;fill-opacity:1;fill-rule:nonzero;stroke:none;stroke-width:1;stroke-linecap:butt;stroke-linejoin:miter;stroke-miterlimit:4;stroke-dasharray:none;stroke-dashoffset:0;stroke-opacity:1;color-rendering:auto;image-rendering:auto;shape-rendering:auto;text-rendering:auto;enable-background:accumulate"
     d="m 463.37695,561.92188 c 11.26996,1.4565 22.90319,2.22946 34.56641,2.33203 5.90747,10.37318 9.69237,25.74089 9.69336,42.92968 0,15.71286 -3.14713,29.93516 -8.20313,40.18555 -5.05599,10.25039 -11.97191,16.45703 -19.48047,16.45703 -7.50855,0 -14.42472,-6.20664 -19.48046,-16.45703 -5.05575,-10.25039 -8.20313,-24.47269 -8.20313,-40.18555 0,-18.52595 4.39642,-34.94791 11.10742,-45.26171 z"
     id="path4195" /><g
     id="star"
     display="none"
     style="display:none"
     transform="translate(-54.998434,-21.455)"><polygon
       display="inline"
       points="686.945,753.327 656.545,731.833 692.096,720.776 703.145,685.222 724.646,715.618 761.875,715.137 739.61,744.98 751.571,780.238 716.31,768.285 686.475,790.556 "
       id="polygon4198"
       style="display:inline;fill:#ffd60d" /><circle
       display="inline"
       cx="703.27399"
       cy="685.22699"
       r="5.0180001"
       id="circle4200"
       style="display:inline;fill:#ffd60d" /><circle
       display="inline"
       cx="761.64398"
       cy="715.24597"
       r="5.0180001"
       id="circle4202"
       style="display:inline;fill:#ffd60d" /><circle
       display="inline"
       cx="751.638"
       cy="780.28802"
       r="5.0190001"
       id="circle4204"
       style="display:inline;fill:#ffd60d" /><circle
       display="inline"
       cx="686.59698"
       cy="790.29303"
       r="5.0190001"
       id="circle4206"
       style="display:inline;fill:#ffd60d" /><circle
       display="inline"
       cx="656.578"
       cy="731.92297"
       r="5.0180001"
       id="circle4208"
       style="display:inline;fill:#ffd60d" /></g></svg>