<?xml version="1.0" encoding="UTF-8" standalone="no"?>
<!-- Generator: Adobe Illustrator 16.0.4, SVG Export Plug-In . SVG Version: 6.00 Build 0)  -->

<svg
   xmlns:dc="http://purl.org/dc/elements/1.1/"
   xmlns:cc="http://creativecommons.org/ns#"
   xmlns:rdf="http://www.w3.org/1999/02/22-rdf-syntax-ns#"
   xmlns:svg="http://www.w3.org/2000/svg"
   xmlns="http://www.w3.org/2000/svg"
   xmlns:sodipodi="http://sodipodi.sourceforge.net/DTD/sodipodi-0.dtd"
   xmlns:inkscape="http://www.inkscape.org/namespaces/inkscape"
   version="1.1"
   id="squid"
   x="0px"
   y="0px"
   width="1030.1404"
   height="1174.5131"
   viewBox="0 0 1030.1403 1174.513"
   enable-background="new 0 0 1123.404 1219.571"
   xml:space="preserve"
   inkscape:version="0.91 r13725"
   sodipodi:docname="logo.svg"><metadata
     id="metadata4214"><rdf:RDF><cc:Work
         rdf:about=""><dc:format>image/svg+xml</dc:format><dc:type
           rdf:resource="http://purl.org/dc/dcmitype/StillImage" /><dc:title></dc:title></cc:Work></rdf:RDF></metadata><defs
     id="defs4212" /><sodipodi:namedview
     pagecolor="#ffffff"
     bordercolor="#666666"
     borderopacity="1"
     objecttolerance="10"
     gridtolerance="10"
     guidetolerance="10"
     inkscape:pageopacity="0"
     inkscape:pageshadow="2"
     inkscape:window-width="1768"
     inkscape:window-height="1149"
     id="namedview4210"
     showgrid="false"
     fit-margin-top="0"
     fit-margin-left="0"
     fit-margin-right="0"
     fit-margin-bottom="0"
     inkscape:zoom="1.0077314"
     inkscape:cx="506.70359"
     inkscape:cy="586.18249"
     inkscape:window-x="0"
     inkscape:window-y="0"
     inkscape:window-maximized="0"
     inkscape:current-layer="squid" /><g
     id="tentacles"
     transform="translate(-54.998434,-21.455)"><path
       d="m 485.093,751.076 c 8.667,57.334 54.667,213.261 -79.333,230.964 -134,17.703 -152.667,-115.483 -152.667,-115.483 0,0 -4.3,-15.654 7.551,-18.092 12.032,-2.475 13.36,13.088 13.36,13.088 0,0 10.362,110.03 126.059,98.443 115.697,-11.587 53.554,-194.903 53.554,-194.903 l 31.476,-14.017 z"
       id="path4138"
       inkscape:connector-curvature="0"
       style="fill:#14a5c6" /><path
       d="m 540.617,795.076 c 14.333,59.332 27.142,140.595 27.809,186.964 0.667,46.369 -0.389,113.702 -62.667,113.702 -58,0 -60.331,-54.703 -60,-61.333 1.93,-38.654 34.258,-54.839 34.258,-54.839 0,0 14.159,-8.063 19.409,2.47 5.333,10.702 -10.154,18.035 -10.154,18.035 0,0 -21.408,10.995 -20.765,34.333 0.551,20 8.155,34.833 30.444,36.377 24.751,1.715 37.476,-8.377 41.667,-41.709 6.119,-48.664 -5.667,-126.667 -32.584,-206.667 21.058,-42 32.583,-27.333 32.583,-27.333 z"
       id="path4140"
       inkscape:connector-curvature="0"
       style="fill:#22b4d6" /><path
       d="m 617.169,805.74 c 14.591,53.336 20.591,100.999 10.065,160.706 -9.351,53.045 -14.695,109.074 11.191,134.627 25.75,25.418 37.333,30 37.333,30 0,0 11.94,6.975 7.667,18.168 -5.25,13.75 -19,7.832 -19,7.832 0,0 -73.333,-36.665 -73.333,-113.332 0,-65.541 9.59,-82.708 7.333,-123.333 -2,-36 -6.373,-73.063 -18.651,-92.637 24.389,-20.906 37.395,-22.031 37.395,-22.031 z"
       id="path4142"
       inkscape:connector-curvature="0"
       style="fill:#22b4d6" /><path
       d="m 440.426,755.075 c 3.459,71.532 1.333,191.264 -5.333,226.965 -6.666,35.701 -31.333,118.367 -13.333,156.368 17.001,35.893 69.875,36.05 87.242,16 14.282,-16.488 21.807,-28 31.616,-22 9.809,6 1.333,21.333 -5.524,30.666 -6.857,9.333 -30.188,42.842 -85.333,30 -48.667,-11.333 -57.425,-54.049 -59.333,-77.333 -3.333,-40.667 10.737,-100.476 14.667,-121.333 8.667,-46.001 12.667,-145.999 1.333,-211.333 19.998,-38 33.998,-28 33.998,-28 z"
       id="path4144"
       inkscape:connector-curvature="0"
       style="fill:#22b4d6" /><path
       d="m 710.373,873.742 c -6.97,19.165 -25.434,54.896 -28.613,91.332 -4.334,49.666 3.768,93.477 50.959,95.173 44.935,1.615 47.957,-22.006 49.707,-42.506 0.565,-6.626 1.5,-15.5 10.12,-15.33 10.181,0.201 9.88,16.33 9.88,16.33 0,0 4.189,65.407 -65.707,65.408 -82.791,0 -84.293,-82.264 -82.293,-121.908 2,-39.644 10.812,-109.077 10.812,-109.077 l 45.135,20.578 z"
       id="path4146"
       inkscape:connector-curvature="0"
       style="fill:#14a5c6" /><path
       d="m 411.672,726.767 c -9.023,22.265 -24.632,18.487 -43.246,78.973 -18,58.491 14,126.001 7.594,188.788 -6.16,60.376 -47.687,101.214 -123.687,101.214 -94.907,0 -131.907,-75.591 -131.907,-129.296 0,-53.705 19,-88.08 28,-104.893 9,-16.813 39,-68.523 41,-107.668 2,-39.145 -3,-78.748 -13,-112.446 28.399,-13.748 33,-7.125 33,-7.125 0,0 5.191,53.459 7,88.427 3,58 -22,116.002 -39,151.001 -17,34.999 -24.773,65.422 -23.887,92.704 1.8,55.415 35.887,92.295 98.794,95.295 48.049,2.291 86.455,-33.852 89.391,-67.213 5.702,-64.787 -22.155,-81.781 -18.298,-176.102 3,-73.353 21.561,-64.818 26,-91.686 4.439,-26.868 62.246,0.027 62.246,0.027 z"
       id="path4148"
       inkscape:connector-curvature="0"
       style="fill:#22b4d6" /><path
       d="m 1009.76,779.742 c -0.667,-16 0,-129.001 -100.001,-117.334 -94.178,10.987 -70,128 -70,128 0,0 4.416,44.964 9,77.334 11.385,80.398 -87.666,83.333 -96.333,16.667 -7.743,-59.562 -6,-102.001 -6,-102.001 l -58,14.667 c 0,0 14.531,77.307 29.333,118.678 29.334,81.989 178.254,78.747 164,-46.011 -7.321,-64.08 -10.666,-88 -10.666,-88 0,0 -16.361,-81.061 42.667,-92.75 58.894,-11.663 66,52.75 71.333,90.083 13.333,16 24.667,0.667 24.667,0.667 z"
       id="path4150"
       inkscape:connector-curvature="0"
       style="fill:#22b4d6" /></g><g
     id="left"
     transform="translate(-54.998434,-21.455)"><path
       d="m 212.68,674.281 c 24.412,-39.967 10.988,-114.073 -19.532,-154.359 -30.52,-40.285 -92.78,-56.156 -130.624,-54.935 -13.661,0.941 -5.493,9.461 -0.61,13.123 4.883,3.662 42.422,36.013 38.455,82.098 -1.914,22.226 -2.972,46.615 7.02,71.11 9.461,23.196 45.475,47.306 84.54,52.188 11.262,-22.57 20.751,-9.225 20.751,-9.225 z"
       id="path4153"
       inkscape:connector-curvature="0"
       style="fill:#22b4d6" /><path
       d="m 68.522,466.946 c -2.053,-0.028 -4.065,-0.022 -5.999,0.041 -12.098,0.754 -5.493,7.461 -0.61,11.123 4.883,3.662 41.422,36.013 37.455,82.098 -1.914,22.226 -2.972,46.615 7.02,71.11 8.697,21.322 42.747,44.84 79.648,51.938 4.904,-1.611 7.631,-2.747 11.76,-8.568 4.129,-5.821 6.145,-29.915 6.629,-34.279 1,-9 4.5,-76.667 -50,-129.667 -25.818,-25.109 -61.373,-41.74 -85.903,-43.796 z"
       id="path4155"
       inkscape:connector-curvature="0"
       style="fill:#f4efb8" /><path
       d="m 202.444,602.974 c -4.458,-26.253 -16.6,-61.68 -48.019,-92.233 -25.818,-25.107 -61.374,-41.738 -85.903,-43.794 -2.053,-0.028 -4.067,-0.056 -5.999,0.041 -11.348,0.566 -6.859,6.754 -0.61,11.123 3.551,2.482 22.61,19.716 32.461,45.873 32.826,8.73 72.707,28.872 108.07,78.99 z"
       id="path4157"
       inkscape:connector-curvature="0"
       style="fill:#eae1a0" /></g><g
     id="right"
     transform="translate(-54.998434,-21.455)"><path
       d="m 1005.566,743.235 c 43.834,16.49 78.841,83.173 79.563,133.709 0.723,50.535 -38.599,101.35 -69.186,123.669 -11.712,6.817 -10.149,-4.08 -8.554,-9.971 1.598,-5.893 11.289,-54.489 -20.19,-88.381 -15.181,-16.345 -31.02,-34.923 -38.213,-60.38 -6.811,-24.108 6.749,-65.271 34.543,-93.153 22.766,10.864 22.037,-5.493 22.037,-5.493 z"
       id="path4160"
       inkscape:connector-curvature="0"
       style="fill:#22b4d6" /><path
       d="m 1006.561,994.489 c 17.64,-33.712 6.248,-66.812 0.084,-79.812 -9.995,-21.079 -39.939,-54.743 -44.29,-77.908 -4.808,-25.605 -3.421,-48.455 11.475,-77.072 -21.15,26.895 -30.805,61.077 -24.842,82.186 7.193,25.457 23.032,44.035 38.213,60.38 31.479,33.892 21.788,82.488 20.19,88.381 -0.311,1.147 -0.62,2.484 -0.83,3.845 z"
       id="path4162"
       inkscape:connector-curvature="0"
       style="fill:#eae1a0" /></g><g
     id="wings"
     transform="translate(-54.998434,-21.455)"><g
       id="right_1_"><path
         d="m 409.127,301.917 c -5.723,12.503 -1.195,29.194 10.06,37.092 l 231.584,162.503 c 11.256,7.897 23.745,3.598 27.754,-9.555 l 81.731,-268.149 c 4.009,-13.153 -2.257,-29.867 -13.925,-37.142 L 546.245,61.901 c -11.667,-7.275 -25.896,-2.999 -31.618,9.504 l -105.5,230.512 z"
         id="path4166"
         inkscape:connector-curvature="0"
         style="fill:#a3eaf1" /></g><g
       id="left_1_"><path
         d="m 700.143,301.917 c 5.723,12.503 1.195,29.194 -10.061,37.092 L 458.498,501.512 c -11.255,7.897 -23.744,3.598 -27.753,-9.555 L 349.014,223.808 c -4.009,-13.153 2.257,-29.867 13.925,-37.142 L 563.024,61.901 c 11.668,-7.275 25.896,-2.999 31.618,9.504 l 105.501,230.512 z"
         id="path4169"
         inkscape:connector-curvature="0"
         style="fill:#a3eaf1" /></g></g><path
     id="shadow_1_"
     display="none"
     d="m 322.09757,294.49 35.762,117.33 95.847,-21.688 61.464,-321.154 c 0,0 -7.95,-10.729 -34.659,-11.375 l -115.793,72.203 c -17.194,47.173 -31.513,108.035 -42.621,164.684 z"
     inkscape:connector-curvature="0"
     style="display:none;fill:#61d0d6" /><path
     id="body_1_"
     d="m 499.95157,0 c -68.81,0 -251.429,481.522 -251.429,631.428 0,149.906 118.599,178.429 251.429,178.429 134.517,0 251.429,-28.522 251.429,-178.429 C 751.38057,481.521 568.76157,0 499.95157,0 Z"
     inkscape:connector-curvature="0"
     style="fill:#22b4d6" /><path
     id="highlight"
     d="m 499.95157,0 c -68.81,0 -251.429,481.522 -251.429,631.428 0,37.477 7.595,68.18 21.331,93.153 -1.005,-193.066 44.055,-443.833 310.042,-625.54 C 547.76057,38.786 519.61957,0 499.95157,0 Z"
     inkscape:connector-curvature="0"
     style="fill:#14a5c6" /><circle
     id="little_circle_1_"
     display="none"
     cx="499.95157"
     cy="591.349"
     r="101.333"
     style="display:none;fill:none" /><circle
     id="big_circle"
     display="none"
     cx="500.95157"
     cy="588.349"
     r="162.44501"
     style="display:none;fill:none" /><g
     id="shadow"
     transform="translate(-54.998434,-21.455)"><path
       d="m 453.617,765.093 c 0,0 19.45,57.385 16.324,109.97 9.956,3.439 19.607,6.476 28.72,9.166 4.76,-47.082 -8.025,-99.442 -12.977,-129.432 -2.352,-0.268 -4.703,-0.547 -7.055,-0.843 l -25.012,11.139 z"
       id="path4177"
       inkscape:connector-curvature="0"
       style="fill:#137889" /><path
       d="m 364.736,821.657 c 0.874,-5.371 2.078,-10.681 3.689,-15.917 14.03,-45.59 26.352,-54.672 35.434,-65.913 -17.971,-4.562 -35.858,-9.958 -53.577,-16.228 -0.375,0.956 -0.667,1.996 -0.857,3.142 -3.603,21.805 -16.506,20.295 -22.845,58.16 11.085,13.876 24.064,26.05 38.156,36.756 z"
       id="path4179"
       inkscape:connector-curvature="0"
       style="fill:#137889" /><path
       d="m 440.426,755.075 c 0,0 -14,-10 -34,28 3.519,20.284 5.559,43.91 6.44,68.224 9.626,4.842 19.351,9.217 28.994,13.183 0.515,-38.348 0.065,-78.403 -1.434,-109.407 z"
       id="path4181"
       inkscape:connector-curvature="0"
       style="fill:#137889" /><path
       d="m 688.426,797.075 c 0,0 7.03,37.396 16.291,74.088 l -39.479,-17.999 c 0,0 -8.812,69.433 -10.812,109.077 -0.762,15.09 -1.01,36.354 3.533,56.906 7.848,-8.102 15.48,-16.785 22.886,-25.925 -0.3,-8.98 0.069,-18.452 0.915,-28.148 2.794,-32.016 17.386,-63.482 25.614,-83.648 3.315,12.465 6.843,24.426 10.385,34.327 1.85,5.168 4.175,9.997 6.903,14.479 9.755,-16.097 18.888,-32.624 27.342,-49.133 -7.256,-57.816 -5.578,-98.691 -5.578,-98.691 l -58,14.667 z"
       id="path4183"
       inkscape:connector-curvature="0"
       style="fill:#137889" /><path
       d="m 540.617,795.076 c 0,0 -11.524,-14.667 -32.584,27.333 7.983,23.727 14.624,47.27 19.873,69.931 0.506,0.134 1.022,0.271 1.521,0.401 11.609,3.05 22.12,6.737 31.743,11.073 -5.198,-36.559 -12.641,-75.986 -20.553,-108.738 z"
       id="path4185"
       inkscape:connector-curvature="0"
       style="fill:#137889" /><path
       d="m 627.915,962.414 c 9.559,-57.83 3.515,-104.546 -10.746,-156.674 0,0 -13.006,1.125 -37.395,22.031 12.278,19.573 16.651,56.637 18.651,92.637 0.142,2.557 0.237,5.02 0.29,7.408 11.082,9.782 20.627,21.259 29.2,34.598 z"
       id="path4187"
       inkscape:connector-curvature="0"
       style="fill:#137889" /></g><path
     id="shadow_2_"
     display="none"
     d="m 235.42757,677.286 c 15.571,131.32 166.294,174.896 239,194 68.506,18 99.574,57.604 127,128 97.442,-99.312 162.47,-289.062 164,-328 -144.197,81.838 -351.053,91.884 -530,6 z"
     inkscape:connector-curvature="0"
     style="display:none" /><path
     id="bandana_2_"
     d="m 250.85557,665.651 c 15.571,131.32 149.47,142.162 223.124,157.206 68.954,14.084 120.689,40.367 148.115,110.763 97.442,-99.312 126.12,-234.358 127.65,-273.297 -144.196,81.838 -319.942,91.213 -498.889,5.328 z"
     inkscape:connector-curvature="0"
     style="fill:#e54a4a" /><path
     id="shading"
     d="m 654.05057,706.659 c -36.596,40.518 -90.099,84.126 -168.432,118.738 63.141,14.691 110.617,41.847 136.476,108.223 97.442,-99.312 126.12,-234.358 127.65,-273.297 -34.886,19.799 -53.968,35.343 -95.694,46.336 z"
     inkscape:connector-curvature="0"
     style="fill:#d84141" /><g
     id="eye"
     transform="translate(-54.998434,-21.455)"><path
       d="m 463.675,568.741 c 0,0 -10.058,19.667 -10.058,44.063 0,55.965 45.369,101.333 101.333,101.333 55.965,0 101.333,-45.368 101.333,-101.333 0,-29.958 -10.058,-44.063 -10.058,-44.063 -50.465,22.334 -132.466,21.667 -182.55,0 z"
       id="path4193"
       inkscape:connector-curvature="0"
       style="fill:#fbffeb" /><path
       d="m 553.263,585.221 c -11.869,-0.092 -23.715,-0.879 -35.173,-2.375 -6.874,10.42 -11.323,27.053 -11.323,45.793 0,31.559 12.619,57.143 28.184,57.143 15.565,0 28.185,-25.584 28.185,-57.143 -10e-4,-17.381 -3.834,-32.937 -9.873,-43.418 z"
       id="path4195"
       inkscape:connector-curvature="0"
       style="fill:#135462" /></g><g
     id="star"
     display="none"
     style="display:none"
     transform="translate(-54.998434,-21.455)"><polygon
       display="inline"
       points="686.945,753.327 656.545,731.833 692.096,720.776 703.145,685.222 724.646,715.618 761.875,715.137 739.61,744.98 751.571,780.238 716.31,768.285 686.475,790.556 "
       id="polygon4198"
       style="display:inline;fill:#ffd60d" /><circle
       display="inline"
       cx="703.27399"
       cy="685.22699"
       r="5.0180001"
       id="circle4200"
       style="display:inline;fill:#ffd60d" /><circle
       display="inline"
       cx="761.64398"
       cy="715.24597"
       r="5.0180001"
       id="circle4202"
       style="display:inline;fill:#ffd60d" /><circle
       display="inline"
       cx="751.638"
       cy="780.28802"
       r="5.0190001"
       id="circle4204"
       style="display:inline;fill:#ffd60d" /><circle
       display="inline"
       cx="686.59698"
       cy="790.29303"
       r="5.0190001"
       id="circle4206"
       style="display:inline;fill:#ffd60d" /><circle
       display="inline"
       cx="656.578"
       cy="731.92297"
       r="5.0180001"
       id="circle4208"
       style="display:inline;fill:#ffd60d" /></g></svg>