<?xml version="1.0" encoding="UTF-8" standalone="no"?>
<!-- Generator: Adobe Illustrator 16.0.4, SVG Export Plug-In . SVG Version: 6.00 Build 0)  -->

<svg
   xmlns:dc="http://purl.org/dc/elements/1.1/"
   xmlns:cc="http://creativecommons.org/ns#"
   xmlns:rdf="http://www.w3.org/1999/02/22-rdf-syntax-ns#"
   xmlns:svg="http://www.w3.org/2000/svg"
   xmlns="http://www.w3.org/2000/svg"
   xmlns:sodipodi="http://sodipodi.sourceforge.net/DTD/sodipodi-0.dtd"
   xmlns:inkscape="http://www.inkscape.org/namespaces/inkscape"
   version="1.1"
   id="squid"
   x="0px"
   y="0px"
   width="257.32675mm"
   height="330.65244mm"
   viewBox="0 0 911.78771 1171.6031"
   enable-background="new 0 0 738.37 1059.259"
   xml:space="preserve"
   inkscape:version="0.91 r13725"
   sodipodi:docname="logo.svg"><metadata
     id="metadata3581"><rdf:RDF><cc:Work
         rdf:about=""><dc:format>image/svg+xml</dc:format><dc:type
           rdf:resource="http://purl.org/dc/dcmitype/StillImage" /><dc:title></dc:title></cc:Work></rdf:RDF></metadata><defs
     id="defs3579"><inkscape:path-effect
       effect="skeletal"
       id="path-effect4469"
       is_visible="true"
       pattern="m 103.45903,-104.21524 c 0,-2.76 2.24,-5 5,-5 2.76,0 5,2.24 5,5 0,2.76 -2.24,5.000003 -5,5.000003 -2.76,0 -5,-2.240003 -5,-5.000003 z"
       copytype="single_stretched"
       prop_scale="1"
       scale_y_rel="false"
       spacing="0"
       normal_offset="0"
       tang_offset="0"
       prop_units="false"
       vertical_pattern="false"
       fuse_tolerance="0" /><inkscape:path-effect
       effect="skeletal"
       id="path-effect4461"
       is_visible="true"
       pattern="m -3.8034862,-90.772904 c 0,-2.76 2.24,-5 5,-5 2.76,0 5,2.24 5,5 0,2.76 -2.24,5 -5,5 -2.76,0 -5,-2.24 -5,-5 z"
       copytype="single_stretched"
       prop_scale="2"
       scale_y_rel="false"
       spacing="0"
       normal_offset="0"
       tang_offset="0"
       prop_units="false"
       vertical_pattern="false"
       fuse_tolerance="0" /><inkscape:path-effect
       effect="skeletal"
       id="path-effect4453"
       is_visible="true"
       pattern="m 54.703339,-80.146198 c 0,-2.76 2.24,-5 5,-5 2.76,0 5,2.24 5,5 0,2.76 -2.24,5 -5,5 -2.76,0 -5,-2.24 -5,-5 z"
       copytype="single_stretched"
       prop_scale="1"
       scale_y_rel="false"
       spacing="0"
       normal_offset="0"
       tang_offset="0"
       prop_units="false"
       vertical_pattern="false"
       fuse_tolerance="0" /><inkscape:path-effect
       effect="skeletal"
       id="path-effect4449"
       is_visible="true"
       pattern="m 83.956751,-95.897335 c 0,-2.76 2.24,-5.000005 5,-5.000005 2.76,0 5,2.240005 5,5.000005 0,2.76 -2.24,5 -5,5 -2.76,0 -5,-2.24 -5,-5 z"
       copytype="single_stretched"
       prop_scale="2"
       scale_y_rel="false"
       spacing="0"
       normal_offset="0"
       tang_offset="0"
       prop_units="false"
       vertical_pattern="false"
       fuse_tolerance="0" /><inkscape:path-effect
       effect="skeletal"
       id="path-effect4445"
       is_visible="true"
       pattern="m 103.45903,-126.90188 c 0,-2.76 2.24,-5 5,-5 2.76,0 5,2.24 5,5 0,2.76 -2.24,5 -5,5 -2.76,0 -5,-2.24 -5,-5 z"
       copytype="single_stretched"
       prop_scale="2"
       scale_y_rel="false"
       spacing="0"
       normal_offset="0"
       tang_offset="0"
       prop_units="false"
       vertical_pattern="false"
       fuse_tolerance="0" /><inkscape:path-effect
       effect="skeletal"
       id="path-effect4433"
       is_visible="true"
       pattern="m 59.578908,-33.519491 c 0,-2.76 2.24,-5 5,-5 2.76,0 5,2.24 5,5 0,2.76 -2.24,5 -5,5 -2.76,0 -5,-2.24 -5,-5 z"
       copytype="single_stretched"
       prop_scale="2"
       scale_y_rel="false"
       spacing="0"
       normal_offset="0"
       tang_offset="0"
       prop_units="false"
       vertical_pattern="false"
       fuse_tolerance="0" /><inkscape:path-effect
       effect="skeletal"
       id="path-effect4429"
       is_visible="true"
       pattern="m 118.08573,-99.339669 c 0,-2.760001 2.24,-5.000001 5,-5.000001 2.76,0 5,2.24 5,5.000001 0,2.76 -2.24,5 -5,5 -2.76,0 -5,-2.24 -5,-5 z"
       copytype="single_stretched"
       prop_scale="2"
       scale_y_rel="false"
       spacing="0"
       normal_offset="0"
       tang_offset="0"
       prop_units="false"
       vertical_pattern="false"
       fuse_tolerance="0" /><inkscape:path-effect
       effect="skeletal"
       id="path-effect4415"
       is_visible="true"
       pattern="M 0,5 C 0,2.24 2.24,0 5,0 7.76,0 10,2.24 10,5 10,7.76 7.76,10 5,10 2.24,10 0,7.76 0,5 Z"
       copytype="single_stretched"
       prop_scale="1"
       scale_y_rel="false"
       spacing="0"
       normal_offset="0"
       tang_offset="0"
       prop_units="false"
       vertical_pattern="false"
       fuse_tolerance="0" /><inkscape:path-effect
       effect="skeletal"
       id="path-effect4411"
       is_visible="true"
       pattern="M 0,5 C 0,2.24 2.24,0 5,0 7.76,0 10,2.24 10,5 10,7.76 7.76,10 5,10 2.24,10 0,7.76 0,5 Z"
       copytype="single_stretched"
       prop_scale="1"
       scale_y_rel="false"
       spacing="0"
       normal_offset="0"
       tang_offset="0"
       prop_units="false"
       vertical_pattern="false"
       fuse_tolerance="0" /><inkscape:path-effect
       effect="skeletal"
       id="path-effect4407"
       is_visible="true"
       pattern="M 0,5 C 0,2.24 2.24,0 5,0 7.76,0 10,2.24 10,5 10,7.76 7.76,10 5,10 2.24,10 0,7.76 0,5 Z"
       copytype="single_stretched"
       prop_scale="1"
       scale_y_rel="false"
       spacing="0"
       normal_offset="0"
       tang_offset="0"
       prop_units="false"
       vertical_pattern="false"
       fuse_tolerance="0" /><inkscape:path-effect
       effect="skeletal"
       id="path-effect4403"
       is_visible="true"
       pattern="M 0,5 C 0,2.24 2.24,0 5,0 7.76,0 10,2.24 10,5 10,7.76 7.76,10 5,10 2.24,10 0,7.76 0,5 Z"
       copytype="single_stretched"
       prop_scale="1"
       scale_y_rel="false"
       spacing="0"
       normal_offset="0"
       tang_offset="0"
       prop_units="false"
       vertical_pattern="false"
       fuse_tolerance="0" /><inkscape:path-effect
       effect="skeletal"
       id="path-effect4399"
       is_visible="true"
       pattern="M 0,5 C 0,2.24 2.24,0 5,0 7.76,0 10,2.24 10,5 10,7.76 7.76,10 5,10 2.24,10 0,7.76 0,5 Z"
       copytype="single_stretched"
       prop_scale="1"
       scale_y_rel="false"
       spacing="0"
       normal_offset="0"
       tang_offset="0"
       prop_units="false"
       vertical_pattern="false"
       fuse_tolerance="0" /></defs><sodipodi:namedview
     pagecolor="#ffffff"
     bordercolor="#666666"
     borderopacity="1"
     objecttolerance="10"
     gridtolerance="10"
     guidetolerance="10"
     inkscape:pageopacity="0"
     inkscape:pageshadow="2"
     inkscape:window-width="2016"
     inkscape:window-height="1336"
     id="namedview3577"
     showgrid="false"
     showguides="true"
     units="mm"
     showborder="true"
     inkscape:zoom="0.5801225"
     inkscape:cx="588.85382"
     inkscape:cy="556.78763"
     inkscape:window-x="169"
     inkscape:window-y="14"
     inkscape:window-maximized="0"
     inkscape:current-layer="squid"
     fit-margin-top="0"
     fit-margin-left="0"
     fit-margin-right="0"
     fit-margin-bottom="0"><inkscape:grid
       type="xygrid"
       id="grid4479"
       originx="88.832319"
       originy="133.79909" /></sodipodi:namedview><ellipse
     style="opacity:1;fill:#fbffea;fill-opacity:1;fill-rule:nonzero;stroke:none;stroke-width:1;stroke-linecap:butt;stroke-linejoin:miter;stroke-miterlimit:4;stroke-dasharray:none;stroke-opacity:1"
     id="path4521"
     cx="459.37552"
     cy="595.34613"
     rx="143.82928"
     ry="132.85925" /><path
     style="fill:#22b4d6;fill-opacity:1;fill-rule:evenodd;stroke:none;stroke-width:1;stroke-linecap:butt;stroke-linejoin:miter;stroke-miterlimit:4;stroke-dasharray:none;stroke-opacity:1"
     d="m 349.61218,674.75972 c 1.51737,1.5203 -7.96353,9.34875 -16.2078,29.22976 -3.46834,8.33896 -6.38435,18.37652 -8.02592,30.54334 -1.34519,9.9813 -1.73195,20.73171 -1.22472,32.88701 0.45981,10.90322 1.63144,22.12926 3.35348,34.52051 -0.29926,-2.15028 10.76565,67.53771 11.08064,69.89469 1.4177,10.56848 2.5851,21.83317 2.80344,33.40787 0.2049,9.99203 -0.37353,20.58705 -2.63299,31.27654 -3.30455,15.60106 -8.17061,31.87962 -15.86706,47.47917 -5.5569,11.30916 -12.93983,22.43899 -22.74105,31.93479 -7.76816,7.4966 -17.15423,13.7069 -27.76857,17.705 -9.46715,3.5133 -19.5814,5.1353 -29.70385,4.8804 -9.77631,-0.2534 -19.41526,-2.1116 -28.58252,-5.2546 -7.84707,-2.6799 -15.38723,-6.2459 -22.48846,-10.5741 -0.99546,-0.6068 -1.98058,-1.2274 -2.95504,-1.8615 -7.53201,-4.8849 -14.5084,-10.6184 -20.68204,-17.1492 -5.52337,-5.79603 -10.46645,-12.43405 -14.22262,-19.9742 -8.88354,-18.06849 -15.73571,-36.64348 -20.74636,-55.22589 -4.82548,-17.9173 -7.97042,-35.81424 -10.02035,-53.1373 -2.05386,-17.35097 -3.09809,-34.56157 -3.82089,-50.70303 -0.81265,-18.05239 -1.14841,-31.65927 -2.08856,-48.16736 -0.93972,-16.39948 -2.27217,-31.29059 -4.63602,-45.69167 -2.6424,-16.08773 -6.39395,-30.4827 -11.28915,-43.53155 0,0 -1e-5,-2e-5 -1e-5,-2e-5 -6.281203,-16.77956 -14.291312,-30.87198 -22.09397,-42.177 -20.449908,-29.66139 -38.001597,-41.26372 -36.098094,-43.62714 0.25859,-0.32107 19.99448,8.5211 43.841374,37.8078 9.119848,11.21235 18.57051,25.5915 26.22838,43.17879 -1e-5,0 1e-5,2e-5 1e-5,2e-5 5.9351,13.65436 10.65663,28.818 14.07991,45.64589 3.05876,15.02618 4.99973,30.51037 6.44357,47.2082 1.41792,16.33209 2.19016,30.97447 3.36535,48.35553 1.08089,15.92941 2.42128,32.73621 4.67118,49.34378 2.24776,16.58662 5.45421,33.56222 10.17367,50.3341 4.888,17.39219 11.43636,34.74313 19.81344,51.57089 2.60282,5.31601 6.43734,10.30815 10.90214,15.07105 5.00646,5.2881 10.77957,9.99987 17.07399,14.09681 0.81453,0.5281 1.63679,1.0449 2.46645,1.5499 5.9184,3.6029 12.14109,6.5637 18.5441,8.7556 7.46656,2.5436 15.11565,4.0805 22.63632,4.2758 7.72066,0.2082 15.3779,-0.9421 22.34653,-3.5052 7.82968,-2.8209 15.03616,-7.5512 21.18014,-13.3028 7.87617,-7.33806 14.10543,-16.6339 19.17271,-26.40057 6.99711,-13.54901 11.63711,-28.33519 15.07855,-42.88949 2.09383,-8.77045 2.7565,-18.03445 2.83338,-27.17985 0.07,-10.58732 -0.76902,-21.26703 -1.83449,-31.5462 -4.19651,-40.28528 -5.0421,-33.06666 -8.60213,-70.2175 -1.22449,-12.75602 -1.86945,-24.54762 -1.73834,-35.9931 0.1408,-12.76766 1.29727,-24.26058 3.48514,-34.83532 2.67026,-12.92006 6.81852,-23.54945 11.46215,-32.06544 11.1581,-20.4199 22.74951,-26.22921 23.03496,-25.94321 z"
     id="path4427"
     inkscape:path-effect="#path-effect4429"
     inkscape:original-d="m 349.61218,674.75972 c -67.70526,67.57467 -3.5108,187.1922 -19.74727,259.77017 C 297.66432,1078.4684 185.98958,1026.4656 162.65884,979.29722 91.151345,834.72873 174.46831,707.36613 42.953695,601.44424"
     inkscape:connector-curvature="0"
     sodipodi:nodetypes="cssc" /><path
     style="fill:#22b4d6;fill-opacity:1;fill-rule:evenodd;stroke:none;stroke-width:1;stroke-linecap:butt;stroke-linejoin:miter;stroke-miterlimit:4;stroke-dasharray:none;stroke-opacity:1"
     d="m 649.07754,758.58255 c 1.87075,1.19419 -4.43879,10.34597 -6.86975,29.07461 -1.03052,7.92499 -1.23939,17.34092 0.38588,27.91419 0,0 0,2e-5 0,2e-5 2.28008,14.46629 7.98713,32.08637 20.16074,45.9583 4.38442,4.95582 9.53642,9.50943 15.34986,12.13875 4.82954,2.19979 10.3642,3.30461 15.35408,2.38192 5.6007,-0.75963 11.21276,-4.17135 16.3996,-8.73342 7.23209,-6.47077 12.80491,-15.34515 17.98646,-25.42265 6.74497,-13.42307 11.79175,-28.23358 14.23737,-43.79265 0.70401,-4.39571 1.19811,-8.87042 1.51662,-13.4214 0.61151,-8.73745 0.56284,-17.57866 0.17367,-26.32268 -0.70968,-15.50437 -1.76396,-21.97667 -2.3958,-37.73269 -0.55465,-12.31518 -0.0961,-24.70642 2.89158,-36.96123 3.3258,-13.34385 9.54205,-25.34062 17.61971,-35.17435 4.07796,-5.02031 8.87111,-9.5197 14.41024,-13.1079 5.30963,-3.48219 11.47127,-5.78524 18.02349,-6.40832 7.2863,-0.5303 14.09706,1.26808 19.71314,4.43193 7.84756,4.50501 13.5406,10.7389 17.68447,16.6685 7.17666,10.10203 11.79072,20.84723 14.95765,29.5845 10.17611,27.91218 10.35837,45.19652 9.21746,45.49005 -2.7396,0.70484 -6.65093,-15.74041 -19.24995,-41.21187 -3.92439,-7.89876 -9.07273,-17.46655 -15.82283,-25.48455 -3.98782,-4.64871 -8.60503,-9.23127 -13.84732,-11.6025 -3.46988,-1.60828 -7.43894,-2.46108 -11.00822,-1.87586 -3.38765,0.39856 -6.9055,2.07072 -10.32573,4.4123 -3.63547,2.53227 -6.91284,5.98539 -10.00509,10.00627 -6.13467,8.08682 -10.78044,17.90694 -13.16232,28.5954 -2.22497,9.69381 -2.24149,20.22864 -1.65757,31.70749 0.30714,5.47278 2.4729,30.82955 2.83847,37.6745 0.50923,9.32807 0.57967,18.96114 -0.11654,28.72064 -0.36244,5.08081 -0.9285,10.13827 -1.73132,15.16572 -2.89118,17.81547 -8.76538,34.54228 -16.62901,49.54577 -5.79533,11.28229 -13.10444,21.93212 -22.88467,30.54214 -7.2318,6.4465 -16.27778,11.08839 -26.31114,12.54008 -9.28137,1.09575 -18.16281,-0.91664 -25.56033,-4.8197 -8.46266,-4.49638 -15.09938,-10.7813 -20.13229,-17.32176 -13.88476,-17.93967 -18.98412,-38.47315 -19.96308,-54.87454 0,0 0,-10e-6 0,-10e-6 -0.76195,-12.01456 0.68373,-22.5185 3.01606,-31.02568 5.5822,-20.35717 15.03536,-27.70683 15.73641,-27.25932 z"
     id="path4431"
     inkscape:connector-curvature="0"
     inkscape:original-d="m 649.07754,758.58255 c -45.07482,70.61183 35.78047,188.27531 87.43296,87.76525 33.81051,-65.79154 6.44228,-116.65946 16.8597,-160.52238 10.41743,-43.86291 66.8034,-99.51734 102.52381,39.32261"
     inkscape:path-effect="#path-effect4433"
     sodipodi:nodetypes="cssc" /><path
     style="fill:#22b4d6;fill-opacity:1;fill-rule:evenodd;stroke:none;stroke-width:1;stroke-linecap:butt;stroke-linejoin:miter;stroke-miterlimit:4;stroke-dasharray:none;stroke-opacity:1"
     d="m 402.81124,717.70164 c 1.9348,0.0152 3.5679,11.32427 5.27147,30.84243 1.53436,17.57957 3.70772,49.24157 5.27469,80.42584 1.42932,28.34293 2.70373,63.16446 1.29797,98.01394 -0.0364,0.90289 -0.0745,1.80452 -0.11441,2.70492 -1.61284,36.48389 -6.24762,69.13772 -13.47172,98.48493 -15.90464,64.4717 -40.69542,101.6763 -43.10995,100.5743 -4.34329,-1.9823 14.04223,-41.8039 25.98576,-104.3282 5.50869,-28.75679 9.06132,-59.93863 10.61677,-95.60833 0.0382,-0.87772 0.0752,-1.75687 0.11111,-2.63752 1.34457,-33.01357 0.98142,-69.3652 0.9948,-96.76221 0.01,-34.20262 0.53614,-60.06207 1.94867,-80.7704 1.34091,-19.65835 3.29327,-30.95461 5.19484,-30.9397 z"
     id="path4443"
     inkscape:path-effect="#path-effect4445"
     inkscape:original-d="m 402.81124,717.70164 c -1.25458,160.01317 20.84562,267.10065 -44.85195,411.04636"
     inkscape:connector-curvature="0" /><path
     style="fill:#22b4d6;fill-opacity:1;fill-rule:evenodd;stroke:none;stroke-width:1;stroke-linecap:butt;stroke-linejoin:miter;stroke-miterlimit:4;stroke-dasharray:none;stroke-opacity:1"
     d="m 452.84435,765.29903 c 1.88208,0.52345 1.19528,8.14731 0.51321,21.01805 -0.72044,13.59465 -1.20611,30.41258 0.62918,52.89053 1.90668,23.24555 5.42299,43.97639 10.1074,72.6078 -2e-5,-1.3e-4 0.0164,0.10007 0.0164,0.0999 4.61663,28.02926 8.07044,51.15235 9.13482,74.86891 1.06135,23.25534 -0.78279,41.67124 -3.70686,55.19284 -2.84759,13.168 -6.35865,20.1544 -8.07523,19.8111 -1.89992,-0.38 -1.81413,-7.9975 -1.9911,-20.8418 -0.19145,-13.8942 -0.72878,-30.0196 -3.48217,-52.73932 -3.04423,-24.97418 -6.60913,-42.51889 -11.61476,-73.04858 1e-5,5e-5 -0.0166,-0.10045 -0.0166,-0.1004 -4.58821,-27.80724 -7.54835,-51.57112 -7.69832,-75.10266 -0.16075,-23.42346 2.88911,-42.04333 6.69768,-55.34045 3.73624,-13.04457 7.80764,-19.78285 9.48637,-19.31596 z"
     id="path4447"
     inkscape:path-effect="#path-effect4449"
     inkscape:original-d="m 452.84435,765.29903 c -27.64773,99.40826 28.50408,197.06307 8.61887,296.48917"
     inkscape:connector-curvature="0" /><path
     style="fill:#22b4d6;fill-opacity:1;fill-rule:evenodd;stroke:none;stroke-width:1;stroke-linecap:butt;stroke-linejoin:miter;stroke-miterlimit:4;stroke-dasharray:none;stroke-opacity:1"
     d="m 494.26567,813.80252 c 1.8853,0.4503 -3.56325,19.75331 -2.27936,51.85274 0,0 0,10e-6 0,10e-6 0.56171,14.127 2.45288,29.81189 6.32287,47.62315 3.1449,14.47148 7.31489,29.08663 12.44641,45.1513 3.77072,11.79792 7.41111,22.38499 11.55877,34.9085 0.96475,2.91299 1.91512,5.80741 2.85037,8.69848 4.77106,14.7346 8.9022,28.665 11.96256,42.8191 3.24179,14.9654 4.94681,29.0736 4.85409,42.6659 -0.11803,16.3469 -2.99645,30.7391 -7.15034,42.713 -10.23496,29.4056 -25.05274,41.3674 -25.0514,41.3684 -2.01725,-1.4675 10.66386,-14.9455 18.65581,-43.3838 3.26347,-11.5657 5.34375,-25.2144 4.96537,-40.6273 -0.30967,-12.8574 -2.27491,-26.2079 -5.6239,-40.6399 -3.17987,-13.6787 -7.33851,-27.1921 -12.11136,-41.8287 -0.93557,-2.8664 -1.88288,-5.73851 -2.84424,-8.64107 -4.04365,-12.20863 -7.81363,-23.40529 -11.41865,-35.11921 -5.013,-16.27956 -9.00492,-31.39346 -11.82596,-46.31226 -3.47773,-18.38728 -4.7756,-34.75891 -4.55204,-49.31377 0,0 10e-6,-10e-6 10e-6,-10e-6 0.51857,-33.29364 8.56183,-52.09678 9.24099,-51.93456 z"
     id="path4451"
     inkscape:path-effect="#path-effect4453"
     inkscape:original-d="m 494.26567,813.80252 c -34.28966,143.56203 98.85027,243.24448 15.51397,357.80058"
     inkscape:connector-curvature="0" /><path
     style="fill:#22b4d6;fill-opacity:1;fill-rule:evenodd;stroke:none;stroke-width:1;stroke-linecap:butt;stroke-linejoin:miter;stroke-miterlimit:4;stroke-dasharray:none;stroke-opacity:1"
     d="m 516.77622,851.44083 c 0.0927,-0.43928 10.20686,-3.87665 25.29737,6.16556 5.91401,4.00775 11.81318,10.04763 16.40115,18.30319 3.95459,7.10745 6.85497,15.14474 8.90244,24.12485 1.97715,8.5671 3.18707,17.42128 4.02031,26.9529 0,0 0,10e-6 0,10e-6 -0.16773,-1.89767 3.33482,54.3096 3.29413,53.8782 0.73493,7.6508 1.72327,15.33184 3.62678,22.52666 0.75615,2.7729 1.60341,5.483 2.60329,8.0392 1.21998,3.1187 2.64988,5.9642 4.39747,8.4377 4.51826,6.4962 9.59082,12.07 15.38737,15.9914 4.94237,3.3842 10.40186,5.7001 15.85495,6.6444 5.38938,0.9863 11.02195,0.6983 16.29752,-0.4666 5.76993,-1.2707 11.25556,-3.696 16.15795,-6.6599 12.09338,-7.3462 20.43647,-17.8956 25.4015,-27.6786 3.3513,-6.6195 5.19973,-12.876 6.16267,-18.36704 2.25937,-12.80045 -0.0451,-20.34899 1.97315,-21.02175 0.97847,-0.32616 6.95592,6.18223 7.38981,21.63146 0.17905,6.51237 -0.7602,14.31943 -3.73847,22.72253 -4.38054,12.4056 -13.18738,26.3062 -27.87751,36.7397 -5.99339,4.2694 -13.04176,7.8886 -20.98157,10.1337 -7.33625,2.0693 -15.41482,2.8203 -23.6832,1.6931 -8.39082,-1.1982 -16.55904,-4.2961 -23.84772,-9.0973 -8.34682,-5.5438 -15.32242,-12.7768 -20.91815,-20.9193 -2.69409,-3.9553 -4.85323,-8.1199 -6.5711,-12.3813 -1.40887,-3.4949 -2.50222,-7.0085 -3.34926,-10.458 -2.23741,-8.87713 -3.29631,-17.64974 -3.87717,-25.8875 -1.24688,-17.28779 -0.8424,-40.83953 -1.24625,-54.45336 0,0 0,-2e-5 0,-2e-5 -0.2826,-9.17408 -0.77686,-17.26275 -1.90812,-25.06907 -1.20775,-8.16382 -2.84001,-15.04841 -5.39283,-21.20435 -2.90216,-7.00965 -6.63838,-12.38688 -10.70694,-16.38551 -10.3823,-10.41988 -19.68047,-11.03859 -19.06957,-13.93496 z"
     id="path4459"
     inkscape:path-effect="#path-effect4461"
     inkscape:original-d="m 516.77622,851.44083 c 72.63781,15.32069 29.51647,129.49948 60.33209,174.10117 44.75628,64.7791 124.26632,-0.7699 105.44596,-57.23099"
     inkscape:connector-curvature="0"
     sodipodi:nodetypes="csc" /><path
     style="fill:#22b4d6;fill-opacity:1;fill-rule:evenodd;stroke:none;stroke-width:1;stroke-linecap:butt;stroke-linejoin:miter;stroke-miterlimit:4;stroke-dasharray:none;stroke-opacity:1"
     d="m 379.13092,746.63848 c -0.58237,0.13833 12.15543,22.6613 6.25492,63.48946 0,-10e-6 0,1e-5 0,1e-5 -2.33642,16.0949 -8.01853,34.45572 -19.08837,52.12623 -8.49414,13.55378 -20.04106,26.51393 -34.63396,37.04025 -10.48443,7.57578 -22.55649,13.87168 -35.78156,17.73837 -2.10124,0.61436 -4.21586,1.16271 -6.34168,1.64328 -14.0828,3.21142 -28.58233,3.16812 -41.88989,-0.8781 -6.6268,-2.03712 -12.80093,-5.09135 -18.25009,-8.99755 -5.90991,-4.25006 -10.85603,-9.43053 -14.7714,-15.04984 -4.65732,-6.69916 -7.89573,-13.94059 -10.07126,-21.03756 -2.8472,-9.28396 -4.05631,-18.52019 -4.41053,-26.94262 0,0 0,-2e-5 0,-2e-5 -0.91108,-21.98193 3.34986,-41.51982 6.49897,-53.01546 3.3568,-12.2538 6.28568,-18.71371 6.90984,-18.53607 0.83511,0.23768 -0.68402,7.10441 -2.73455,19.45381 -1.89405,11.40699 -4.84748,31.03212 -3.07334,51.61739 1e-5,0 1e-5,10e-6 1e-5,10e-6 0.67896,7.92916 2.09584,16.48008 4.94012,24.79321 2.17122,6.34233 5.1991,12.7033 9.36179,18.37729 3.47969,4.75482 7.79053,9.10589 12.82635,12.59108 4.63684,3.22149 9.92528,5.73624 15.59468,7.41648 11.39837,3.42284 24.17554,3.28614 36.8699,0.45747 1.92052,-0.43216 3.83447,-0.92711 5.73996,-1.48305 11.98632,-3.49706 23.09555,-9.24648 32.8723,-16.14278 13.58025,-9.5971 24.51963,-21.47825 32.73569,-33.93393 10.70156,-16.21668 16.64721,-33.30112 19.57389,-48.43829 0,0 0,-10e-6 0,-10e-6 7.45035,-38.39896 -2.32727,-61.53002 0.86821,-62.28906 z"
     id="path4467"
     inkscape:path-effect="#path-effect4469"
     inkscape:original-d="M 379.13092,746.63848 C 422.49764,929.20749 149.11493,1000.6423 213.55591,774.21886"
     inkscape:connector-curvature="0" /><path
     style="opacity:1;fill:#22b4d6;fill-opacity:1;fill-rule:nonzero;stroke:none;stroke-width:1000;stroke-linecap:butt;stroke-linejoin:miter;stroke-miterlimit:4;stroke-dasharray:none;stroke-opacity:1"
     d="m 106.44381,599.37747 c 63.68359,81.83561 -13.801705,44.30924 -18.915352,47.45276 -6.887451,4.23396 -8.582001,89.00507 -51.8498,-3.95103 -14.425192,-30.99092 -21.212182,-97.64119 -11.751305,-103.45711 11.438032,-7.03135 61.793489,33.32565 82.516457,59.95538 z"
     id="path4485"
     inkscape:connector-curvature="0"
     sodipodi:nodetypes="sssss"
     inkscape:transform-center-x="4.5489218"
     inkscape:transform-center-y="-13.009011" /><g
     id="wings_1_"
     transform="translate(88.83232,-21.455001)"><g
       id="right_1_"><path
         d="m 248.566,301.502 c -5.196,12.73 0.969,27.397 13.7,32.593 l 226.221,92.329 c 12.73,5.196 27.397,-0.969 32.594,-13.7 l 77.416,-189.685 c 5.195,-12.73 -0.97,-27.397 -13.7,-32.593 L 358.575,98.12 c -12.73,-5.196 -27.397,0.969 -32.593,13.7 l -77.416,189.682 z"
         id="path3522"
         inkscape:connector-curvature="0"
         style="fill:#a0eaf2" /></g><g
       id="left_1_"><path
         d="m 481.498,301.503 c 5.195,12.73 -0.97,27.397 -13.7,32.593 l -226.221,92.329 c -12.73,5.196 -27.397,-0.969 -32.593,-13.7 L 131.568,223.04 c -5.196,-12.73 0.969,-27.397 13.7,-32.593 L 371.489,98.12 c 12.73,-5.196 27.397,0.969 32.593,13.7 l 77.416,189.683 z"
         id="path3525"
         inkscape:connector-curvature="0"
         style="fill:#a0eaf2" /></g></g><g
     id="fingers"
     display="none"
     style="display:none"
     transform="translate(88.83232,-21.455001)"><g
       display="inline"
       id="g3528"
       style="display:inline"><path
         d="m 203.823,609.804 c 0,-11.462 0,-11.462 0,-11.462 2,-12.086 1.309,-23.673 -1.361,-25.748 -2.669,-2.075 -24.168,21.094 -47.8,51.488 L 42.957,767.762 c -23.632,30.395 -19.337,73.63 9.537,96.08 28.874,22.45 71.836,15.951 95.468,-14.443 l 56.932,-73.22 c 23.632,-30.394 25.85,-81.73 4.976,-114.081 -0.001,0 -6.047,-9.31 -6.047,-52.294 z"
         id="path3530"
         inkscape:connector-curvature="0"
         style="fill:#111a2c" /></g><g
       display="inline"
       id="g3532"
       style="display:inline"><path
         d="m 243.674,709.733 c -16.315,-23.879 -37.996,-13.038 -48.178,24.091 l -46.373,169.088 c -10.183,37.129 10.345,75.422 45.618,85.095 35.272,9.674 72.463,-12.789 82.646,-49.918 L 305.86,834.27 C 316.042,797.14 259.989,733.612 243.674,709.733 Z"
         id="path3534"
         inkscape:connector-curvature="0"
         style="fill:#111a2c" /></g><g
       display="inline"
       id="g3536"
       style="display:inline"><path
         d="m 366.347,772.741 c -24.094,0 -24.094,0 -24.094,0 -23.887,-9 -43.43,16.344 -43.43,54.844 l 0,140.156 c 0,38.5 29.925,70 66.5,70 36.575,0 66.5,-31.5 66.5,-70 l 0,-139.24 c 0,-38.5 -18.98,-63.761 -42.178,-55.761 0,10e-4 0,10e-4 -23.298,10e-4 z"
         id="path3538"
         inkscape:connector-curvature="0"
         style="fill:#111a2c" /></g><g
       display="inline"
       id="g3540"
       style="display:inline"><path
         d="m 536.542,731.188 c -9.212,-37.382 -30.104,-47.799 -46.43,-23.148 -16.326,24.651 -74.246,89.306 -65.035,126.688 l 25.45,103.281 c 9.212,37.382 45.804,60.807 81.316,52.057 35.513,-8.751 57.032,-46.496 47.82,-83.878 l -43.121,-175 z"
         id="path3542"
         inkscape:connector-curvature="0"
         style="fill:#111a2c" /></g><g
       display="inline"
       id="g3544"
       style="display:inline"><path
         d="m 581.353,647.493 c -29.016,-25.305 -52.53,-43.521 -52.53,-40.479 0,0 0,0 0,2.79 0,48.12 -12.463,64.887 -12.463,64.887 -22.949,30.912 -17.994,76.908 11.021,102.213 L 598.2,838.67 c 29.016,25.305 72.423,23.456 96.463,-4.109 24.04,-27.564 19.976,-70.821 -9.04,-96.126 l -104.27,-90.942 z"
         id="path3546"
         inkscape:connector-curvature="0"
         style="fill:#111a2c" /></g></g><path
     id="body_1_"
     d="m 454.17932,0 c -68.81,0 -271.429,481.522 -271.429,631.428 0,149.906 121.522,191.429 271.429,191.429 149.905,0 271.429,-41.522 271.429,-191.429 C 725.60832,481.521 522.98932,0 454.17932,0 Z m 0,692.682 c -55.964,0 -101.333,-45.368 -101.333,-101.333 0,-55.964 45.369,-101.333 101.333,-101.333 55.965,0 101.333,45.369 101.333,101.333 0,55.965 -45.368,101.333 -101.333,101.333 z"
     inkscape:connector-curvature="0"
     style="fill:#22b4d6" /><path
     id="highlight"
     d="m 454.17932,0 c -68.81,0 -271.429,481.522 -271.429,631.428 0,37.477 7.595,68.18 21.331,93.153 -1.005,-193.066 57.573,-443.372 334.042,-625.540002 C 504.44932,39.351 473.84732,0 454.17932,0 Z"
     inkscape:connector-curvature="0"
     style="fill:#26a9bf" /><circle
     id="little_circle_2_"
     display="none"
     cx="454.17929"
     cy="591.349"
     r="101.333"
     style="display:none;fill:none" /><circle
     id="big_circle"
     display="none"
     cx="455.17929"
     cy="588.349"
     r="162.44501"
     style="display:none;fill:none" /><path
     id="shadow_1_"
     display="none"
     d="m 189.65532,677.286 c 15.571,131.32 166.294,174.896 239,194 68.506,18 99.574,57.604 127,128.00003 97.442,-99.31203 162.47,-289.06203 164,-328.00003 -144.197,81.838 -351.053,91.884 -530,6 z"
     inkscape:connector-curvature="0"
     style="display:none" /><path
     id="bandana_2_"
     d="m 185.08332,666.07872 c 15.571,141.86227 169.47,153.57465 243.124,169.82637 68.954,15.21466 120.689,43.60763 148.115,119.65497 97.442,-107.28469 146.12,-253.17207 147.65,-295.23706 -144.196,88.40789 -359.942,98.5355 -538.889,5.75572 z"
     inkscape:connector-curvature="0"
     style="fill:#d34848;fill-opacity:1" /><path
     id="shading"
     d="m 608.27832,710.37881 c -36.596,43.77076 -90.099,90.87957 -168.432,128.27019 63.141,15.87038 110.617,45.20645 136.476,116.91106 97.442,-107.28469 146.12,-253.17207 147.65,-295.23706 -34.886,21.38844 -73.968,38.1803 -115.694,50.05581 z"
     inkscape:connector-curvature="0"
     style="fill:#bd3a3a;fill-opacity:1" /><ellipse
     style="opacity:1;fill:#0f5463;fill-opacity:1;fill-rule:nonzero;stroke:none;stroke-width:1000;stroke-linecap:square;stroke-linejoin:miter;stroke-miterlimit:4;stroke-dasharray:none;stroke-opacity:1"
     id="path4391"
     cx="458.46112"
     cy="621.86584"
     rx="28.786589"
     ry="42.23246" /><ellipse
     style="opacity:1;fill:#22b4d6;fill-opacity:1;fill-rule:nonzero;stroke:none;stroke-width:1000;stroke-linecap:square;stroke-linejoin:miter;stroke-miterlimit:4;stroke-dasharray:none;stroke-opacity:1"
     id="path4425"
     cx="300.11993"
     cy="588.97443"
     rx="178.41473"
     ry="82.856827"
     transform="matrix(0.94245607,-0.33433,0.26988049,0.96289383,0,0)" /><path
     inkscape:transform-center-y="16.746664"
     inkscape:transform-center-x="-2.3657821"
     sodipodi:nodetypes="sssss"
     inkscape:connector-curvature="0"
     id="path4523"
     d="m 817.84454,727.50121 c -53.61134,-88.76086 18.91981,-42.37731 24.36784,-44.89726 7.33782,-3.39408 18.99583,-87.37683 51.02464,10.02488 10.67819,32.47306 9.57512,99.45891 -0.5044,104.12115 -12.18597,5.63655 -57.44267,-40.36553 -74.88808,-69.24877 z"
     style="opacity:1;fill:#22b4d6;fill-opacity:1;fill-rule:nonzero;stroke:none;stroke-width:1000;stroke-linecap:butt;stroke-linejoin:miter;stroke-miterlimit:4;stroke-dasharray:none;stroke-opacity:1" /></svg>