<?xml version="1.0" encoding="UTF-8" standalone="no"?>
<!-- Generator: Adobe Illustrator 16.0.4, SVG Export Plug-In . SVG Version: 6.00 Build 0)  -->

<svg
   xmlns:dc="http://purl.org/dc/elements/1.1/"
   xmlns:cc="http://creativecommons.org/ns#"
   xmlns:rdf="http://www.w3.org/1999/02/22-rdf-syntax-ns#"
   xmlns:svg="http://www.w3.org/2000/svg"
   xmlns="http://www.w3.org/2000/svg"
   xmlns:sodipodi="http://sodipodi.sourceforge.net/DTD/sodipodi-0.dtd"
   xmlns:inkscape="http://www.inkscape.org/namespaces/inkscape"
   version="1.1"
   id="squid"
   x="0px"
   y="0px"
   width="271.52737mm"
   height="330.66141mm"
   viewBox="0 0 962.10488 1171.6349"
   enable-background="new 0 0 738.37 1059.259"
   xml:space="preserve"
   inkscape:version="0.91 r13725"
   sodipodi:docname="logo-g.svg"><metadata
     id="metadata3581"><rdf:RDF><cc:Work
         rdf:about=""><dc:format>image/svg+xml</dc:format><dc:type
           rdf:resource="http://purl.org/dc/dcmitype/StillImage" /><dc:title></dc:title></cc:Work></rdf:RDF></metadata><defs
     id="defs3579"><inkscape:path-effect
       effect="skeletal"
       id="path-effect4562"
       is_visible="true"
       pattern="M 0,0 1,0"
       copytype="single_stretched"
       prop_scale="4"
       scale_y_rel="false"
       spacing="0"
       normal_offset="0"
       tang_offset="0"
       prop_units="false"
       vertical_pattern="false"
       fuse_tolerance="0" /><inkscape:path-effect
       effect="powerstroke"
       id="path-effect4560"
       is_visible="true"
       offset_points="0,0.5"
       sort_points="true"
       interpolator_type="SpiroInterpolator"
       interpolator_beta="0.2"
       start_linecap_type="zerowidth"
       linejoin_type="round"
       miter_limit="4"
       end_linecap_type="zerowidth"
       cusp_linecap_type="round" /><inkscape:path-effect
       effect="skeletal"
       id="path-effect4469"
       is_visible="true"
       pattern="m 128.1762,-104.2153 c 0,-2.76 2.24,-5 5,-5 2.76,0 5,2.24 5,5 0,2.76 -2.24,5.000002 -5,5.000002 -2.76,0 -5,-2.240002 -5,-5.000002 z"
       copytype="single_stretched"
       prop_scale="2"
       scale_y_rel="false"
       spacing="0"
       normal_offset="0"
       tang_offset="0"
       prop_units="false"
       vertical_pattern="false"
       fuse_tolerance="0" /><inkscape:path-effect
       effect="skeletal"
       id="path-effect4461"
       is_visible="true"
       pattern="m 20.91368,-90.772965 c 0,-2.76 2.24,-5 5,-5 2.76,0 5,2.24 5,5 0,2.76 -2.24,5 -5,5 -2.76,0 -5,-2.24 -5,-5 z"
       copytype="single_stretched"
       prop_scale="2"
       scale_y_rel="false"
       spacing="0"
       normal_offset="0"
       tang_offset="0"
       prop_units="false"
       vertical_pattern="false"
       fuse_tolerance="0" /><inkscape:path-effect
       effect="skeletal"
       id="path-effect4453"
       is_visible="true"
       pattern="m 79.420505,-80.146259 c 0,-2.76 2.24,-5 5,-5 2.76,0 5,2.24 5,5 0,2.76 -2.24,5 -5,5 -2.76,0 -5,-2.24 -5,-5 z"
       copytype="single_stretched"
       prop_scale="2"
       scale_y_rel="false"
       spacing="0"
       normal_offset="0"
       tang_offset="0"
       prop_units="false"
       vertical_pattern="false"
       fuse_tolerance="0" /><inkscape:path-effect
       effect="skeletal"
       id="path-effect4449"
       is_visible="true"
       pattern="m 108.67392,-95.897396 c 0,-2.76 2.24,-5.000004 5,-5.000004 2.76,0 5,2.240004 5,5.000004 0,2.76 -2.24,5 -5,5 -2.76,0 -5,-2.24 -5,-5 z"
       copytype="single_stretched"
       prop_scale="2"
       scale_y_rel="false"
       spacing="0"
       normal_offset="0"
       tang_offset="0"
       prop_units="false"
       vertical_pattern="false"
       fuse_tolerance="0" /><inkscape:path-effect
       effect="skeletal"
       id="path-effect4445"
       is_visible="true"
       pattern="m 128.1762,-126.90194 c 0,-2.76 2.24,-5 5,-5 2.76,0 5,2.24 5,5 0,2.76 -2.24,5 -5,5 -2.76,0 -5,-2.24 -5,-5 z"
       copytype="single_stretched"
       prop_scale="2"
       scale_y_rel="false"
       spacing="0"
       normal_offset="0"
       tang_offset="0"
       prop_units="false"
       vertical_pattern="false"
       fuse_tolerance="0" /><inkscape:path-effect
       effect="skeletal"
       id="path-effect4433"
       is_visible="true"
       pattern="m 84.296074,-33.519552 c 0,-2.76 2.24,-5 5,-5 2.76,0 5,2.24 5,5 0,2.76 -2.24,5 -5,5 -2.76,0 -5,-2.24 -5,-5 z"
       copytype="single_stretched"
       prop_scale="3"
       scale_y_rel="false"
       spacing="0"
       normal_offset="0"
       tang_offset="0"
       prop_units="false"
       vertical_pattern="false"
       fuse_tolerance="0" /><inkscape:path-effect
       effect="skeletal"
       id="path-effect4429"
       is_visible="true"
       pattern="m 142.8029,-99.33973 c 0,-2.76 2.24,-5 5,-5 2.76,0 5,2.24 5,5 0,2.76 -2.24,5 -5,5 -2.76,0 -5,-2.24 -5,-5 z"
       copytype="single_stretched"
       prop_scale="3"
       scale_y_rel="false"
       spacing="0"
       normal_offset="0"
       tang_offset="0"
       prop_units="false"
       vertical_pattern="false"
       fuse_tolerance="0" /><inkscape:path-effect
       effect="skeletal"
       id="path-effect4415"
       is_visible="true"
       pattern="M 0,5 C 0,2.24 2.24,0 5,0 7.76,0 10,2.24 10,5 10,7.76 7.76,10 5,10 2.24,10 0,7.76 0,5 Z"
       copytype="single_stretched"
       prop_scale="1"
       scale_y_rel="false"
       spacing="0"
       normal_offset="0"
       tang_offset="0"
       prop_units="false"
       vertical_pattern="false"
       fuse_tolerance="0" /><inkscape:path-effect
       effect="skeletal"
       id="path-effect4411"
       is_visible="true"
       pattern="M 0,5 C 0,2.24 2.24,0 5,0 7.76,0 10,2.24 10,5 10,7.76 7.76,10 5,10 2.24,10 0,7.76 0,5 Z"
       copytype="single_stretched"
       prop_scale="1"
       scale_y_rel="false"
       spacing="0"
       normal_offset="0"
       tang_offset="0"
       prop_units="false"
       vertical_pattern="false"
       fuse_tolerance="0" /><inkscape:path-effect
       effect="skeletal"
       id="path-effect4407"
       is_visible="true"
       pattern="M 0,5 C 0,2.24 2.24,0 5,0 7.76,0 10,2.24 10,5 10,7.76 7.76,10 5,10 2.24,10 0,7.76 0,5 Z"
       copytype="single_stretched"
       prop_scale="1"
       scale_y_rel="false"
       spacing="0"
       normal_offset="0"
       tang_offset="0"
       prop_units="false"
       vertical_pattern="false"
       fuse_tolerance="0" /><inkscape:path-effect
       effect="skeletal"
       id="path-effect4403"
       is_visible="true"
       pattern="M 0,5 C 0,2.24 2.24,0 5,0 7.76,0 10,2.24 10,5 10,7.76 7.76,10 5,10 2.24,10 0,7.76 0,5 Z"
       copytype="single_stretched"
       prop_scale="1"
       scale_y_rel="false"
       spacing="0"
       normal_offset="0"
       tang_offset="0"
       prop_units="false"
       vertical_pattern="false"
       fuse_tolerance="0" /><inkscape:path-effect
       effect="skeletal"
       id="path-effect4399"
       is_visible="true"
       pattern="M 0,5 C 0,2.24 2.24,0 5,0 7.76,0 10,2.24 10,5 10,7.76 7.76,10 5,10 2.24,10 0,7.76 0,5 Z"
       copytype="single_stretched"
       prop_scale="1"
       scale_y_rel="false"
       spacing="0"
       normal_offset="0"
       tang_offset="0"
       prop_units="false"
       vertical_pattern="false"
       fuse_tolerance="0" /></defs><sodipodi:namedview
     pagecolor="#ffffff"
     bordercolor="#666666"
     borderopacity="1"
     objecttolerance="10"
     gridtolerance="10"
     guidetolerance="10"
     inkscape:pageopacity="0"
     inkscape:pageshadow="2"
     inkscape:window-width="2016"
     inkscape:window-height="1336"
     id="namedview3577"
     showgrid="false"
     showguides="true"
     units="mm"
     showborder="true"
     inkscape:zoom="0.9986317"
     inkscape:cx="485.74634"
     inkscape:cy="414.04442"
     inkscape:window-x="552"
     inkscape:window-y="0"
     inkscape:window-maximized="0"
     inkscape:current-layer="squid"
     fit-margin-top="0"
     fit-margin-left="0"
     fit-margin-right="0"
     fit-margin-bottom="0"><inkscape:grid
       type="xygrid"
       id="grid4479"
       originx="113.54949"
       originy="133.83103" /></sodipodi:namedview><path
     style="fill:#bbbbcc;fill-opacity:1;fill-rule:evenodd;stroke:none;stroke-width:1;stroke-linecap:butt;stroke-linejoin:miter;stroke-miterlimit:4;stroke-dasharray:none;stroke-opacity:1"
     d="M 484.0918 462.48633 A 143.82928 132.85925 0 0 0 340.79297 585.58398 C 329.91514 589.36116 311.48752 597.07387 293.85547 611.03516 C 287.08108 616.42085 280.07755 623.15965 273.9375 631.47461 C 269.09822 638.0447 264.82189 645.69008 261.72656 654.29883 C 259.01334 661.89521 257.26355 670.09254 256.63281 678.66797 C 256.4176 681.61761 256.32894 684.59009 256.35547 687.58008 C 240.61568 681.14594 225.07192 673.99585 209.80078 666.07812 C 216.41389 726.32796 247.98295 763.09474 287.75391 786.71094 C 290.70644 792.48979 293.77023 798.30674 296.94727 804.24023 C 305.05617 819.4102 314.6635 836.70098 322.70312 852.6543 C 329.95072 867.09697 336.9866 882.09998 341.72266 897.38672 C 342.93727 901.41847 344.01685 905.47721 344.91602 909.52539 C 342.32733 911.87192 339.62432 914.02315 336.79688 915.91797 C 331.24595 919.66977 325.151 922.55873 318.86719 924.58984 C 313.06631 926.47683 306.94468 927.63998 300.78125 928.36719 C 289.56346 929.63733 278.36957 927.65964 269.39648 922.69336 C 258.83684 917.10219 250.79376 907.18931 245.44141 896.97852 C 237.23842 881.30306 234.61498 863.18633 233.75781 848.22852 C 232.57549 826.6219 235.25858 806.20938 236.83008 794.45312 C 238.53728 781.68163 239.58512 774.59206 238.27344 774.21875 C 237.15426 773.90023 233.74968 780.31364 229.79688 792.88086 C 226.05639 804.77308 221.08336 824.83279 220.52734 848.41602 C 220.10908 864.54408 221.88253 884.69041 230.6582 904.12891 C 236.48031 917.02637 246.24592 929.826 260.48633 938.34961 C 272.87451 945.54042 287.73022 948.76414 302.75391 947.29883 C 309.91269 946.63736 317.29691 945.35369 324.6582 943.12891 C 332.4722 940.75436 340.10579 937.27337 347.2207 932.66797 C 347.16876 933.55531 347.10274 934.43876 347.00977 935.31641 C 345.62745 950.05593 343.0933 964.73954 338.03711 978.17773 C 334.28845 988.02361 329.45875 997.29159 322.89453 1004.4551 C 317.71584 1010.1738 311.41868 1014.9048 304.55273 1017.6523 C 303.22712 1018.2061 301.8624 1018.6949 300.46484 1019.1191 C 295.09759 1020.7479 289.30364 1021.416 283.53125 1021.252 C 275.79369 1021.0428 267.89686 1019.1583 260.31836 1016.2441 C 252.11697 1013.0665 244.35884 1008.5236 237.26172 1003.1289 C 221.71925 991.2494 209.69663 975.32224 202.83398 958.04492 C 189.38547 924.37224 181.75492 889.44597 177.33594 856.6582 C 164.6899 762.60267 179.80444 855.18209 167.32617 764.40234 C 165.19281 748.82725 162.43551 734.29117 158.59766 720.36719 C 155.0136 707.37149 150.54754 695.4892 145.41992 684.67578 C 144.22722 678.26677 142.37365 670.88688 139.60352 662.55469 C 131.73822 638.89692 149.06712 619.87666 135.35938 562.08203 C 123.09055 510.35416 19.131449 479.64574 2.3222656 488.70508 C -11.581316 496.19842 41.999032 495.60343 29.892578 570.39453 C 24.332359 604.74438 40.48282 613.83177 64.255859 627.8418 C 81.281433 637.87539 102.216 650.43829 121.88477 676.60938 C 123.28248 679.44888 124.65236 682.34837 125.95117 685.36133 C 131.09833 697.2677 135.36225 710.53284 138.53906 725.31055 C 141.34228 738.33559 143.17361 751.99851 144.53906 767.00977 C 145.75266 780.40899 149.08521 840.48468 151.07812 859.76953 C 154.64198 894.34815 161.96158 931.6556 175.92188 968.50586 C 184.48134 990.90936 199.37431 1011.2677 219.1543 1026.6191 C 228.17329 1033.6487 238.31105 1039.6311 249.37891 1044.0371 C 259.62446 1048.1378 270.81761 1050.7521 282.50391 1051.209 C 291.36193 1051.5468 300.39813 1050.4603 309.16602 1047.8008 C 311.44868 1047.1084 313.70642 1046.3113 315.93359 1045.4082 C 327.43397 1040.6243 337.36949 1033.2743 345.22656 1024.3906 C 354.8429 1013.4288 361.50954 1000.9385 365.96094 988.41406 C 372.0298 971.50241 374.95073 954.24823 376.17383 937.74805 C 376.90913 926.93568 375.92199 916.50563 373.90234 906.66992 C 377.25012 902.00486 380.27837 897.12832 383.01172 892.08984 C 385.07965 888.27793 386.96128 884.41623 388.67969 880.54102 C 396.51379 862.83331 401.75415 844.49415 405.37109 826.53125 C 410.50519 827.55767 415.51376 828.52444 420.38477 829.45508 C 420.37176 856.84746 420.73454 893.17636 419.39062 926.17383 C 419.35471 927.05449 419.3175 927.93283 419.2793 928.81055 C 417.72385 964.48025 414.1708 995.66316 408.66211 1024.4199 C 396.71858 1086.9442 378.33249 1126.7657 382.67578 1128.748 C 385.09031 1129.85 409.88247 1092.6454 425.78711 1028.1738 C 433.01121 998.82655 437.64497 966.17334 439.25781 929.68945 C 439.29772 928.78905 439.33665 927.88726 439.37305 926.98438 C 440.71578 893.69735 439.60884 860.50141 438.26172 832.88672 C 443.42535 833.89744 448.3312 834.89093 452.92383 835.9043 C 454.42321 836.23513 455.9037 836.58213 457.38672 836.92578 C 457.59542 841.83609 458.01669 846.8701 458.64648 852.06055 C 461.05955 872.0155 466.08497 892.80445 473.75586 914.85352 C 476.9632 924.09813 480.6197 933.47087 484.79492 942.85938 C 486.78798 947.34621 488.91334 951.86932 491.20117 956.37891 C 492.8323 959.59408 494.52774 962.7659 496.30078 965.89062 C 501.24782 974.60867 504.92838 983.71715 507.21289 992.89453 C 509.28095 1001.2184 510.24739 1009.4919 510.0293 1017.4668 C 509.81181 1024.5374 508.82533 1031.1517 506.75781 1037.0957 C 504.93571 1042.013 502.96524 1046.1838 500.11719 1048.8867 C 499.00082 1049.9684 497.95102 1050.8322 496.94922 1051.2715 C 496.07517 1051.686 495.14374 1051.9398 494.34375 1051.9258 C 493.42653 1051.9907 492.25828 1051.6198 491.0625 1051.0703 C 489.44835 1050.3194 487.84238 1048.9294 486.26367 1047.3398 C 480.937 1041.9527 477.30757 1033.9591 474.48438 1027.334 C 464.71522 1003.8928 463.43588 988.27123 460.14453 988.6875 C 458.98417 988.83425 455.97602 1004.7893 463.09961 1031.1875 C 465.06231 1038.7091 468.34107 1048.3207 475.05469 1056.9648 C 477.11756 1059.6162 479.80099 1062.2512 483.25781 1064.457 C 485.98383 1066.194 489.28764 1067.452 493.05664 1067.8945 C 496.48745 1068.2212 499.91395 1067.7676 503.0957 1066.5508 C 506.3851 1065.2641 509.25628 1063.4427 511.62891 1061.2852 C 517.19257 1056.1787 521.04526 1049.8863 523.50586 1043.3652 C 526.6271 1035.4507 528.34432 1026.9839 528.83984 1018.3203 C 529.42882 1008.4873 528.56501 998.38773 526.26172 988.35742 C 523.72007 977.27089 519.49562 966.37165 513.69141 956.0625 C 512.09148 953.21785 510.54424 950.30827 509.03711 947.33398 C 506.92383 943.16346 504.92057 938.93119 502.99805 934.69141 C 498.99141 925.84514 495.39842 916.99701 492.1582 908.25586 C 484.39769 887.26018 478.91629 868.07594 475.59375 849.53711 C 475.08676 846.70229 474.64444 843.94653 474.25781 841.24414 C 474.27268 841.24833 474.28787 841.25166 474.30273 841.25586 C 475.16553 841.49936 476.03023 841.74076 476.88672 841.99023 C 478.03764 842.32546 479.17889 842.67122 480.31836 843.01758 C 481.10087 843.25544 481.88504 843.49111 482.66211 843.73438 C 483.7523 844.07565 484.83268 844.4271 485.91211 844.7793 C 486.78736 845.06489 487.66117 845.35155 488.5293 845.64453 C 489.55658 845.99121 490.57649 846.34581 491.59375 846.70312 C 492.43337 846.99806 493.27076 847.29529 494.10352 847.59766 C 495.1238 847.96809 496.13852 848.34468 497.14844 848.72656 C 498.00521 849.05055 498.85777 849.38045 499.70703 849.71289 C 500.65325 850.08326 501.59635 850.45677 502.5332 850.83789 C 503.42996 851.20271 504.32086 851.57431 505.20898 851.94922 C 506.1197 852.33364 507.02811 852.71996 507.92969 853.11523 C 508.78551 853.49046 509.63292 853.8765 510.48047 854.26172 C 510.63606 854.33244 510.79 854.4055 510.94531 854.47656 C 516.11018 882.86017 523.03656 911.1237 531.27344 945.39648 C 531.99134 948.38356 532.70079 951.34863 533.4043 954.30469 C 538.5013 975.76025 542.93231 995.22906 546.50586 1014.8496 C 550.25345 1035.4782 552.6559 1053.8232 553.44531 1071.5762 C 554.32685 1091.7646 553.06652 1108.454 550.11914 1123.2461 C 543.96002 1154.2791 531.9767 1169.7707 534.49609 1171.6035 C 535.54202 1172.3644 551.93968 1159.6019 562.23828 1126.3438 C 567.03 1110.844 569.90994 1092.6749 570.11914 1071.3066 C 570.31767 1052.5348 568.60381 1032.9885 565.29883 1011.6895 C 562.1719 991.48096 557.90526 971.24888 552.85547 949.71484 C 552.15632 946.72802 551.44417 943.7334 550.72266 940.72656 C 543.48379 910.55889 537.61924 888.25858 532.39648 866 C 532.69859 866.19015 533.00782 866.3705 533.30859 866.5625 C 533.36371 866.59769 533.41759 866.63467 533.47266 866.66992 C 534.97893 867.63398 536.47089 868.61907 537.94336 869.63086 C 537.96763 869.64754 537.99136 869.66495 538.01562 869.68164 C 540.92038 871.67994 543.75618 873.77695 546.52734 875.9707 C 546.65173 876.06917 546.77823 876.16479 546.90234 876.26367 C 548.21927 877.31281 549.51852 878.38867 550.80469 879.48438 C 550.95738 879.61446 551.11142 879.74229 551.26367 879.87305 C 551.72156 880.26625 552.17497 880.66517 552.62891 881.06445 C 552.87895 881.28441 553.13006 881.5028 553.37891 881.72461 C 553.77594 882.07849 554.17049 882.43628 554.56445 882.79492 C 554.91791 883.11671 555.27011 883.43997 555.62109 883.76562 C 555.98157 884.10006 556.34136 884.43684 556.69922 884.77539 C 556.99993 885.0599 557.30075 885.34538 557.59961 885.63281 C 557.99082 886.00904 558.37955 886.38826 558.76758 886.76953 C 559.08475 887.08119 559.40176 887.39392 559.7168 887.70898 C 560.0758 888.068 560.43283 888.4295 560.78906 888.79297 C 561.12322 889.13392 561.4554 889.47737 561.78711 889.82227 C 562.10888 890.15681 562.43054 890.49179 562.75 890.83008 C 563.0824 891.18209 563.41229 891.53844 563.74219 891.89453 C 564.1032 892.28419 564.46426 892.67378 564.82227 893.06836 C 565.09317 893.36695 565.36168 893.66927 565.63086 893.9707 C 565.99578 894.37932 566.36092 894.7873 566.72266 895.20117 C 567.02799 895.55053 567.32975 895.90469 567.63281 896.25781 C 567.98125 896.66378 568.33036 897.06949 568.67578 897.48047 C 568.92651 897.7788 569.17469 898.08182 569.42383 898.38281 C 569.79993 898.83717 570.17636 899.28954 570.54883 899.75 C 570.92611 900.21644 571.29833 900.69131 571.67188 901.16406 C 571.89487 901.44626 572.12014 901.7253 572.3418 902.00977 C 572.7044 902.47515 573.06285 902.94843 573.42188 903.41992 C 574.57642 904.93607 575.71277 906.48408 576.83008 908.06445 C 577.01878 908.33137 577.20885 908.59646 577.39648 908.86523 C 578.02746 914.87004 578.35811 921.14635 578.57031 928.03516 C 578.97416 941.649 578.56953 965.20048 579.81641 982.48828 C 580.39726 990.72603 581.45595 999.49788 583.69336 1008.375 C 584.5404 1011.8245 585.6341 1015.3391 587.04297 1018.834 C 588.76084 1023.0954 590.92114 1027.2595 593.61523 1031.2148 C 599.21096 1039.3573 606.18638 1046.591 614.5332 1052.1348 C 621.82188 1056.936 629.99004 1060.0323 638.38086 1061.2305 C 646.64924 1062.3577 654.7282 1061.6084 662.06445 1059.5391 C 670.00425 1057.294 677.05153 1053.6737 683.04492 1049.4043 C 697.73505 1038.9708 706.54134 1025.0697 710.92188 1012.6641 C 713.90013 1004.261 714.84116 996.45572 714.66211 989.94336 C 714.22822 974.49413 708.24995 967.98439 707.27148 968.31055 C 705.25323 968.98331 707.55821 976.53158 705.29883 989.33203 C 704.33589 994.82306 702.48607 1001.0796 699.13477 1007.6992 C 694.16974 1017.4821 685.82775 1028.0327 673.73438 1035.3789 C 668.83197 1038.3428 663.3461 1040.7684 657.57617 1042.0391 C 652.3006 1043.204 646.66868 1043.4902 641.2793 1042.5039 C 635.82621 1041.5596 630.3662 1039.2455 625.42383 1035.8613 C 619.62728 1031.9399 614.55537 1026.3653 610.03711 1019.8691 C 608.28952 1017.3956 606.85865 1014.5503 605.63867 1011.4316 C 604.63878 1008.8754 603.79131 1006.1654 603.03516 1003.3926 C 601.13165 996.19768 600.14313 988.51602 599.4082 980.86523 C 599.43443 981.14329 598.23818 961.79938 597.25195 945.74219 C 597.54136 946.44598 597.82848 947.15452 598.11328 947.86719 C 598.22178 948.13867 598.33163 948.40691 598.43945 948.67969 C 598.87671 949.7859 599.31011 950.90166 599.73633 952.0293 C 599.74665 952.0566 599.75531 952.08401 599.76562 952.11133 C 600.19554 953.24999 600.62045 954.3998 601.03906 955.56055 C 623.64485 930.67133 643.62303 903.70363 661 876.4375 C 668.0559 885.9519 676.1089 895.44839 685.33984 904.37109 C 694.8549 913.68736 706.42958 922.85165 720.52539 929.36719 C 726.26872 932.01027 732.70059 934.08873 739.72656 935.13477 C 746.09755 936.0791 752.89726 935.88818 759.76172 934.26172 C 766.67645 932.52535 773.04815 929.40866 778.53906 925.17969 C 784.79695 920.29969 789.81439 914.55147 793.70312 908.48633 C 800.06933 898.76224 805.20609 888.12679 808.92969 876.875 C 811.87307 867.95148 813.93557 858.76973 815.19336 849.47656 C 815.43439 847.6957 815.64464 845.9167 815.82617 844.14062 C 818.04292 821.97938 816.18595 800.37041 812.70508 780.38477 C 809.35148 760.9145 804.40274 741.95105 799.91211 724.74805 C 797.87532 716.91037 795.95744 709.5718 794.35938 702.26367 C 793.03535 696.07618 791.92686 690.46686 791.58398 685.17578 C 791.1211 677.70377 791.3573 670.73667 792.89648 664.4707 C 794.20395 659.40123 795.90832 654.95772 798.48828 651.80859 C 800.60111 649.14663 803.24442 647.01104 805.94141 646.10547 C 808.84529 644.88297 812.72334 644.92853 816.51562 645.61523 C 821.73618 646.5807 827.03635 649.44266 831.98047 652.75781 C 839.12548 657.63805 845.37766 664.07501 850.74414 670.4043 C 851.95472 671.83329 853.12685 673.28726 854.2793 674.75195 C 863.16306 700.82139 862.62579 721.48944 862.05273 738.36133 C 861.21226 763.10622 860.31503 779.69654 889.02734 793.22852 C 951.54363 822.6921 925.26829 861.94471 937.64844 855.52734 C 952.61585 847.7688 979.44936 755.24861 946.16016 719.63086 C 908.96674 679.83577 886.19894 682.86418 872.06055 664.91016 C 868.02069 659.78003 864.17883 655.45615 860.58008 651.76367 C 856.22009 646.23918 851.08057 640.70466 844.95508 635.67188 C 838.91461 630.64418 831.34619 626.0254 822.20508 623.32422 C 815.18204 621.24991 807.10166 620.85264 798.81055 623.09961 C 791.19271 625.3913 784.448 629.77667 779.33008 635.73242 C 773.70093 642.36691 769.92182 649.9892 767.80078 657.78125 C 765.14679 667.2456 764.23698 676.94281 764.5918 686.47461 C 764.86317 693.9549 765.91555 701.00463 767.18945 707.73047 C 768.68893 715.81813 770.47289 723.63594 772.30859 731.53906 C 776.31839 748.88699 780.76183 767.35131 783.53906 785.17969 C 786.37459 803.62449 787.98195 822.65149 785.98828 841.04297 C 785.83271 842.51354 785.65593 843.98116 785.45703 845.44531 C 784.41907 853.08578 782.7963 860.4907 780.49414 867.5293 C 777.61122 876.38101 773.66579 884.75332 768.80664 892.35742 C 766.23062 896.27171 763.54013 899.63218 760.54297 901.91016 C 758.06883 903.84151 755.3368 905.30605 752.63477 905.99414 C 749.9415 906.77721 746.77595 906.87869 743.5332 906.54297 C 739.8394 906.16168 735.92541 904.93987 731.95508 903.32031 C 721.94415 899.25641 712.60253 892.11356 703.89062 884.45312 C 693.10324 874.83006 683.63694 863.89733 675.29297 852.97266 C 723.33397 770.44219 747.61608 689.83289 748.68945 660.32227 C 746.48808 661.67195 744.2695 663.0033 742.03516 664.31641 C 740.94519 664.95689 739.83987 665.57922 738.74219 666.21094 C 737.57363 666.88357 736.41157 667.56385 735.23438 668.22656 C 734.14382 668.84035 733.03929 669.43773 731.94141 670.04297 C 730.7369 670.70717 729.53743 671.37735 728.32422 672.03125 C 727.05678 672.71416 725.77487 673.38112 724.49805 674.05273 C 723.48153 674.58763 722.46964 675.12852 721.44727 675.65625 C 719.96574 676.42068 718.4722 677.16863 716.97852 677.91797 C 716.1284 678.34464 715.28369 678.77744 714.42969 679.19922 C 712.81522 679.99619 711.18676 680.77722 709.55859 681.55664 C 708.83483 681.90329 708.1151 682.25448 707.38867 682.59766 C 705.57486 683.45408 703.75015 684.29419 701.91992 685.12891 C 701.37457 685.37776 700.83195 685.63003 700.28516 685.87695 C 698.37185 686.74049 696.44628 687.5879 694.51562 688.42773 C 694.02673 688.64052 693.54077 688.85709 693.05078 689.06836 C 691.01921 689.94379 688.97593 690.80316 686.92578 691.65234 C 686.55685 691.80525 686.18984 691.96123 685.82031 692.11328 C 683.61355 693.02078 681.39556 693.91201 679.16797 694.78906 C 678.96207 694.87018 678.75686 694.95235 678.55078 695.0332 C 676.2522 695.93453 673.94117 696.81867 671.62109 697.6875 C 671.45276 697.75057 671.28563 697.81601 671.11719 697.87891 C 668.6793 698.78878 666.23038 699.6808 663.76953 700.55469 C 663.75595 700.55951 663.7421 700.56353 663.72852 700.56836 C 661.22334 701.45774 658.70596 702.3297 656.17773 703.18164 C 656.17773 703.18164 656.17578 703.18164 656.17578 703.18164 C 648.54886 705.75165 640.81912 708.15242 632.99609 710.37891 C 629.66829 711.32606 626.32562 712.24465 622.96484 713.12891 C 624.157 704.81152 626.02018 700.32649 624.72852 699.50195 C 623.72796 698.86325 618.44037 702.41335 614.20508 713.28125 C 613.91909 714.01339 613.64367 714.77863 613.375 715.5625 C 581.83971 723.22978 548.97522 728.14582 515.4082 730.18555 C 515.47144 728.285 515.52679 726.44517 515.5918 724.80859 A 143.82928 132.85925 0 0 0 627.92188 595.3457 A 143.82928 132.85925 0 0 0 484.0918 462.48633 z M 340.27539 595.14453 A 143.82928 132.85925 0 0 0 340.26367 595.3457 A 143.82928 132.85925 0 0 0 399.03516 702.29883 C 398.75284 709.8241 398.39941 717.59705 397.9375 725.58008 C 357.67182 719.98482 317.42958 710.21884 278.2168 696.01953 C 277.3244 690.39767 276.87216 684.93204 276.95508 679.63086 C 277.05624 672.7728 277.9924 666.21467 279.7168 660.13672 C 281.65075 653.24842 284.63542 646.8496 288.15039 641.16211 C 292.60934 633.92657 298.14751 627.59185 303.6543 622.23242 C 315.978 610.19776 330.55763 600.97165 340.27539 595.14453 z M 414.64648 711.66406 A 143.82928 132.85925 0 0 0 484.0918 728.20508 A 143.82928 132.85925 0 0 0 508.23047 726.30664 C 507.87827 727.662 507.53383 729.10509 507.19336 730.62891 C 481.98891 731.80306 456.42211 731.36272 430.75 729.23242 C 429.73051 721.8251 428.68471 717.71025 427.5293 717.70117 C 426.42475 717.69251 425.30591 721.60428 424.29688 728.65039 C 421.05476 728.3459 417.81251 728.01656 414.56836 727.6582 C 414.65339 722.21303 414.67332 716.88445 414.64648 711.66406 z M 327.79297 805.64062 C 347.214 812.93672 367.20729 818.2512 386.26953 822.50977 C 382.63984 839.46205 377.66036 856.45295 370.43945 872.375 C 369.11836 875.29494 367.71524 878.17927 366.23047 881.00977 C 360.71694 866.29822 353.93689 852.59971 347.14062 839.95312 C 340.89852 828.29043 334.24395 816.75932 327.79297 805.64062 z "
     id="path4467" /><g
     id="wings_1_"
     transform="matrix(0.9218482,0,0,1.467159,142.07742,-89.978011)"
     style="fill:#bbbbcc;fill-opacity:1"><g
       id="right_1_"
       style="fill:#bbbbcc;fill-opacity:1"><path
         d="m 248.566,301.502 c -5.196,12.73 0.969,27.397 13.7,32.593 l 226.221,92.329 c 12.73,5.196 27.397,-0.969 32.594,-13.7 l 77.416,-189.685 c 5.195,-12.73 -0.97,-27.397 -13.7,-32.593 L 358.575,98.12 c -12.73,-5.196 -27.397,0.969 -32.593,13.7 l -77.416,189.682 z"
         id="path3522"
         inkscape:connector-curvature="0"
         style="fill:#bbbbcc;fill-opacity:1" /></g><g
       id="left_1_"
       style="fill:#bbbbcc;fill-opacity:1"><path
         d="m 481.498,301.503 c 5.195,12.73 -0.97,27.397 -13.7,32.593 l -226.221,92.329 c -12.73,5.196 -27.397,-0.969 -32.593,-13.7 L 131.568,223.04 c -5.196,-12.73 0.969,-27.397 13.7,-32.593 L 371.489,98.12 c 12.73,-5.196 27.397,0.969 32.593,13.7 l 77.416,189.683 z"
         id="path3525"
         inkscape:connector-curvature="0"
         style="fill:#bbbbcc;fill-opacity:1" /></g></g><g
     id="fingers"
     display="none"
     style="display:none"
     transform="translate(113.54949,-21.455062)"><g
       display="inline"
       id="g3528"
       style="display:inline"><path
         d="m 203.823,609.804 c 0,-11.462 0,-11.462 0,-11.462 2,-12.086 1.309,-23.673 -1.361,-25.748 -2.669,-2.075 -24.168,21.094 -47.8,51.488 L 42.957,767.762 c -23.632,30.395 -19.337,73.63 9.537,96.08 28.874,22.45 71.836,15.951 95.468,-14.443 l 56.932,-73.22 c 23.632,-30.394 25.85,-81.73 4.976,-114.081 -0.001,0 -6.047,-9.31 -6.047,-52.294 z"
         id="path3530"
         inkscape:connector-curvature="0"
         style="fill:#111a2c" /></g><g
       display="inline"
       id="g3532"
       style="display:inline"><path
         d="m 243.674,709.733 c -16.315,-23.879 -37.996,-13.038 -48.178,24.091 l -46.373,169.088 c -10.183,37.129 10.345,75.422 45.618,85.095 35.272,9.674 72.463,-12.789 82.646,-49.918 L 305.86,834.27 C 316.042,797.14 259.989,733.612 243.674,709.733 Z"
         id="path3534"
         inkscape:connector-curvature="0"
         style="fill:#111a2c" /></g><g
       display="inline"
       id="g3536"
       style="display:inline"><path
         d="m 366.347,772.741 c -24.094,0 -24.094,0 -24.094,0 -23.887,-9 -43.43,16.344 -43.43,54.844 l 0,140.156 c 0,38.5 29.925,70 66.5,70 36.575,0 66.5,-31.5 66.5,-70 l 0,-139.24 c 0,-38.5 -18.98,-63.761 -42.178,-55.761 0,10e-4 0,10e-4 -23.298,10e-4 z"
         id="path3538"
         inkscape:connector-curvature="0"
         style="fill:#111a2c" /></g><g
       display="inline"
       id="g3540"
       style="display:inline"><path
         d="m 536.542,731.188 c -9.212,-37.382 -30.104,-47.799 -46.43,-23.148 -16.326,24.651 -74.246,89.306 -65.035,126.688 l 25.45,103.281 c 9.212,37.382 45.804,60.807 81.316,52.057 35.513,-8.751 57.032,-46.496 47.82,-83.878 l -43.121,-175 z"
         id="path3542"
         inkscape:connector-curvature="0"
         style="fill:#111a2c" /></g><g
       display="inline"
       id="g3544"
       style="display:inline"><path
         d="m 581.353,647.493 c -29.016,-25.305 -52.53,-43.521 -52.53,-40.479 0,0 0,0 0,2.79 0,48.12 -12.463,64.887 -12.463,64.887 -22.949,30.912 -17.994,76.908 11.021,102.213 L 598.2,838.67 c 29.016,25.305 72.423,23.456 96.463,-4.109 24.04,-27.564 19.976,-70.821 -9.04,-96.126 l -104.27,-90.942 z"
         id="path3546"
         inkscape:connector-curvature="0"
         style="fill:#111a2c" /></g></g><path
     style="fill:#bbbbcc;fill-opacity:1"
     d="m 478.89649,-6.1035164e-5 c -68.81,0 -271.429,481.522001035164 -271.429,631.428001035164 0,149.906 121.522,191.429 271.429,191.429 149.905,0 271.429,-41.522 271.429,-191.429 0,-149.907 -202.619,-631.428001035164 -271.429,-631.428001035164 z"
     id="path4209" /><circle
     id="little_circle_2_"
     display="none"
     cx="478.89645"
     cy="591.34894"
     r="101.333"
     style="display:none;fill:none" /><circle
     id="big_circle"
     display="none"
     cx="479.89645"
     cy="588.34894"
     r="162.44501"
     style="display:none;fill:none" /><path
     id="shadow_1_"
     display="none"
     d="m 214.37249,677.28594 c 15.571,131.32 166.294,174.896 239,194 68.506,18 99.574,57.604 127,128.00003 97.442,-99.31203 162.47,-289.06203 164,-328.00003 -144.197,81.838 -351.053,91.884 -530,6 z"
     inkscape:connector-curvature="0"
     style="display:none" /><path
     style="opacity:1;fill:#bbbbcc;fill-opacity:1;fill-rule:nonzero;stroke:none;stroke-width:1000;stroke-linecap:square;stroke-linejoin:miter;stroke-miterlimit:4;stroke-dasharray:none;stroke-opacity:1"
     d="M 648.15888,477.99466 A 82.816026,181.71424 89.148733 0 1 461.88101,560.86928 82.816026,181.71424 89.148733 0 1 284.88062,478.04214 82.816026,181.71424 89.148733 0 1 471.15849,395.16753 82.816026,181.71424 89.148733 0 1 648.15888,477.99466 Z"
     id="path4425" /></svg>