<?xml version="1.0" encoding="UTF-8" standalone="no"?>
<!-- Generator: Adobe Illustrator 16.0.4, SVG Export Plug-In . SVG Version: 6.00 Build 0)  -->

<svg
   xmlns:dc="http://purl.org/dc/elements/1.1/"
   xmlns:cc="http://creativecommons.org/ns#"
   xmlns:rdf="http://www.w3.org/1999/02/22-rdf-syntax-ns#"
   xmlns:svg="http://www.w3.org/2000/svg"
   xmlns="http://www.w3.org/2000/svg"
   xmlns:sodipodi="http://sodipodi.sourceforge.net/DTD/sodipodi-0.dtd"
   xmlns:inkscape="http://www.inkscape.org/namespaces/inkscape"
   version="1.1"
   id="squid"
   x="0px"
   y="0px"
   width="271.52737mm"
   height="330.66141mm"
   viewBox="0 0 962.10488 1171.6349"
   enable-background="new 0 0 738.37 1059.259"
   xml:space="preserve"
   inkscape:version="0.91 r13725"
   sodipodi:docname="logo.svg"><metadata
     id="metadata3581"><rdf:RDF><cc:Work
         rdf:about=""><dc:format>image/svg+xml</dc:format><dc:type
           rdf:resource="http://purl.org/dc/dcmitype/StillImage" /><dc:title /></cc:Work></rdf:RDF></metadata><defs
     id="defs3579"><inkscape:path-effect
       effect="skeletal"
       id="path-effect4562"
       is_visible="true"
       pattern="M 0,0 1,0"
       copytype="single_stretched"
       prop_scale="4"
       scale_y_rel="false"
       spacing="0"
       normal_offset="0"
       tang_offset="0"
       prop_units="false"
       vertical_pattern="false"
       fuse_tolerance="0" /><inkscape:path-effect
       effect="powerstroke"
       id="path-effect4560"
       is_visible="true"
       offset_points="0,0.5"
       sort_points="true"
       interpolator_type="SpiroInterpolator"
       interpolator_beta="0.2"
       start_linecap_type="zerowidth"
       linejoin_type="round"
       miter_limit="4"
       end_linecap_type="zerowidth"
       cusp_linecap_type="round" /><inkscape:path-effect
       effect="skeletal"
       id="path-effect4469"
       is_visible="true"
       pattern="m 128.1762,-104.2153 c 0,-2.76 2.24,-5 5,-5 2.76,0 5,2.24 5,5 0,2.76 -2.24,5.000002 -5,5.000002 -2.76,0 -5,-2.240002 -5,-5.000002 z"
       copytype="single_stretched"
       prop_scale="2"
       scale_y_rel="false"
       spacing="0"
       normal_offset="0"
       tang_offset="0"
       prop_units="false"
       vertical_pattern="false"
       fuse_tolerance="0" /><inkscape:path-effect
       effect="skeletal"
       id="path-effect4461"
       is_visible="true"
       pattern="m 20.91368,-90.772965 c 0,-2.76 2.24,-5 5,-5 2.76,0 5,2.24 5,5 0,2.76 -2.24,5 -5,5 -2.76,0 -5,-2.24 -5,-5 z"
       copytype="single_stretched"
       prop_scale="2"
       scale_y_rel="false"
       spacing="0"
       normal_offset="0"
       tang_offset="0"
       prop_units="false"
       vertical_pattern="false"
       fuse_tolerance="0" /><inkscape:path-effect
       effect="skeletal"
       id="path-effect4453"
       is_visible="true"
       pattern="m 79.420505,-80.146259 c 0,-2.76 2.24,-5 5,-5 2.76,0 5,2.24 5,5 0,2.76 -2.24,5 -5,5 -2.76,0 -5,-2.24 -5,-5 z"
       copytype="single_stretched"
       prop_scale="2"
       scale_y_rel="false"
       spacing="0"
       normal_offset="0"
       tang_offset="0"
       prop_units="false"
       vertical_pattern="false"
       fuse_tolerance="0" /><inkscape:path-effect
       effect="skeletal"
       id="path-effect4449"
       is_visible="true"
       pattern="m 108.67392,-95.897396 c 0,-2.76 2.24,-5.000004 5,-5.000004 2.76,0 5,2.240004 5,5.000004 0,2.76 -2.24,5 -5,5 -2.76,0 -5,-2.24 -5,-5 z"
       copytype="single_stretched"
       prop_scale="2"
       scale_y_rel="false"
       spacing="0"
       normal_offset="0"
       tang_offset="0"
       prop_units="false"
       vertical_pattern="false"
       fuse_tolerance="0" /><inkscape:path-effect
       effect="skeletal"
       id="path-effect4445"
       is_visible="true"
       pattern="m 128.1762,-126.90194 c 0,-2.76 2.24,-5 5,-5 2.76,0 5,2.24 5,5 0,2.76 -2.24,5 -5,5 -2.76,0 -5,-2.24 -5,-5 z"
       copytype="single_stretched"
       prop_scale="2"
       scale_y_rel="false"
       spacing="0"
       normal_offset="0"
       tang_offset="0"
       prop_units="false"
       vertical_pattern="false"
       fuse_tolerance="0" /><inkscape:path-effect
       effect="skeletal"
       id="path-effect4433"
       is_visible="true"
       pattern="m 84.296074,-33.519552 c 0,-2.76 2.24,-5 5,-5 2.76,0 5,2.24 5,5 0,2.76 -2.24,5 -5,5 -2.76,0 -5,-2.24 -5,-5 z"
       copytype="single_stretched"
       prop_scale="3"
       scale_y_rel="false"
       spacing="0"
       normal_offset="0"
       tang_offset="0"
       prop_units="false"
       vertical_pattern="false"
       fuse_tolerance="0" /><inkscape:path-effect
       effect="skeletal"
       id="path-effect4429"
       is_visible="true"
       pattern="m 142.8029,-99.33973 c 0,-2.76 2.24,-5 5,-5 2.76,0 5,2.24 5,5 0,2.76 -2.24,5 -5,5 -2.76,0 -5,-2.24 -5,-5 z"
       copytype="single_stretched"
       prop_scale="3"
       scale_y_rel="false"
       spacing="0"
       normal_offset="0"
       tang_offset="0"
       prop_units="false"
       vertical_pattern="false"
       fuse_tolerance="0" /><inkscape:path-effect
       effect="skeletal"
       id="path-effect4415"
       is_visible="true"
       pattern="M 0,5 C 0,2.24 2.24,0 5,0 7.76,0 10,2.24 10,5 10,7.76 7.76,10 5,10 2.24,10 0,7.76 0,5 Z"
       copytype="single_stretched"
       prop_scale="1"
       scale_y_rel="false"
       spacing="0"
       normal_offset="0"
       tang_offset="0"
       prop_units="false"
       vertical_pattern="false"
       fuse_tolerance="0" /><inkscape:path-effect
       effect="skeletal"
       id="path-effect4411"
       is_visible="true"
       pattern="M 0,5 C 0,2.24 2.24,0 5,0 7.76,0 10,2.24 10,5 10,7.76 7.76,10 5,10 2.24,10 0,7.76 0,5 Z"
       copytype="single_stretched"
       prop_scale="1"
       scale_y_rel="false"
       spacing="0"
       normal_offset="0"
       tang_offset="0"
       prop_units="false"
       vertical_pattern="false"
       fuse_tolerance="0" /><inkscape:path-effect
       effect="skeletal"
       id="path-effect4407"
       is_visible="true"
       pattern="M 0,5 C 0,2.24 2.24,0 5,0 7.76,0 10,2.24 10,5 10,7.76 7.76,10 5,10 2.24,10 0,7.76 0,5 Z"
       copytype="single_stretched"
       prop_scale="1"
       scale_y_rel="false"
       spacing="0"
       normal_offset="0"
       tang_offset="0"
       prop_units="false"
       vertical_pattern="false"
       fuse_tolerance="0" /><inkscape:path-effect
       effect="skeletal"
       id="path-effect4403"
       is_visible="true"
       pattern="M 0,5 C 0,2.24 2.24,0 5,0 7.76,0 10,2.24 10,5 10,7.76 7.76,10 5,10 2.24,10 0,7.76 0,5 Z"
       copytype="single_stretched"
       prop_scale="1"
       scale_y_rel="false"
       spacing="0"
       normal_offset="0"
       tang_offset="0"
       prop_units="false"
       vertical_pattern="false"
       fuse_tolerance="0" /><inkscape:path-effect
       effect="skeletal"
       id="path-effect4399"
       is_visible="true"
       pattern="M 0,5 C 0,2.24 2.24,0 5,0 7.76,0 10,2.24 10,5 10,7.76 7.76,10 5,10 2.24,10 0,7.76 0,5 Z"
       copytype="single_stretched"
       prop_scale="1"
       scale_y_rel="false"
       spacing="0"
       normal_offset="0"
       tang_offset="0"
       prop_units="false"
       vertical_pattern="false"
       fuse_tolerance="0" /></defs><sodipodi:namedview
     pagecolor="#ffffff"
     bordercolor="#666666"
     borderopacity="1"
     objecttolerance="10"
     gridtolerance="10"
     guidetolerance="10"
     inkscape:pageopacity="0"
     inkscape:pageshadow="2"
     inkscape:window-width="2016"
     inkscape:window-height="1336"
     id="namedview3577"
     showgrid="false"
     showguides="true"
     units="mm"
     showborder="true"
     inkscape:zoom="0.9986317"
     inkscape:cx="485.74634"
     inkscape:cy="545.7787"
     inkscape:window-x="552"
     inkscape:window-y="0"
     inkscape:window-maximized="0"
     inkscape:current-layer="squid"
     fit-margin-top="0"
     fit-margin-left="0"
     fit-margin-right="0"
     fit-margin-bottom="0"><inkscape:grid
       type="xygrid"
       id="grid4479"
       originx="113.54949"
       originy="133.83103" /></sodipodi:namedview><path
     style="fill:#41a0b7;fill-opacity:1;fill-rule:evenodd;stroke:none;stroke-width:1;stroke-linecap:butt;stroke-linejoin:miter;stroke-miterlimit:4;stroke-dasharray:none;stroke-opacity:1"
     d="m 402.84672,591.42603 c 1.91654,-0.13373 5.51458,18.36298 8.44929,50.47793 2.81623,30.81848 5.38218,79.15887 1.07865,131.84543 -2.592,32.61815 -7.86019,70.99773 -23.6956,106.7911 -1.71841,3.87521 -3.60027,7.73817 -5.6682,11.55008 -3.82885,7.05785 -8.22235,13.80557 -13.28745,20.08563 -6.28671,7.78628 -13.66016,14.65746 -21.99671,20.17173 -7.25737,4.76881 -15.07027,8.34963 -23.06863,10.7802 -7.36129,2.22478 -14.7454,3.5101 -21.90418,4.17157 -15.02369,1.46531 -29.87968,-1.75895 -42.26786,-8.94976 -14.24041,-8.52361 -24.00611,-21.32404 -29.82822,-34.2215 -8.77567,-19.4385 -10.54775,-39.58434 -10.12949,-55.7124 0.55602,-23.58323 5.5287,-43.64225 9.26919,-55.53447 3.95281,-12.56722 7.35639,-18.98129 8.47557,-18.66277 1.31168,0.37331 0.26368,7.46231 -1.44352,20.2338 -1.5715,11.75626 -4.25409,32.1692 -3.07177,53.77582 0.85717,14.95781 3.48053,33.07514 11.68352,48.7506 5.35235,10.21079 13.39567,20.12282 23.95531,25.71399 8.97309,4.96628 20.16601,6.94477 31.3838,5.67463 6.16343,-0.72721 12.28567,-1.89022 18.08655,-3.77721 6.28381,-2.03111 12.37946,-4.91981 17.93039,-8.67161 6.4252,-4.30587 12.24863,-9.87434 17.40346,-16.26775 4.19038,-5.1904 7.88681,-10.93529 11.21138,-17.08918 1.79532,-3.3232 3.46417,-6.73227 5.02718,-10.18691 14.57829,-32.14503 20.03766,-68.65002 23.64651,-100.38807 5.60446,-50.26966 5.85049,-99.77024 6.08801,-129.61805 0.25479,-32.01705 0.48882,-50.79044 2.67282,-50.94283 z"
     id="path4467"
     inkscape:path-effect="#path-effect4469"
     inkscape:original-d="m 402.84672,591.42603 c 21.18267,303.575 -49.58948,341.04033 -101.07957,346.40764 -53.03433,5.52827 -95.71456,-50.40315 -63.49407,-163.61487"
     inkscape:connector-curvature="0"
     sodipodi:nodetypes="csc" /><ellipse
     style="opacity:1;fill:#fbffea;fill-opacity:1;fill-rule:nonzero;stroke:none;stroke-width:1;stroke-linecap:butt;stroke-linejoin:miter;stroke-miterlimit:4;stroke-dasharray:none;stroke-opacity:1"
     id="path4521"
     cx="484.09268"
     cy="595.34607"
     rx="143.82928"
     ry="132.85925" /><path
     style="fill:#41a0b7;fill-opacity:1;fill-rule:evenodd;stroke:none;stroke-width:1;stroke-linecap:butt;stroke-linejoin:miter;stroke-miterlimit:4;stroke-dasharray:none;stroke-opacity:1"
     d="m 360.31017,581.63223 c 0.53147,1.35641 -5.12788,4.67191 -15.52695,10.8276 -9.184,5.43643 -26.72488,15.70521 -41.12981,29.77228 -5.50679,5.35943 -11.04432,11.69378 -15.50327,18.92932 -3.51497,5.68749 -6.49869,12.08746 -8.43264,18.97576 -1.7244,6.07795 -2.66149,12.63622 -2.76265,19.49428 -0.10314,6.59437 0.60942,13.43828 1.98565,20.52817 2.77233,14.43279 8.26383,28.77819 15.47588,44.30612 7.25711,15.51871 15.69678,30.54261 25.26003,47.15286 8.5506,14.82517 18.56625,31.71075 27.46346,48.33421 7.95169,14.79661 15.8981,31.02087 21.79709,48.63939 5.03834,14.72141 8.44227,31.43107 7.23683,49.15654 -1.2231,16.50018 -4.14473,33.75327 -10.21359,50.66492 -4.4514,12.52442 -11.11772,25.01612 -20.73406,35.97792 -7.85707,8.8837 -17.79186,16.2319 -29.29224,21.0158 -2.22717,0.9031 -4.48583,1.7003 -6.76849,2.3927 -8.76789,2.6595 -17.80441,3.7469 -26.66243,3.4091 -11.6863,-0.4569 -22.87769,-3.072 -33.12324,-7.1727 -11.06786,-4.406 -21.20685,-10.3886 -30.22584,-17.4182 -19.77999,-15.3514 -34.67178,-35.70977 -43.23124,-58.11327 -13.9603,-36.85026 -21.28033,-74.15738 -24.84418,-108.736 0,0 0,-4e-5 0,-4e-5 -1.99292,-19.28485 -5.32587,-79.36026 -6.53947,-92.75948 -1.36545,-15.01126 -3.19639,-28.67339 -5.99961,-41.69843 -3.17681,-14.77771 -7.44121,-28.04285 -12.58837,-39.94922 -6.78815,-15.74705 -15.13223,-29.15732 -22.88879,-39.89378 -20.943741,-29.00886 -37.621049,-41.2555 -35.391379,-44.0239 0.755091,-0.93753 20.363005,7.5557 45.793169,35.56137 9.47583,10.44373 19.7324,23.99416 28.49315,40.68396 6.60213,12.60625 12.26989,26.82784 16.64115,42.67792 3.83785,13.92398 6.59438,28.46004 8.72774,44.03513 12.47827,90.77975 -2.63638,-1.80071 10.00966,92.25482 0,0 0,3e-5 0,3e-5 4.41898,32.78777 12.0506,67.71536 25.49911,101.38804 6.86265,17.27732 18.88443,33.20484 34.4269,45.08435 7.09712,5.3947 14.85489,9.9361 23.05628,13.1137 7.5785,2.9142 15.47485,4.7986 23.21241,5.0078 5.77239,0.164 11.56619,-0.5043 16.93344,-2.1331 1.39756,-0.4242 2.76281,-0.9124 4.08842,-1.4662 6.86595,-2.7475 13.16258,-7.4783 18.34127,-13.197 6.56422,-7.16349 11.39512,-16.43094 15.14378,-26.27682 5.05619,-13.43819 7.58989,-28.12228 8.97221,-42.8618 1.28098,-12.09184 -1.43641,-25.14981 -5.28626,-37.92887 -4.73606,-15.28674 -11.77165,-30.2898 -19.01925,-44.73247 -8.03962,-15.95332 -17.64734,-33.24512 -25.75624,-48.41509 -9.13426,-17.05931 -17.39373,-33.18701 -24.47321,-50.06497 -7.10841,-16.83378 -12.42885,-33.44221 -14.88099,-50.47116 -1.20397,-8.45028 -1.55974,-16.83077 -0.96106,-25.03623 0.63074,-8.57543 2.38021,-16.77278 5.09343,-24.36916 3.09533,-8.60875 7.37316,-16.25288 12.21244,-22.82297 6.14005,-8.31496 13.14272,-15.05557 19.91711,-20.44126 17.99708,-14.25032 36.8732,-22.0167 47.65143,-25.70568 11.73628,-4.01689 18.35226,-4.84721 18.80322,-3.69629 z"
     id="path4427"
     inkscape:path-effect="#path-effect4429"
     inkscape:original-d="m 360.31017,581.63223 c -215.90804,84.59797 10.50838,244.2703 1.2815,354.90034 C 349.33259,1083.5185 221.72182,1046.4929 189.37875,963.27524 130.95142,812.94355 199.18548,707.36607 67.670861,601.44418"
     inkscape:connector-curvature="0"
     sodipodi:nodetypes="cssc" /><path
     style="fill:#41a0b7;fill-opacity:1;fill-rule:evenodd;stroke:none;stroke-width:1;stroke-linecap:butt;stroke-linejoin:miter;stroke-miterlimit:4;stroke-dasharray:none;stroke-opacity:1"
     d="m 624.72757,699.50165 c 1.40956,0.89979 -0.94774,6.10168 -2.07846,15.95362 -0.53806,4.70405 -0.72382,10.06488 -0.2595,16.71611 0.77148,11.18484 3.26965,23.24387 8.38911,38.56314 0,0 10e-6,10e-6 10e-6,10e-6 4.41207,13.07722 10.39846,26.86292 18.47606,41.83229 7.02264,12.98637 15.45323,26.45086 25.54759,39.77047 8.46103,11.13542 18.09247,22.30604 29.08878,32.11548 8.71191,7.66043 18.05293,14.80353 28.06386,18.86743 3.97033,1.61956 7.88386,2.84159 11.57766,3.22288 3.24275,0.33572 6.40882,0.23433 9.10209,-0.54874 2.70203,-0.68809 5.43426,-2.15223 7.9084,-4.08358 2.99716,-2.27798 5.68822,-5.63843 8.26424,-9.55272 4.85915,-7.6041 8.80333,-15.97728 11.68625,-24.82899 2.30216,-7.0386 3.92632,-14.4424 4.96428,-22.08287 0.1989,-1.46415 0.37563,-2.93219 0.5312,-4.40276 1.99367,-18.39148 0.38513,-37.41938 -2.4504,-55.86418 -2.77723,-17.82838 -7.22009,-36.29294 -11.22989,-53.64087 -1.8357,-7.90312 -3.6202,-15.72058 -5.11968,-23.80824 -1.2739,-6.72584 -2.32621,-13.77555 -2.59758,-21.25584 -0.35482,-9.5318 0.55598,-19.2289 3.20997,-28.69325 2.12104,-7.79205 5.89978,-15.4139 11.52893,-22.04839 5.11792,-5.95575 11.86297,-10.34071 19.48081,-12.6324 8.29111,-2.24697 16.37031,-1.85061 23.39335,0.2237 9.14111,2.70118 16.71008,7.3207 22.75055,12.34839 8.80404,7.23351 15.61111,15.50072 20.91967,23.29013 15.32661,22.49155 22.87238,45.45122 26.32174,58.95255 3.71133,14.52668 4.0162,22.76874 2.43375,23.25487 -1.83777,0.56456 -5.49833,-6.66627 -12.06051,-19.66288 -5.8724,-11.63046 -16.53259,-33.0518 -31.82521,-51.10349 -5.36648,-6.32929 -11.61889,-12.76641 -18.7639,-17.64665 -4.94412,-3.31515 -10.24489,-6.17602 -15.46544,-7.14149 -3.79229,-0.6867 -7.66906,-0.73169 -10.57294,0.49081 -2.69699,0.90557 -5.34075,3.03983 -7.45358,5.70179 -2.57996,3.14913 -4.28396,7.59353 -5.59143,12.663 -1.53918,6.26597 -1.77708,13.23344 -1.3142,20.70545 0.34288,5.29108 1.45234,10.90013 2.77636,17.08762 1.59806,7.30813 3.51518,14.64616 5.55197,22.48384 4.49063,17.203 9.43917,36.16758 12.79277,55.63785 3.48087,19.98564 5.33876,41.5944 3.12201,63.75564 -0.18153,1.77607 -0.39226,3.55521 -0.63329,5.33607 -1.25779,9.29317 -3.31906,18.47314 -6.26244,27.39666 -3.7236,11.25179 -8.8616,21.88722 -15.2278,31.61131 -3.88874,6.06514 -8.90527,11.81404 -15.16316,16.69404 -5.49091,4.22897 -11.86358,7.34607 -18.77831,9.08244 -6.86446,1.62646 -13.6642,1.81641 -20.03519,0.87208 -7.02597,-1.04604 -13.4581,-3.12288 -19.20143,-5.76596 -14.09581,-6.51554 -25.66969,-15.68086 -35.18475,-24.99713 -12.28446,-11.87426 -22.48537,-24.76499 -31.02205,-37.36129 -10.23565,-15.064 -18.43993,-30.16406 -24.95544,-44.63426 -7.49494,-16.60981 -12.66811,-32.21198 -15.94914,-46.81608 0,0 0,-2e-5 0,-2e-5 -3.84375,-16.91469 -4.72968,-31.26539 -3.48824,-43.64454 0.75009,-7.46242 2.33055,-13.6452 4.27915,-18.63367 4.23529,-10.8679 9.52284,-14.41808 10.5234,-13.77938 z"
     id="path4431"
     inkscape:connector-curvature="0"
     inkscape:original-d="m 624.72757,699.50165 c -45.07482,70.61183 99.11909,289.53958 156.5275,200.92008 47.03547,-72.60713 -1.00243,-169.56538 -3.1677,-214.59637 -3.60175,-74.90539 74.81436,-80.49131 116.54299,55.34453"
     inkscape:path-effect="#path-effect4433"
     sodipodi:nodetypes="cssc" /><path
     style="fill:#41a0b7;fill-opacity:1;fill-rule:evenodd;stroke:none;stroke-width:1;stroke-linecap:butt;stroke-linejoin:miter;stroke-miterlimit:4;stroke-dasharray:none;stroke-opacity:1"
     d="m 427.52841,717.70158 c 1.9348,0.0152 3.5679,11.32427 5.27147,30.84243 1.53436,17.57957 3.70772,49.24157 5.27469,80.42584 1.42932,28.34293 2.70373,63.16444 1.29797,98.01392 -0.0364,0.90289 -0.0745,1.80453 -0.11441,2.70493 -1.61284,36.48389 -6.24762,69.13772 -13.47172,98.485 -15.90464,64.4716 -40.69542,101.6762 -43.10995,100.5742 -4.34329,-1.9823 14.04223,-41.8039 25.98576,-104.3282 5.50869,-28.75676 9.06132,-59.9386 10.61677,-95.6083 0.0382,-0.87772 0.0752,-1.75687 0.11111,-2.63753 1.34457,-33.01356 0.98142,-69.36518 0.9948,-96.76219 0.01,-34.20262 0.53614,-60.06207 1.94867,-80.7704 1.34091,-19.65835 3.29327,-30.95461 5.19484,-30.9397 z"
     id="path4443"
     inkscape:path-effect="#path-effect4445"
     inkscape:original-d="m 427.52841,717.70158 c -1.25458,160.01317 20.84562,267.10065 -44.85195,411.04632"
     inkscape:connector-curvature="0" /><path
     style="fill:#41a0b7;fill-opacity:1;fill-rule:evenodd;stroke:none;stroke-width:1;stroke-linecap:butt;stroke-linejoin:miter;stroke-miterlimit:4;stroke-dasharray:none;stroke-opacity:1"
     d="m 498.59029,765.29897 c 0.23231,0.84045 -1.56954,1.99806 -4.63432,4.13548 -2.87698,2.00645 -7.56821,5.37617 -11.27655,10.37414 -3.48053,4.57053 -6.24229,10.48301 -8.09744,18.21734 0,0 0,10e-6 0,10e-6 -1.66328,7.03238 -2.24256,14.73025 -2.04317,23.75635 0.21612,8.70015 1.27037,17.78125 3.05402,27.75457 1e-5,0 1e-5,2e-5 1e-5,2e-5 3.32254,18.53883 8.80467,37.72289 16.56518,58.71857 3.24022,8.74115 6.83381,17.59019 10.84045,26.43646 1.92252,4.23978 3.92604,8.47178 6.03932,12.6423 1.50713,2.97429 3.05347,5.88453 4.6534,8.72918 5.80421,10.30915 10.0284,21.20756 12.57005,32.29409 2.30329,10.03031 3.16844,20.12952 2.57946,29.96252 -0.49552,8.6636 -2.21315,17.1316 -5.33439,25.0461 -2.4606,6.5211 -6.31461,12.813 -11.87827,17.9195 -2.37263,2.1575 -5.24306,3.9789 -8.53246,5.2656 -3.18175,1.2168 -6.6072,1.6697 -10.03801,1.343 -3.769,-0.4425 -7.07292,-1.7009 -9.79894,-3.4379 -3.45682,-2.2058 -6.14136,-4.8405 -8.20423,-7.4919 -6.71362,-8.6441 -9.99197,-18.2546 -11.95467,-25.7762 -7.12359,-26.3982 -4.11532,-42.35333 -2.95496,-42.50008 3.29135,-0.41627 4.57131,15.20478 14.34047,38.64598 2.8232,6.6251 6.45155,14.6177 11.77822,20.0048 1.57871,1.5896 3.18471,2.9797 4.79886,3.7306 1.19578,0.5495 2.3634,0.921 3.28062,0.8561 0.79999,0.014 1.73302,-0.2396 2.60707,-0.6541 1.0018,-0.4393 2.05081,-1.3032 3.16718,-2.3849 2.84805,-2.7029 4.81876,-6.8741 6.64086,-11.7914 2.06752,-5.944 3.05396,-12.5571 3.27145,-19.6277 0.21809,-7.9749 -0.74762,-16.2497 -2.81568,-24.57356 -2.28451,-9.17738 -5.96671,-18.28573 -10.91375,-27.00377 -1.77304,-3.12472 -3.46871,-6.29653 -5.09984,-9.5117 -2.28783,-4.50959 -4.41193,-9.03202 -6.40499,-13.51885 -4.17522,-9.38851 -7.83272,-18.76246 -11.04006,-28.00707 -7.67089,-22.04907 -12.69645,-42.83635 -15.10952,-62.7913 0,0 0,-10e-6 0,-10e-6 -1.30696,-10.77124 -1.73164,-20.88982 -1.17258,-30.56099 0.55434,-10.00574 2.25396,-19.01476 5.18245,-27.09914 0,0 0,-10e-6 0,-10e-6 3.2328,-9.0172 8.0689,-15.95322 13.36418,-20.80263 12.80843,-11.52918 22.51762,-8.4911 22.57058,-8.2995 z"
     id="path4447"
     inkscape:path-effect="#path-effect4449"
     inkscape:original-d="m 498.59029,765.29897 c -63.89237,17.66028 -22.16552,145.11403 6.40534,195.67781 45.18759,79.97142 -27.89867,161.74972 -44.85086,27.71134"
     inkscape:connector-curvature="0"
     sodipodi:nodetypes="csc" /><path
     style="fill:#41a0b7;fill-opacity:1;fill-rule:evenodd;stroke:none;stroke-width:1;stroke-linecap:butt;stroke-linejoin:miter;stroke-miterlimit:4;stroke-dasharray:none;stroke-opacity:1"
     d="m 514.97736,710.66133 c 2.55898,0.61121 -1.35003,21.60557 0.91364,56.22363 1.14514,17.40312 3.59024,36.03202 7.91724,58.85355 0,0 0,2e-5 0,2e-5 7.45107,39.28393 15.47351,67.30435 26.91529,114.9875 0.72151,3.00684 1.43221,6.00113 2.13136,8.98795 5.04979,21.53404 9.31657,41.76653 12.4435,61.97502 3.30498,21.299 5.01886,40.8457 4.82033,59.6175 -0.2092,21.3683 -3.08878,39.5381 -7.8805,55.0378 -10.2986,33.2581 -26.69548,46.0196 -27.74141,45.2587 -2.51939,-1.8328 9.46246,-17.3242 15.62158,-48.3572 2.94738,-14.7921 4.20926,-31.4821 3.32772,-51.6705 -0.78941,-17.753 -3.19308,-36.0969 -6.94067,-56.7255 -3.57355,-19.62055 -8.00418,-39.08944 -13.10118,-60.545 -0.70351,-2.95606 -1.41358,-5.92072 -2.13148,-8.9078 -10.72635,-44.63122 -19.24066,-79.07039 -24.52004,-116.85704 0,0 0,-10e-6 0,-10e-6 -3.27918,-23.45686 -4.44592,-43.47376 -3.86515,-61.45125 1.1693,-36.68636 9.98737,-56.92953 12.08977,-56.42737 z"
     id="path4451"
     inkscape:path-effect="#path-effect4453"
     inkscape:original-d="M 514.97736,710.66133 C 480.6877,854.22336 617.83311,1057.0469 534.49681,1171.603"
     inkscape:connector-curvature="0"
     sodipodi:nodetypes="cc" /><path
     style="fill:#41a0b7;fill-opacity:1;fill-rule:evenodd;stroke:none;stroke-width:1;stroke-linecap:butt;stroke-linejoin:miter;stroke-miterlimit:4;stroke-dasharray:none;stroke-opacity:1"
     d="m 541.49339,851.44077 c 0.0927,-0.43928 10.20686,-3.87665 25.29737,6.16556 5.91401,4.00775 11.81318,10.04763 16.40115,18.30319 3.95459,7.10745 6.85497,15.14474 8.90244,24.12485 1.97715,8.5671 3.18707,17.42128 4.02031,26.9529 0,0 0,1e-5 0,1e-5 -0.16773,-1.89762 3.33482,54.30952 3.29413,53.87819 0.73493,7.65079 1.72327,15.33183 3.62678,22.52673 0.75615,2.7728 1.6034,5.4829 2.60329,8.0391 1.21998,3.1187 2.64988,5.9642 4.39747,8.4377 4.51826,6.4962 9.59082,12.07 15.38737,15.9914 4.94237,3.3842 10.40186,5.7001 15.85495,6.6444 5.38938,0.9863 11.02195,0.6983 16.29752,-0.4666 5.76993,-1.2707 11.25556,-3.696 16.15796,-6.6599 12.09337,-7.3462 20.43646,-17.8956 25.40149,-27.6785 3.3513,-6.6196 5.19973,-12.87608 6.16267,-18.36711 2.25938,-12.80045 -0.0451,-20.34898 1.97315,-21.02174 0.97847,-0.32616 6.95592,6.18222 7.38981,21.63145 0.17905,6.51236 -0.76021,14.3194 -3.73847,22.7225 -4.38054,12.4056 -13.18738,26.3062 -27.87751,36.7397 -5.99339,4.2694 -13.04177,7.8886 -20.98157,10.1337 -7.33625,2.0693 -15.41482,2.8203 -23.6832,1.6931 -8.39082,-1.1982 -16.55904,-4.2961 -23.84772,-9.0973 -8.34682,-5.5438 -15.32242,-12.7768 -20.91815,-20.9193 -2.69409,-3.9553 -4.85323,-8.1199 -6.5711,-12.3813 -1.40887,-3.4949 -2.50222,-7.0085 -3.34926,-10.458 -2.23741,-8.87712 -3.29632,-17.64972 -3.87717,-25.88747 -1.24688,-17.2878 -0.8424,-40.83952 -1.24625,-54.45336 0,0 0,-10e-6 0,-10e-6 -0.2826,-9.17408 -0.77686,-17.26276 -1.90812,-25.06907 -1.20775,-8.16382 -2.84001,-15.04841 -5.39283,-21.20435 -2.90216,-7.00965 -6.63838,-12.38688 -10.70694,-16.38551 -10.3823,-10.41988 -19.68047,-11.03859 -19.06957,-13.93496 z"
     id="path4459"
     inkscape:path-effect="#path-effect4461"
     inkscape:original-d="m 541.49339,851.44077 c 72.63781,15.32069 29.51647,129.49948 60.33209,174.10113 44.75628,64.7791 124.26632,-0.7699 105.44596,-57.23095"
     inkscape:connector-curvature="0"
     sodipodi:nodetypes="csc" /><path
     style="opacity:1;fill:#41a0b7;fill-opacity:1;fill-rule:nonzero;stroke:none;stroke-width:1000;stroke-linecap:butt;stroke-linejoin:miter;stroke-miterlimit:4;stroke-dasharray:none;stroke-opacity:1"
     d="m 135.36004,562.08226 c 13.70774,57.79463 -3.62097,76.81484 4.24433,100.47261 12.47895,37.53497 6.40154,55.85451 4.74793,52.26964 C 119.42482,660.78392 88.02987,641.85119 64.256831,627.84115 40.483792,613.83112 24.332675,604.74375 29.892894,570.3939 41.999348,495.6028 -11.581456,496.19845 2.3221261,488.70511 19.131309,479.64577 123.09122,510.35439 135.36004,562.08226 Z"
     id="path4485"
     inkscape:connector-curvature="0"
     sodipodi:nodetypes="sssssss"
     inkscape:transform-center-x="6.6850353"
     inkscape:transform-center-y="-16.76107" /><g
     id="wings_1_"
     transform="matrix(0.9218482,0,0,1.467159,142.07742,-89.978011)"><g
       id="right_1_"><path
         d="m 248.566,301.502 c -5.196,12.73 0.969,27.397 13.7,32.593 l 226.221,92.329 c 12.73,5.196 27.397,-0.969 32.594,-13.7 l 77.416,-189.685 c 5.195,-12.73 -0.97,-27.397 -13.7,-32.593 L 358.575,98.12 c -12.73,-5.196 -27.397,0.969 -32.593,13.7 l -77.416,189.682 z"
         id="path3522"
         inkscape:connector-curvature="0"
         style="fill:#a0eaf2" /></g><g
       id="left_1_"><path
         d="m 481.498,301.503 c 5.195,12.73 -0.97,27.397 -13.7,32.593 l -226.221,92.329 c -12.73,5.196 -27.397,-0.969 -32.593,-13.7 L 131.568,223.04 c -5.196,-12.73 0.969,-27.397 13.7,-32.593 L 371.489,98.12 c 12.73,-5.196 27.397,0.969 32.593,13.7 l 77.416,189.683 z"
         id="path3525"
         inkscape:connector-curvature="0"
         style="fill:#a0eaf2" /></g></g><g
     id="fingers"
     display="none"
     style="display:none"
     transform="translate(113.54949,-21.455062)"><g
       display="inline"
       id="g3528"
       style="display:inline"><path
         d="m 203.823,609.804 c 0,-11.462 0,-11.462 0,-11.462 2,-12.086 1.309,-23.673 -1.361,-25.748 -2.669,-2.075 -24.168,21.094 -47.8,51.488 L 42.957,767.762 c -23.632,30.395 -19.337,73.63 9.537,96.08 28.874,22.45 71.836,15.951 95.468,-14.443 l 56.932,-73.22 c 23.632,-30.394 25.85,-81.73 4.976,-114.081 -0.001,0 -6.047,-9.31 -6.047,-52.294 z"
         id="path3530"
         inkscape:connector-curvature="0"
         style="fill:#111a2c" /></g><g
       display="inline"
       id="g3532"
       style="display:inline"><path
         d="m 243.674,709.733 c -16.315,-23.879 -37.996,-13.038 -48.178,24.091 l -46.373,169.088 c -10.183,37.129 10.345,75.422 45.618,85.095 35.272,9.674 72.463,-12.789 82.646,-49.918 L 305.86,834.27 C 316.042,797.14 259.989,733.612 243.674,709.733 Z"
         id="path3534"
         inkscape:connector-curvature="0"
         style="fill:#111a2c" /></g><g
       display="inline"
       id="g3536"
       style="display:inline"><path
         d="m 366.347,772.741 c -24.094,0 -24.094,0 -24.094,0 -23.887,-9 -43.43,16.344 -43.43,54.844 l 0,140.156 c 0,38.5 29.925,70 66.5,70 36.575,0 66.5,-31.5 66.5,-70 l 0,-139.24 c 0,-38.5 -18.98,-63.761 -42.178,-55.761 0,10e-4 0,10e-4 -23.298,10e-4 z"
         id="path3538"
         inkscape:connector-curvature="0"
         style="fill:#111a2c" /></g><g
       display="inline"
       id="g3540"
       style="display:inline"><path
         d="m 536.542,731.188 c -9.212,-37.382 -30.104,-47.799 -46.43,-23.148 -16.326,24.651 -74.246,89.306 -65.035,126.688 l 25.45,103.281 c 9.212,37.382 45.804,60.807 81.316,52.057 35.513,-8.751 57.032,-46.496 47.82,-83.878 l -43.121,-175 z"
         id="path3542"
         inkscape:connector-curvature="0"
         style="fill:#111a2c" /></g><g
       display="inline"
       id="g3544"
       style="display:inline"><path
         d="m 581.353,647.493 c -29.016,-25.305 -52.53,-43.521 -52.53,-40.479 0,0 0,0 0,2.79 0,48.12 -12.463,64.887 -12.463,64.887 -22.949,30.912 -17.994,76.908 11.021,102.213 L 598.2,838.67 c 29.016,25.305 72.423,23.456 96.463,-4.109 24.04,-27.564 19.976,-70.821 -9.04,-96.126 l -104.27,-90.942 z"
         id="path3546"
         inkscape:connector-curvature="0"
         style="fill:#111a2c" /></g></g><path
     id="body_1_"
     d="m 478.89649,-6.1035164e-5 c -68.81,0 -271.429,481.522001035164 -271.429,631.428001035164 0,149.906 121.522,191.429 271.429,191.429 149.905,0 271.429,-41.522 271.429,-191.429 0,-149.907 -202.619,-631.428001035164 -271.429,-631.428001035164 z m 0,692.682001035164 c -55.964,0 -101.333,-45.368 -101.333,-101.333 0,-55.964 45.369,-101.333 101.333,-101.333 55.965,0 101.333,45.369 101.333,101.333 0,55.965 -45.368,101.333 -101.333,101.333 z"
     inkscape:connector-curvature="0"
     style="fill:#41a0b7;fill-opacity:1" /><path
     id="highlight"
     d="m 478.89649,-6.1035164e-5 c -68.81,0 -271.429,481.522001035164 -271.429,631.428001035164 0,37.477 7.595,68.18 21.331,93.153 -1.005,-193.066 57.573,-443.372 334.042,-625.540003 -33.674,-59.689998 -64.276,-99.040998035164 -83.944,-99.040998035164 z"
     inkscape:connector-curvature="0"
     style="fill:#48919d;fill-opacity:1" /><circle
     id="little_circle_2_"
     display="none"
     cx="478.89645"
     cy="591.34894"
     r="101.333"
     style="display:none;fill:none" /><circle
     id="big_circle"
     display="none"
     cx="479.89645"
     cy="588.34894"
     r="162.44501"
     style="display:none;fill:none" /><path
     id="shadow_1_"
     display="none"
     d="m 214.37249,677.28594 c 15.571,131.32 166.294,174.896 239,194 68.506,18 99.574,57.604 127,128.00003 97.442,-99.31203 162.47,-289.06203 164,-328.00003 -144.197,81.838 -351.053,91.884 -530,6 z"
     inkscape:connector-curvature="0"
     style="display:none" /><path
     id="bandana_2_"
     d="m 209.80049,666.07866 c 15.571,141.86227 169.47,153.57465 243.124,169.82637 68.954,15.21466 120.689,43.60763 148.115,119.65497 97.442,-107.28469 146.12,-253.17207 147.65,-295.23706 -144.196,88.40789 -359.942,98.5355 -538.889,5.75572 z"
     inkscape:connector-curvature="0"
     style="fill:#d34848;fill-opacity:1" /><path
     id="shading"
     d="m 632.99549,710.37875 c -36.596,43.77076 -90.099,90.87957 -168.432,128.27019 63.141,15.87038 110.617,45.20645 136.476,116.91106 97.442,-107.28469 146.12,-253.17207 147.65,-295.23706 -34.886,21.38844 -73.968,38.1803 -115.694,50.05581 z"
     inkscape:connector-curvature="0"
     style="fill:#bd3a3a;fill-opacity:1" /><ellipse
     style="opacity:1;fill:#0f5463;fill-opacity:1;fill-rule:nonzero;stroke:none;stroke-width:1000;stroke-linecap:square;stroke-linejoin:miter;stroke-miterlimit:4;stroke-dasharray:none;stroke-opacity:1"
     id="path4391"
     cx="466.17416"
     cy="625.87128"
     rx="28.786589"
     ry="42.23246" /><ellipse
     style="opacity:1;fill:#41a0b7;fill-opacity:1;fill-rule:nonzero;stroke:none;stroke-width:1000;stroke-linecap:square;stroke-linejoin:miter;stroke-miterlimit:4;stroke-dasharray:none;stroke-opacity:1"
     id="path4425"
     cx="493.28714"
     cy="478.83163"
     rx="181.63913"
     ry="82.980637"
     transform="matrix(0.99999999,-1.3071103e-4,-0.05590145,0.99843629,0,0)" /><path
     inkscape:transform-center-y="13.428775"
     inkscape:transform-center-x="-21.055912"
     sodipodi:nodetypes="sssssss"
     inkscape:connector-curvature="0"
     id="path4566"
     d="m 946.15991,719.6307 c -37.19342,-39.79509 -59.96016,-36.76745 -74.09855,-54.72147 -22.43169,-28.48551 -39.24453,-33.40483 -37.3247,-30.34332 28.9407,46.15098 28.15734,79.05063 27.31688,103.79554 -0.84047,24.74489 -1.73803,41.33503 26.97428,54.86701 62.51629,29.46358 36.24003,68.71592 48.62018,62.29855 14.96741,-7.75854 41.80111,-100.27856 8.51191,-135.89631 z"
     style="opacity:1;fill:#41a0b7;fill-opacity:1;fill-rule:nonzero;stroke:none;stroke-width:1000;stroke-linecap:butt;stroke-linejoin:miter;stroke-miterlimit:4;stroke-dasharray:none;stroke-opacity:1" /><ellipse
     style="opacity:1;fill:#fbffea;fill-opacity:1;fill-rule:nonzero;stroke:none;stroke-width:1;stroke-linecap:butt;stroke-linejoin:miter;stroke-miterlimit:4;stroke-dasharray:none;stroke-opacity:1"
     id="path4883"
     cx="476.65219"
     cy="613.37103"
     rx="7.0095911"
     ry="11.515757" /></svg>