<?xml version="1.0" encoding="utf-8"?>
<!-- Generator: Adobe Illustrator 16.0.4, SVG Export Plug-In . SVG Version: 6.00 Build 0)  -->
<!DOCTYPE svg PUBLIC "-//W3C//DTD SVG 1.1//EN" "http://www.w3.org/Graphics/SVG/1.1/DTD/svg11.dtd">
<svg version="1.1" id="squid" xmlns="http://www.w3.org/2000/svg" xmlns:xlink="http://www.w3.org/1999/xlink" x="0px" y="0px"
	 width="1123.404px" height="1219.571px" viewBox="0 0 1123.404 1219.571" enable-background="new 0 0 1123.404 1219.571"
	 xml:space="preserve">
<g id="tentacles">
	<path fill="#14A5C6" d="M485.093,751.076c8.667,57.334,54.667,213.261-79.333,230.964S253.093,866.557,253.093,866.557
		s-4.3-15.654,7.551-18.092c12.032-2.475,13.36,13.088,13.36,13.088s10.362,110.03,126.059,98.443s53.554-194.903,53.554-194.903
		L485.093,751.076z"/>
	<path fill="#22B4D6" d="M540.617,795.076c14.333,59.332,27.142,140.595,27.809,186.964s-0.389,113.702-62.667,113.702
		c-58,0-60.331-54.703-60-61.333c1.93-38.654,34.258-54.839,34.258-54.839s14.159-8.063,19.409,2.47
		c5.333,10.702-10.154,18.035-10.154,18.035s-21.408,10.995-20.765,34.333c0.551,20,8.155,34.833,30.444,36.377
		c24.751,1.715,37.476-8.377,41.667-41.709c6.119-48.664-5.667-126.667-32.584-206.667
		C529.092,780.409,540.617,795.076,540.617,795.076z"/>
	<path fill="#22B4D6" d="M617.169,805.74c14.591,53.336,20.591,100.999,10.065,160.706c-9.351,53.045-14.695,109.074,11.191,134.627
		c25.75,25.418,37.333,30,37.333,30s11.94,6.975,7.667,18.168c-5.25,13.75-19,7.832-19,7.832s-73.333-36.665-73.333-113.332
		c0-65.541,9.59-82.708,7.333-123.333c-2-36-6.373-73.063-18.651-92.637C604.163,806.865,617.169,805.74,617.169,805.74z"/>
	<path fill="#22B4D6" d="M440.426,755.075c3.459,71.532,1.333,191.264-5.333,226.965s-31.333,118.367-13.333,156.368
		c17.001,35.893,69.875,36.05,87.242,16c14.282-16.488,21.807-28,31.616-22s1.333,21.333-5.524,30.666s-30.188,42.842-85.333,30
		c-48.667-11.333-57.425-54.049-59.333-77.333c-3.333-40.667,10.737-100.476,14.667-121.333
		c8.667-46.001,12.667-145.999,1.333-211.333C426.426,745.075,440.426,755.075,440.426,755.075z"/>
	<path fill="#14A5C6" d="M710.373,873.742c-6.97,19.165-25.434,54.896-28.613,91.332c-4.334,49.666,3.768,93.477,50.959,95.173
		c44.935,1.615,47.957-22.006,49.707-42.506c0.565-6.626,1.5-15.5,10.12-15.33c10.181,0.201,9.88,16.33,9.88,16.33
		s4.189,65.407-65.707,65.408c-82.791,0.001-84.293-82.264-82.293-121.908s10.812-109.077,10.812-109.077L710.373,873.742z"/>
	<path fill="#22B4D6" d="M411.672,726.767c-9.023,22.265-24.632,18.487-43.246,78.973c-18,58.491,14,126.001,7.594,188.788
		c-6.16,60.376-47.687,101.214-123.687,101.214c-94.907,0-131.907-75.591-131.907-129.296s19-88.08,28-104.893s39-68.523,41-107.668
		s-3-78.748-13-112.446c28.399-13.748,33-7.125,33-7.125s5.191,53.459,7,88.427c3,58-22,116.002-39,151.001
		s-24.773,65.422-23.887,92.704c1.8,55.415,35.887,92.295,98.794,95.295c48.049,2.291,86.455-33.852,89.391-67.213
		c5.702-64.787-22.155-81.781-18.298-176.102c3-73.353,21.561-64.818,26-91.686S411.672,726.767,411.672,726.767z"/>
	<path fill="#22B4D6" d="M1009.76,779.742c-0.667-16,0-129.001-100.001-117.334c-94.178,10.987-70,128-70,128s4.416,44.964,9,77.334
		c11.385,80.398-87.666,83.333-96.333,16.667c-7.743-59.562-6-102.001-6-102.001l-58,14.667c0,0,14.531,77.307,29.333,118.678
		c29.334,81.989,178.254,78.747,164-46.011c-7.321-64.08-10.666-88-10.666-88s-16.361-81.061,42.667-92.75
		c58.894-11.663,66,52.75,71.333,90.083C998.426,795.075,1009.76,779.742,1009.76,779.742z"/>
</g>
<g id="left">
	<path fill="#22B4D6" d="M212.68,674.281c24.412-39.967,10.988-114.073-19.532-154.359c-30.52-40.285-92.78-56.156-130.624-54.935
		c-13.661,0.941-5.493,9.461-0.61,13.123c4.883,3.662,42.422,36.013,38.455,82.098c-1.914,22.226-2.972,46.615,7.02,71.11
		c9.461,23.196,45.475,47.306,84.54,52.188C203.191,660.936,212.68,674.281,212.68,674.281z"/>
	<path fill="#F4EFB8" d="M68.522,466.946c-2.053-0.028-4.065-0.022-5.999,0.041c-12.098,0.754-5.493,7.461-0.61,11.123
		c4.883,3.662,41.422,36.013,37.455,82.098c-1.914,22.226-2.972,46.615,7.02,71.11c8.697,21.322,42.747,44.84,79.648,51.938
		c4.904-1.611,7.631-2.747,11.76-8.568s6.145-29.915,6.629-34.279c1-9,4.5-76.667-50-129.667
		C128.607,485.633,93.052,469.002,68.522,466.946z"/>
	<path fill="#EAE1A0" d="M202.444,602.974c-4.458-26.253-16.6-61.68-48.019-92.233c-25.818-25.107-61.374-41.738-85.903-43.794
		c-2.053-0.028-4.067-0.056-5.999,0.041c-11.348,0.566-6.859,6.754-0.61,11.123c3.551,2.482,22.61,19.716,32.461,45.873
		C127.2,532.714,167.081,552.856,202.444,602.974z"/>
</g>
<g id="right">
	<path fill="#22B4D6" d="M1005.566,743.235c43.834,16.49,78.841,83.173,79.563,133.709c0.723,50.535-38.599,101.35-69.186,123.669
		c-11.712,6.817-10.149-4.08-8.554-9.971c1.598-5.893,11.289-54.489-20.19-88.381c-15.181-16.345-31.02-34.923-38.213-60.38
		c-6.811-24.108,6.749-65.271,34.543-93.153C1006.295,759.592,1005.566,743.235,1005.566,743.235z"/>
	<path fill="#EAE1A0" d="M1006.561,994.489c17.64-33.712,6.248-66.812,0.084-79.812c-9.995-21.079-39.939-54.743-44.29-77.908
		c-4.808-25.605-3.421-48.455,11.475-77.072c-21.15,26.895-30.805,61.077-24.842,82.186c7.193,25.457,23.032,44.035,38.213,60.38
		c31.479,33.892,21.788,82.488,20.19,88.381C1007.08,991.791,1006.771,993.128,1006.561,994.489z"/>
</g>
<g id="wings">
	<g id="right_1_">
		<path fill="#A3EAF1" d="M409.127,301.917c-5.723,12.503-1.195,29.194,10.06,37.092l231.584,162.503
			c11.256,7.897,23.745,3.598,27.754-9.555l81.731-268.149c4.009-13.153-2.257-29.867-13.925-37.142L546.245,61.901
			c-11.667-7.275-25.896-2.999-31.618,9.504L409.127,301.917z"/>
	</g>
	<g id="left_1_">
		<path fill="#A3EAF1" d="M700.143,301.917c5.723,12.503,1.195,29.194-10.061,37.092L458.498,501.512
			c-11.255,7.897-23.744,3.598-27.753-9.555l-81.731-268.149c-4.009-13.153,2.257-29.867,13.925-37.142L563.024,61.901
			c11.668-7.275,25.896-2.999,31.618,9.504L700.143,301.917z"/>
	</g>
</g>
<path id="shadow_1_" display="none" fill="#61D0D6" d="M377.096,315.945l35.762,117.33l95.847-21.688l61.464-321.154
	c0,0-7.95-10.729-34.659-11.375l-115.793,72.203C402.523,198.434,388.204,259.296,377.096,315.945z"/>
<path id="body_1_" fill="#22B4D6" d="M554.95,21.455c-68.81,0-251.429,481.522-251.429,631.428S422.12,831.312,554.95,831.312
	c134.517,0,251.429-28.522,251.429-178.429S623.76,21.455,554.95,21.455z"/>
<path id="highlight" fill="#14A5C6" d="M554.95,21.455c-68.81,0-251.429,481.522-251.429,631.428
	c0,37.477,7.595,68.18,21.331,93.153c-1.005-193.066,44.055-443.833,310.042-625.54C602.759,60.241,574.618,21.455,554.95,21.455z"
	/>
<circle id="little_circle_1_" display="none" fill="none" cx="554.95" cy="612.804" r="101.333"/>
<circle id="big_circle" display="none" fill="none" cx="555.95" cy="609.804" r="162.445"/>
<g id="shadow">
	<path fill="#137889" d="M453.617,765.093c0,0,19.45,57.385,16.324,109.97c9.956,3.439,19.607,6.476,28.72,9.166
		c4.76-47.082-8.025-99.442-12.977-129.432c-2.352-0.268-4.703-0.547-7.055-0.843L453.617,765.093z"/>
	<path fill="#137889" d="M364.736,821.657c0.874-5.371,2.078-10.681,3.689-15.917c14.03-45.59,26.352-54.672,35.434-65.913
		c-17.971-4.562-35.858-9.958-53.577-16.228c-0.375,0.956-0.667,1.996-0.857,3.142c-3.603,21.805-16.506,20.295-22.845,58.16
		C337.665,798.777,350.644,810.951,364.736,821.657z"/>
	<path fill="#137889" d="M440.426,755.075c0,0-14-10-34,28c3.519,20.284,5.559,43.91,6.44,68.224
		c9.626,4.842,19.351,9.217,28.994,13.183C442.375,826.134,441.925,786.079,440.426,755.075z"/>
	<path fill="#137889" d="M688.426,797.075c0,0,7.03,37.396,16.291,74.088l-39.479-17.999c0,0-8.812,69.433-10.812,109.077
		c-0.762,15.09-1.01,36.354,3.533,56.906c7.848-8.102,15.48-16.785,22.886-25.925c-0.3-8.98,0.069-18.452,0.915-28.148
		c2.794-32.016,17.386-63.482,25.614-83.648c3.315,12.465,6.843,24.426,10.385,34.327c1.85,5.168,4.175,9.997,6.903,14.479
		c9.755-16.097,18.888-32.624,27.342-49.133c-7.256-57.816-5.578-98.691-5.578-98.691L688.426,797.075z"/>
	<path fill="#137889" d="M540.617,795.076c0,0-11.524-14.667-32.584,27.333c7.983,23.727,14.624,47.27,19.873,69.931
		c0.506,0.134,1.022,0.271,1.521,0.401c11.609,3.05,22.12,6.737,31.743,11.073C555.972,867.255,548.529,827.828,540.617,795.076z"/>
	<path fill="#137889" d="M627.915,962.414c9.559-57.83,3.515-104.546-10.746-156.674c0,0-13.006,1.125-37.395,22.031
		c12.278,19.573,16.651,56.637,18.651,92.637c0.142,2.557,0.237,5.02,0.29,7.408C609.797,937.598,619.342,949.075,627.915,962.414z"
		/>
</g>
<path id="shadow_2_" display="none" d="M290.426,698.741c15.571,131.32,166.294,174.896,239,194c68.506,18,99.574,57.604,127,128
	c97.442-99.312,162.47-289.062,164-328C676.229,774.579,469.373,784.625,290.426,698.741z"/>
<path id="bandana_2_" fill="#E54A4A" d="M305.854,687.106c15.571,131.32,149.47,142.162,223.124,157.206
	c68.954,14.084,120.689,40.367,148.115,110.763c97.442-99.312,126.12-234.358,127.65-273.297
	C660.547,763.616,484.801,772.991,305.854,687.106z"/>
<path id="shading" fill="#D84141" d="M709.049,728.114c-36.596,40.518-90.099,84.126-168.432,118.738
	c63.141,14.691,110.617,41.847,136.476,108.223c97.442-99.312,126.12-234.358,127.65-273.297
	C769.857,701.577,750.775,717.121,709.049,728.114z"/>
<g id="eye">
	<path fill="#FBFFEB" d="M463.675,568.741c0,0-10.058,19.667-10.058,44.063c0,55.965,45.369,101.333,101.333,101.333
		c55.965,0,101.333-45.368,101.333-101.333c0-29.958-10.058-44.063-10.058-44.063C595.76,591.075,513.759,590.408,463.675,568.741z"
		/>
	<path fill="#135462" d="M553.263,585.221c-11.869-0.092-23.715-0.879-35.173-2.375c-6.874,10.42-11.323,27.053-11.323,45.793
		c0,31.559,12.619,57.143,28.184,57.143s28.185-25.584,28.185-57.143C563.135,611.258,559.302,595.702,553.263,585.221z"/>
</g>
<g id="star" display="none">
	<polygon display="inline" fill="#FFD60D" points="751.571,780.238 716.31,768.285 686.475,790.556 686.945,753.327 
		656.545,731.833 692.096,720.776 703.145,685.222 724.646,715.618 761.875,715.137 739.61,744.98 	"/>
	<circle display="inline" fill="#FFD60D" cx="703.274" cy="685.227" r="5.018"/>
	<circle display="inline" fill="#FFD60D" cx="761.644" cy="715.246" r="5.018"/>
	<circle display="inline" fill="#FFD60D" cx="751.638" cy="780.288" r="5.019"/>
	<circle display="inline" fill="#FFD60D" cx="686.597" cy="790.293" r="5.019"/>
	<circle display="inline" fill="#FFD60D" cx="656.578" cy="731.923" r="5.018"/>
</g>
</svg>
